SplineFontDB: 3.0
FontName: LiberationSans
FullName: Liberation Sans
FamilyName: Liberation Sans
Weight: Book
Copyright: Digitized data © 2007 Ascender Corporation. All rights reserved.
Version: 1.02
ItalicAngle: 0
UnderlinePosition: -142
UnderlineWidth: 150
Ascent: 1638
Descent: 410
LayerCount: 2
Layer: 0 1 "+gMyXYgAA"  1
Layer: 1 1 "+Uk2XYgAA"  0
XUID: [1021 131 222397055 6568159]
FSType: 8
OS2Version: 3
OS2_WeightWidthSlopeOnly: 0
OS2_UseTypoMetrics: 1
CreationTime: 1123372800
ModificationTime: 1205763988
PfmFamily: 17
TTFWeight: 400
TTFWidth: 5
LineGap: 67
VLineGap: 0
Panose: 2 11 6 4 2 2 2 2 2 4
OS2TypoAscent: -147
OS2TypoAOffset: 1
OS2TypoDescent: -21
OS2TypoDOffset: 1
OS2TypoLinegap: 307
OS2WinAscent: -10
OS2WinAOffset: 1
OS2WinDescent: -187
OS2WinDOffset: 1
HheadAscent: -10
HheadAOffset: 1
HheadDescent: 187
HheadDOffset: 1
OS2SubXSize: 1434
OS2SubYSize: 1331
OS2SubXOff: 0
OS2SubYOff: 283
OS2SupXSize: 1434
OS2SupYSize: 1331
OS2SupXOff: 0
OS2SupYOff: 977
OS2StrikeYSize: 102
OS2StrikeYPos: 530
OS2FamilyClass: 2053
OS2Vendor: '1ASC'
OS2CodePages: 6000009f.dfd70000
OS2UnicodeRanges: a00002af.500078fb.00000000.00000000
Lookup: 258 0 0 "'kern' +aipm+DBNMKsw/DDLMPMwsAAA lookup 0"  {"'kern' +aipm+DBNMKsw/DDLMPMwsAAA lookup 0 subtable"  } ['kern' ('DFLT' <'dflt' > 'cyrl' <'dflt' > 'grek' <'dflt' > 'latn' <'dflt' > ) ]
DEI: 91125
TtTable: prep
PUSHB_2
 9
 64
PUSHW_7
 263
 1
 31
 263
 1
 159
 260
NPUSHB
 142
 1
 192
 253
 1
 175
 253
 1
 0
 253
 1
 10
 79
 251
 1
 32
 251
 1
 245
 80
 40
 31
 242
 70
 40
 31
 241
 70
 42
 31
 240
 70
 43
 31
 95
 239
 127
 239
 2
 15
 239
 79
 239
 95
 239
 143
 239
 175
 239
 5
 11
 229
 228
 30
 31
 227
 226
 70
 31
 15
 226
 1
 64
 226
 70
 22
 31
 225
 224
 70
 31
 207
 224
 223
 224
 239
 224
 3
 64
 224
 51
 54
 70
 224
 70
 24
 31
 221
 61
 223
 85
 222
 61
 3
 85
 223
 1
 3
 85
 220
 3
 255
 31
 15
 213
 31
 213
 2
 15
 213
 31
 213
 2
 64
 202
 24
 27
 70
 207
 194
 1
 189
 192
 60
 31
 193
 80
 38
 31
 188
 190
 40
 31
 255

StartChar: .notdef
Encoding: 1114112 -1 0
Width: 748
Flags: W
LayerCount: 2
Fore
SplineSet
68 0 m 1,0,-1
 68 1365 l 1,1,-1
 612 1365 l 1,2,-1
 612 0 l 1,3,-1
 68 0 l 1,0,-1
136 68 m 1,4,-1
 544 68 l 1,5,-1
 544 1297 l 1,6,-1
 136 1297 l 1,7,-1
 136 68 l 1,4,-1
EndSplineSet
EndChar

StartChar: exclam
Encoding: 33 33 4
Width: 569
GlyphClass: 2
Flags: W
LayerCount: 2
Fore
SplineSet
359 397 m 1,0,-1
 211 397 l 1,1,-1
 187 1409 l 1,2,-1
 383 1409 l 1,3,-1
 359 397 l 1,0,-1
185 0 m 1,4,-1
 185 201 l 1,5,-1
 379 201 l 1,6,-1
 379 0 l 1,7,-1
 185 0 l 1,4,-1
EndSplineSet
EndChar

StartChar: quotedbl
Encoding: 34 34 5
Width: 727
GlyphClass: 2
Flags: W
LayerCount: 2
Fore
SplineSet
618 966 m 1,0,-1
 476 966 l 1,1,-1
 456 1409 l 1,2,-1
 640 1409 l 1,3,-1
 618 966 l 1,0,-1
249 966 m 1,4,-1
 108 966 l 1,5,-1
 87 1409 l 1,6,-1
 271 1409 l 1,7,-1
 249 966 l 1,4,-1
EndSplineSet
EndChar

StartChar: numbersign
Encoding: 35 35 6
Width: 1139
GlyphClass: 2
Flags: W
LayerCount: 2
Fore
SplineSet
896 885 m 1,0,-1
 818 516 l 1,1,-1
 1078 516 l 1,2,-1
 1078 408 l 1,3,-1
 795 408 l 1,4,-1
 707 0 l 1,5,-1
 597 0 l 1,6,-1
 683 408 l 1,7,-1
 320 408 l 1,8,-1
 236 0 l 1,9,-1
 126 0 l 1,10,-1
 210 408 l 1,11,-1
 9 408 l 1,12,-1
 9 516 l 1,13,-1
 234 516 l 1,14,-1
 312 885 l 1,15,-1
 60 885 l 1,16,-1
 60 993 l 1,17,-1
 334 993 l 1,18,-1
 423 1401 l 1,19,-1
 533 1401 l 1,20,-1
 445 993 l 1,21,-1
 808 993 l 1,22,-1
 896 1401 l 1,23,-1
 1006 1401 l 1,24,-1
 918 993 l 1,25,-1
 1129 993 l 1,26,-1
 1129 885 l 1,27,-1
 896 885 l 1,0,-1
425 885 m 1,28,-1
 345 516 l 1,29,-1
 707 516 l 1,30,-1
 785 885 l 1,31,-1
 425 885 l 1,28,-1
EndSplineSet
EndChar

StartChar: dollar
Encoding: 36 36 7
Width: 1139
GlyphClass: 2
Flags: W
LayerCount: 2
Fore
SplineSet
518 20 m 1,0,1
 301 29 301 29 178.5 121.5 c 128,-1,2
 56 214 56 214 22 379 c 1,3,-1
 192 416 l 1,4,5
 203 363 203 363 226 319.5 c 128,-1,6
 249 276 249 276 288 244 c 128,-1,7
 327 212 327 212 383.5 192.5 c 128,-1,8
 440 173 440 173 518 168 c 1,9,-1
 518 664 l 1,10,-1
 498 669 l 1,11,12
 421 687 421 687 347 712 c 128,-1,13
 273 737 273 737 215 778.5 c 128,-1,14
 157 820 157 820 121.5 884 c 128,-1,15
 86 948 86 948 86 1046 c 0,16,17
 86 1130 86 1130 118 1192 c 128,-1,18
 150 1254 150 1254 207.5 1295.5 c 128,-1,19
 265 1337 265 1337 344 1359 c 128,-1,20
 423 1381 423 1381 518 1385 c 1,21,-1
 518 1516 l 1,22,-1
 642 1516 l 1,23,-1
 642 1385 l 1,24,25
 742 1380 742 1380 814.5 1357.5 c 128,-1,26
 887 1335 887 1335 938 1295 c 128,-1,27
 989 1255 989 1255 1022 1197.5 c 128,-1,28
 1055 1140 1055 1140 1075 1065 c 1,29,-1
 901 1032 l 1,30,31
 881 1126 881 1126 820 1178.5 c 128,-1,32
 759 1231 759 1231 642 1242 c 1,33,-1
 642 797 l 1,34,35
 701 783 701 783 758 768 c 128,-1,36
 815 753 815 753 866.5 732.5 c 128,-1,37
 918 712 918 712 962 684 c 128,-1,38
 1006 656 1006 656 1038 616.5 c 128,-1,39
 1070 577 1070 577 1088 522.5 c 128,-1,40
 1106 468 1106 468 1106 396 c 0,41,42
 1106 319 1106 319 1078 253.5 c 128,-1,43
 1050 188 1050 188 993 138 c 128,-1,44
 936 88 936 88 848.5 57 c 128,-1,45
 761 26 761 26 642 20 c 1,46,-1
 642 -142 l 1,47,-1
 518 -142 l 1,48,-1
 518 20 l 1,0,1
934 394 m 0,49,50
 934 457 934 457 910.5 497 c 128,-1,51
 887 537 887 537 846.5 562.5 c 128,-1,52
 806 588 806 588 753 604 c 128,-1,53
 700 620 700 620 642 635 c 1,54,-1
 642 167 l 1,55,56
 707 171 707 171 761 186.5 c 128,-1,57
 815 202 815 202 853.5 230 c 128,-1,58
 892 258 892 258 913 298.5 c 128,-1,59
 934 339 934 339 934 394 c 0,49,50
258 1048 m 0,60,61
 258 994 258 994 278 957 c 128,-1,62
 298 920 298 920 333 895 c 128,-1,63
 368 870 368 870 415.5 853.5 c 128,-1,64
 463 837 463 837 518 823 c 1,65,-1
 518 1244 l 1,66,67
 446 1240 446 1240 396 1223.5 c 128,-1,68
 346 1207 346 1207 315.5 1181 c 128,-1,69
 285 1155 285 1155 271.5 1121 c 128,-1,70
 258 1087 258 1087 258 1048 c 0,60,61
EndSplineSet
EndChar

StartChar: percent
Encoding: 37 37 8
Width: 1821
GlyphClass: 2
Flags: W
LayerCount: 2
Fore
SplineSet
1748 434 m 0,0,1
 1748 309 1748 309 1722.5 223.5 c 128,-1,2
 1697 138 1697 138 1653.5 85.5 c 128,-1,3
 1610 33 1610 33 1552 10.5 c 128,-1,4
 1494 -12 1494 -12 1428 -12 c 256,5,6
 1362 -12 1362 -12 1304.5 10.5 c 128,-1,7
 1247 33 1247 33 1204.5 85 c 128,-1,8
 1162 137 1162 137 1137.5 222.5 c 128,-1,9
 1113 308 1113 308 1113 434 c 0,10,11
 1113 567 1113 567 1137 654 c 128,-1,12
 1161 741 1161 741 1204 792.5 c 128,-1,13
 1247 844 1247 844 1305.5 864.5 c 128,-1,14
 1364 885 1364 885 1432 885 c 0,15,16
 1498 885 1498 885 1555.5 864.5 c 128,-1,17
 1613 844 1613 844 1655.5 792.5 c 128,-1,18
 1698 741 1698 741 1723 654 c 128,-1,19
 1748 567 1748 567 1748 434 c 0,0,1
527 0 m 1,20,-1
 372 0 l 1,21,-1
 1294 1409 l 1,22,-1
 1451 1409 l 1,23,-1
 527 0 l 1,20,-1
394 1421 m 0,24,25
 458 1421 458 1421 515 1400.5 c 128,-1,26
 572 1380 572 1380 615 1329 c 128,-1,27
 658 1278 658 1278 682.5 1192 c 128,-1,28
 707 1106 707 1106 707 975 c 0,29,30
 707 849 707 849 682 763 c 128,-1,31
 657 677 657 677 614.5 623.5 c 128,-1,32
 572 570 572 570 514 547 c 128,-1,33
 456 524 456 524 390 524 c 0,34,35
 323 524 323 524 265 547 c 128,-1,36
 207 570 207 570 164.5 623 c 128,-1,37
 122 676 122 676 97.5 762 c 128,-1,38
 73 848 73 848 73 975 c 0,39,40
 73 1106 73 1106 97.5 1192 c 128,-1,41
 122 1278 122 1278 165 1329 c 128,-1,42
 208 1380 208 1380 267 1400.5 c 128,-1,43
 326 1421 326 1421 394 1421 c 0,24,25
1600 434 m 0,44,45
 1600 533 1600 533 1589 598.5 c 128,-1,46
 1578 664 1578 664 1556.5 703 c 128,-1,47
 1535 742 1535 742 1503.5 758 c 128,-1,48
 1472 774 1472 774 1432 774 c 0,49,50
 1390 774 1390 774 1358 757.5 c 128,-1,51
 1326 741 1326 741 1304 702 c 128,-1,52
 1282 663 1282 663 1271 597.5 c 128,-1,53
 1260 532 1260 532 1260 434 c 0,54,55
 1260 339 1260 339 1271.5 275 c 128,-1,56
 1283 211 1283 211 1304.5 171.5 c 128,-1,57
 1326 132 1326 132 1357.5 115 c 128,-1,58
 1389 98 1389 98 1430 98 c 0,59,60
 1469 98 1469 98 1500.5 115 c 128,-1,61
 1532 132 1532 132 1554 171.5 c 128,-1,62
 1576 211 1576 211 1588 275 c 128,-1,63
 1600 339 1600 339 1600 434 c 0,44,45
560 975 m 0,64,65
 560 1073 560 1073 549 1138 c 128,-1,66
 538 1203 538 1203 517 1242 c 128,-1,67
 496 1281 496 1281 465 1297 c 128,-1,68
 434 1313 434 1313 394 1313 c 0,69,70
 351 1313 351 1313 318.5 1296.5 c 128,-1,71
 286 1280 286 1280 264 1241 c 128,-1,72
 242 1202 242 1202 231 1137 c 128,-1,73
 220 1072 220 1072 220 975 c 0,74,75
 220 880 220 880 231.5 815 c 128,-1,76
 243 750 243 750 264.5 710.5 c 128,-1,77
 286 671 286 671 318 654 c 128,-1,78
 350 637 350 637 392 637 c 0,79,80
 430 637 430 637 461 654 c 128,-1,81
 492 671 492 671 514 710.5 c 128,-1,82
 536 750 536 750 548 815 c 128,-1,83
 560 880 560 880 560 975 c 0,64,65
EndSplineSet
EndChar

StartChar: ampersand
Encoding: 38 38 9
Width: 1366
GlyphClass: 2
Flags: W
LayerCount: 2
Fore
SplineSet
1193 -12 m 0,0,1
 1097 -12 1097 -12 1025 21 c 128,-1,2
 953 54 953 54 895 115 c 1,3,4
 865 89 865 89 827 65 c 128,-1,5
 789 41 789 41 742.5 22 c 128,-1,6
 696 3 696 3 641.5 -8.5 c 128,-1,7
 587 -20 587 -20 523 -20 c 0,8,9
 406 -20 406 -20 320.5 10 c 128,-1,10
 235 40 235 40 180 92.5 c 128,-1,11
 125 145 125 145 98.5 216.5 c 128,-1,12
 72 288 72 288 72 371 c 0,13,14
 72 450 72 450 97.5 514.5 c 128,-1,15
 123 579 123 579 168.5 631.5 c 128,-1,16
 214 684 214 684 277 725.5 c 128,-1,17
 340 767 340 767 415 800 c 1,18,19
 397 834 397 834 382.5 872.5 c 128,-1,20
 368 911 368 911 357 950 c 128,-1,21
 346 989 346 989 340 1028 c 128,-1,22
 334 1067 334 1067 334 1102 c 0,23,24
 334 1168 334 1168 354 1225.5 c 128,-1,25
 374 1283 374 1283 416.5 1325.5 c 128,-1,26
 459 1368 459 1368 525.5 1392.5 c 128,-1,27
 592 1417 592 1417 685 1417 c 0,28,29
 758 1417 758 1417 819.5 1398 c 128,-1,30
 881 1379 881 1379 926 1343 c 128,-1,31
 971 1307 971 1307 996 1254 c 128,-1,32
 1021 1201 1021 1201 1021 1133 c 0,33,34
 1021 1058 1021 1058 988 999.5 c 128,-1,35
 955 941 955 941 899 895 c 128,-1,36
 843 849 843 849 769 811.5 c 128,-1,37
 695 774 695 774 612 741 c 1,38,39
 674 627 674 627 747 526.5 c 128,-1,40
 820 426 820 426 905 329 c 1,41,42
 966 419 966 419 1006.5 518.5 c 128,-1,43
 1047 618 1047 618 1076 739 c 1,44,-1
 1221 696 l 1,45,46
 1186 557 1186 557 1132.5 443.5 c 128,-1,47
 1079 330 1079 330 1009 227 c 1,48,49
 1062 173 1062 173 1115 151 c 128,-1,50
 1168 129 1168 129 1217 129 c 0,51,52
 1249 129 1249 129 1278.5 132.5 c 128,-1,53
 1308 136 1308 136 1334 145 c 1,54,-1
 1334 10 l 1,55,56
 1306 -1 1306 -1 1268.5 -6.5 c 128,-1,57
 1231 -12 1231 -12 1193 -12 c 0,0,1
869 1133 m 0,58,59
 869 1170 869 1170 855.5 1200 c 128,-1,60
 842 1230 842 1230 818 1251.5 c 128,-1,61
 794 1273 794 1273 759.5 1284.5 c 128,-1,62
 725 1296 725 1296 683 1296 c 0,63,64
 587 1296 587 1296 537 1244.5 c 128,-1,65
 487 1193 487 1193 487 1102 c 0,66,67
 487 1043 487 1043 505.5 978.5 c 128,-1,68
 524 914 524 914 552 858 c 1,69,70
 617 884 617 884 675 911.5 c 128,-1,71
 733 939 733 939 776 971.5 c 128,-1,72
 819 1004 819 1004 844 1043.5 c 128,-1,73
 869 1083 869 1083 869 1133 c 0,58,59
795 217 m 1,74,75
 706 322 706 322 624 437 c 128,-1,76
 542 552 542 552 476 674 c 1,77,78
 363 626 363 626 301.5 552 c 128,-1,79
 240 478 240 478 240 373 c 0,80,81
 240 318 240 318 257.5 270.5 c 128,-1,82
 275 223 275 223 311 187.5 c 128,-1,83
 347 152 347 152 401.5 131.5 c 128,-1,84
 456 111 456 111 529 111 c 0,85,86
 573 111 573 111 612.5 120.5 c 128,-1,87
 652 130 652 130 686 145 c 128,-1,88
 720 160 720 160 747.5 179 c 128,-1,89
 775 198 775 198 795 217 c 1,74,75
EndSplineSet
EndChar

StartChar: quotesingle
Encoding: 39 39 10
Width: 391
GlyphClass: 2
Flags: W
LayerCount: 2
Fore
SplineSet
266 966 m 1,0,-1
 125 966 l 1,1,-1
 104 1409 l 1,2,-1
 288 1409 l 1,3,-1
 266 966 l 1,0,-1
EndSplineSet
EndChar

StartChar: parenleft
Encoding: 40 40 11
Width: 682
GlyphClass: 2
Flags: W
LayerCount: 2
Fore
SplineSet
127 532 m 2,0,1
 127 671 127 671 148 798 c 128,-1,2
 169 925 169 925 214 1042 c 128,-1,3
 259 1159 259 1159 329 1269 c 128,-1,4
 399 1379 399 1379 496 1484 c 1,5,-1
 670 1484 l 1,6,7
 576 1379 576 1379 507.5 1268.5 c 128,-1,8
 439 1158 439 1158 395 1040.5 c 128,-1,9
 351 923 351 923 329.5 796 c 128,-1,10
 308 669 308 669 308 530 c 256,11,12
 308 391 308 391 329.5 264 c 128,-1,13
 351 137 351 137 395 19 c 128,-1,14
 439 -99 439 -99 507.5 -209 c 128,-1,15
 576 -319 576 -319 670 -424 c 1,16,-1
 496 -424 l 1,17,18
 399 -319 399 -319 329 -209 c 128,-1,19
 259 -99 259 -99 214 18 c 128,-1,20
 169 135 169 135 148 261.5 c 128,-1,21
 127 388 127 388 127 528 c 2,22,-1
 127 532 l 2,0,1
EndSplineSet
EndChar

StartChar: parenright
Encoding: 41 41 12
Width: 682
GlyphClass: 2
Flags: W
LayerCount: 2
Fore
SplineSet
555 528 m 2,0,1
 555 388 555 388 534 261.5 c 128,-1,2
 513 135 513 135 468 18 c 128,-1,3
 423 -99 423 -99 353 -209 c 128,-1,4
 283 -319 283 -319 186 -424 c 1,5,-1
 12 -424 l 1,6,7
 106 -319 106 -319 174.5 -209 c 128,-1,8
 243 -99 243 -99 287 19 c 128,-1,9
 331 137 331 137 352.5 264 c 128,-1,10
 374 391 374 391 374 530 c 256,11,12
 374 669 374 669 352.5 796 c 128,-1,13
 331 923 331 923 287 1040.5 c 128,-1,14
 243 1158 243 1158 174.5 1268.5 c 128,-1,15
 106 1379 106 1379 12 1484 c 1,16,-1
 186 1484 l 1,17,18
 283 1379 283 1379 353 1269 c 128,-1,19
 423 1159 423 1159 468 1042 c 128,-1,20
 513 925 513 925 534 798 c 128,-1,21
 555 671 555 671 555 532 c 2,22,-1
 555 528 l 2,0,1
EndSplineSet
EndChar

StartChar: asterisk
Encoding: 42 42 13
Width: 797
GlyphClass: 2
Flags: W
LayerCount: 2
Fore
SplineSet
456 1114 m 1,0,-1
 720 1217 l 1,1,-1
 765 1085 l 1,2,-1
 483 1012 l 1,3,-1
 668 762 l 1,4,-1
 549 690 l 1,5,-1
 399 948 l 1,6,-1
 243 692 l 1,7,-1
 124 764 l 1,8,-1
 313 1012 l 1,9,-1
 33 1085 l 1,10,-1
 78 1219 l 1,11,-1
 345 1112 l 1,12,-1
 333 1409 l 1,13,-1
 469 1409 l 1,14,-1
 456 1114 l 1,0,-1
EndSplineSet
EndChar

StartChar: plus
Encoding: 43 43 14
Width: 1196
GlyphClass: 2
Flags: W
LayerCount: 2
Fore
SplineSet
671 608 m 1,0,-1
 671 180 l 1,1,-1
 524 180 l 1,2,-1
 524 608 l 1,3,-1
 100 608 l 1,4,-1
 100 754 l 1,5,-1
 524 754 l 1,6,-1
 524 1182 l 1,7,-1
 671 1182 l 1,8,-1
 671 754 l 1,9,-1
 1095 754 l 1,10,-1
 1095 608 l 1,11,-1
 671 608 l 1,0,-1
EndSplineSet
EndChar

StartChar: comma
Encoding: 44 44 15
Width: 569
GlyphClass: 2
Flags: W
LayerCount: 2
Fore
SplineSet
385 219 m 1,0,-1
 385 51 l 2,1,2
 385 -2 385 -2 380.5 -45.5 c 128,-1,3
 376 -89 376 -89 366 -126.5 c 128,-1,4
 356 -164 356 -164 341.5 -197 c 128,-1,5
 327 -230 327 -230 307 -262 c 1,6,-1
 184 -262 l 1,7,8
 229 -197 229 -197 253.5 -131 c 128,-1,9
 278 -65 278 -65 278 0 c 1,10,-1
 190 0 l 1,11,-1
 190 219 l 1,12,-1
 385 219 l 1,0,-1
EndSplineSet
EndChar

StartChar: uni00AD
Encoding: 173 173 16
AltUni2: 00002d.ffffffff.0
Width: 682
GlyphClass: 2
Flags: W
LayerCount: 2
Fore
SplineSet
91 464 m 1,0,-1
 91 624 l 1,1,-1
 591 624 l 1,2,-1
 591 464 l 1,3,-1
 91 464 l 1,0,-1
EndSplineSet
EndChar

StartChar: period
Encoding: 46 46 17
Width: 569
GlyphClass: 2
Flags: W
LayerCount: 2
Fore
SplineSet
187 0 m 1,0,-1
 187 219 l 1,1,-1
 382 219 l 1,2,-1
 382 0 l 1,3,-1
 187 0 l 1,0,-1
EndSplineSet
EndChar

StartChar: slash
Encoding: 47 47 18
Width: 569
GlyphClass: 2
Flags: W
LayerCount: 2
Fore
SplineSet
0 -20 m 1,0,-1
 411 1484 l 1,1,-1
 569 1484 l 1,2,-1
 162 -20 l 1,3,-1
 0 -20 l 1,0,-1
EndSplineSet
EndChar

StartChar: zero
Encoding: 48 48 19
Width: 1139
GlyphClass: 2
Flags: W
LayerCount: 2
Fore
SplineSet
1059 705 m 0,0,1
 1059 502 1059 502 1020.5 363.5 c 128,-1,2
 982 225 982 225 915.5 139.5 c 128,-1,3
 849 54 849 54 759 17 c 128,-1,4
 669 -20 669 -20 567 -20 c 0,5,6
 464 -20 464 -20 375 17 c 128,-1,7
 286 54 286 54 220.5 139 c 128,-1,8
 155 224 155 224 117.5 362.5 c 128,-1,9
 80 501 80 501 80 705 c 0,10,11
 80 918 80 918 117.5 1057.5 c 128,-1,12
 155 1197 155 1197 221 1280 c 128,-1,13
 287 1363 287 1363 377 1396.5 c 128,-1,14
 467 1430 467 1430 573 1430 c 0,15,16
 674 1430 674 1430 762.5 1396.5 c 128,-1,17
 851 1363 851 1363 917 1280 c 128,-1,18
 983 1197 983 1197 1021 1057.5 c 128,-1,19
 1059 918 1059 918 1059 705 c 0,0,1
876 705 m 0,20,21
 876 873 876 873 856 984.5 c 128,-1,22
 836 1096 836 1096 797 1162.5 c 128,-1,23
 758 1229 758 1229 701.5 1256.5 c 128,-1,24
 645 1284 645 1284 573 1284 c 0,25,26
 497 1284 497 1284 439 1256 c 128,-1,27
 381 1228 381 1228 341.5 1161.5 c 128,-1,28
 302 1095 302 1095 282 983.5 c 128,-1,29
 262 872 262 872 262 705 c 0,30,31
 262 543 262 543 282.5 432 c 128,-1,32
 303 321 303 321 342.5 253.5 c 128,-1,33
 382 186 382 186 439 156.5 c 128,-1,34
 496 127 496 127 569 127 c 0,35,36
 640 127 640 127 697 156.5 c 128,-1,37
 754 186 754 186 793.5 253.5 c 128,-1,38
 833 321 833 321 854.5 432 c 128,-1,39
 876 543 876 543 876 705 c 0,20,21
EndSplineSet
EndChar

StartChar: one
Encoding: 49 49 20
Width: 1139
GlyphClass: 2
Flags: W
LayerCount: 2
Fore
SplineSet
156 0 m 1,0,-1
 156 153 l 1,1,-1
 515 153 l 1,2,-1
 515 1237 l 1,3,-1
 197 1010 l 1,4,-1
 197 1180 l 1,5,-1
 530 1409 l 1,6,-1
 696 1409 l 1,7,-1
 696 153 l 1,8,-1
 1039 153 l 1,9,-1
 1039 0 l 1,10,-1
 156 0 l 1,0,-1
EndSplineSet
EndChar

StartChar: two
Encoding: 50 50 21
Width: 1139
GlyphClass: 2
Flags: W
LayerCount: 2
Fore
SplineSet
103 0 m 1,0,-1
 103 127 l 1,1,2
 154 244 154 244 227.5 333.5 c 128,-1,3
 301 423 301 423 382 495.5 c 128,-1,4
 463 568 463 568 542.5 630 c 128,-1,5
 622 692 622 692 686 754 c 128,-1,6
 750 816 750 816 789.5 884 c 128,-1,7
 829 952 829 952 829 1038 c 0,8,9
 829 1098 829 1098 811 1143.5 c 128,-1,10
 793 1189 793 1189 759 1220 c 128,-1,11
 725 1251 725 1251 677.5 1266.5 c 128,-1,12
 630 1282 630 1282 572 1282 c 0,13,14
 518 1282 518 1282 470.5 1267 c 128,-1,15
 423 1252 423 1252 386 1222 c 128,-1,16
 349 1192 349 1192 325.5 1147.5 c 128,-1,17
 302 1103 302 1103 295 1044 c 1,18,-1
 111 1061 l 1,19,20
 120 1137 120 1137 153 1204 c 128,-1,21
 186 1271 186 1271 244 1321.5 c 128,-1,22
 302 1372 302 1372 383.5 1401 c 128,-1,23
 465 1430 465 1430 572 1430 c 0,24,25
 677 1430 677 1430 759 1405 c 128,-1,26
 841 1380 841 1380 897.5 1331 c 128,-1,27
 954 1282 954 1282 984 1210 c 128,-1,28
 1014 1138 1014 1138 1014 1044 c 0,29,30
 1014 973 1014 973 988.5 909 c 128,-1,31
 963 845 963 845 920.5 787 c 128,-1,32
 878 729 878 729 822 675 c 128,-1,33
 766 621 766 621 705 569.5 c 128,-1,34
 644 518 644 518 582 467.5 c 128,-1,35
 520 417 520 417 465.5 366 c 128,-1,36
 411 315 411 315 368 262.5 c 128,-1,37
 325 210 325 210 301 153 c 1,38,-1
 1036 153 l 1,39,-1
 1036 0 l 1,40,-1
 103 0 l 1,0,-1
EndSplineSet
EndChar

StartChar: three
Encoding: 51 51 22
Width: 1139
GlyphClass: 2
Flags: W
LayerCount: 2
Fore
SplineSet
1049 389 m 0,0,1
 1049 292 1049 292 1017.5 216 c 128,-1,2
 986 140 986 140 925.5 87.5 c 128,-1,3
 865 35 865 35 775.5 7.5 c 128,-1,4
 686 -20 686 -20 571 -20 c 0,5,6
 440 -20 440 -20 350.5 12.5 c 128,-1,7
 261 45 261 45 203 98.5 c 128,-1,8
 145 152 145 152 116 220.5 c 128,-1,9
 87 289 87 289 78 362 c 1,10,-1
 264 379 l 1,11,12
 272 323 272 323 293.5 277 c 128,-1,13
 315 231 315 231 352 198 c 128,-1,14
 389 165 389 165 443 147 c 128,-1,15
 497 129 497 129 571 129 c 0,16,17
 707 129 707 129 784.5 196 c 128,-1,18
 862 263 862 263 862 395 c 0,19,20
 862 473 862 473 827.5 520.5 c 128,-1,21
 793 568 793 568 741.5 594.5 c 128,-1,22
 690 621 690 621 629.5 630 c 128,-1,23
 569 639 569 639 518 639 c 2,24,-1
 416 639 l 1,25,-1
 416 795 l 1,26,-1
 514 795 l 2,27,28
 565 795 565 795 620 805.5 c 128,-1,29
 675 816 675 816 720.5 843.5 c 128,-1,30
 766 871 766 871 795.5 918 c 128,-1,31
 825 965 825 965 825 1038 c 0,32,33
 825 1151 825 1151 758.5 1216.5 c 128,-1,34
 692 1282 692 1282 561 1282 c 0,35,36
 442 1282 442 1282 368.5 1221 c 128,-1,37
 295 1160 295 1160 283 1049 c 1,38,-1
 102 1063 l 1,39,40
 113 1156 113 1156 153 1225 c 128,-1,41
 193 1294 193 1294 254.5 1339.5 c 128,-1,42
 316 1385 316 1385 395 1407.5 c 128,-1,43
 474 1430 474 1430 563 1430 c 0,44,45
 681 1430 681 1430 766 1400.5 c 128,-1,46
 851 1371 851 1371 905 1320.5 c 128,-1,47
 959 1270 959 1270 984.5 1202 c 128,-1,48
 1010 1134 1010 1134 1010 1057 c 0,49,50
 1010 995 1010 995 993 941 c 128,-1,51
 976 887 976 887 940 844 c 128,-1,52
 904 801 904 801 848.5 770 c 128,-1,53
 793 739 793 739 715 723 c 1,54,-1
 715 719 l 1,55,56
 800 710 800 710 863 680.5 c 128,-1,57
 926 651 926 651 967 607 c 128,-1,58
 1008 563 1008 563 1028.5 507 c 128,-1,59
 1049 451 1049 451 1049 389 c 0,0,1
EndSplineSet
EndChar

StartChar: four
Encoding: 52 52 23
Width: 1139
GlyphClass: 2
Flags: W
LayerCount: 2
Fore
SplineSet
881 319 m 1,0,-1
 881 0 l 1,1,-1
 711 0 l 1,2,-1
 711 319 l 1,3,-1
 47 319 l 1,4,-1
 47 459 l 1,5,-1
 692 1409 l 1,6,-1
 881 1409 l 1,7,-1
 881 461 l 1,8,-1
 1079 461 l 1,9,-1
 1079 319 l 1,10,-1
 881 319 l 1,0,-1
711 1206 m 1,11,12
 709 1201 709 1201 701 1186.5 c 128,-1,13
 693 1172 693 1172 683 1154 c 128,-1,14
 673 1136 673 1136 662.5 1117.5 c 128,-1,15
 652 1099 652 1099 644 1087 c 2,16,-1
 283 555 l 2,17,18
 278 547 278 547 268.5 534 c 128,-1,19
 259 521 259 521 249 507.5 c 128,-1,20
 239 494 239 494 229 481 c 128,-1,21
 219 468 219 468 213 461 c 1,22,-1
 711 461 l 1,23,-1
 711 1206 l 1,11,12
EndSplineSet
EndChar

StartChar: five
Encoding: 53 53 24
Width: 1139
GlyphClass: 2
Flags: W
LayerCount: 2
Fore
SplineSet
1053 459 m 0,0,1
 1053 353 1053 353 1021 265 c 128,-1,2
 989 177 989 177 926 113.5 c 128,-1,3
 863 50 863 50 769.5 15 c 128,-1,4
 676 -20 676 -20 553 -20 c 0,5,6
 442 -20 442 -20 359.5 6 c 128,-1,7
 277 32 277 32 220 77.5 c 128,-1,8
 163 123 163 123 129.5 184 c 128,-1,9
 96 245 96 245 82 315 c 1,10,-1
 264 336 l 1,11,12
 275 296 275 296 295 258.5 c 128,-1,13
 315 221 315 221 349.5 191.5 c 128,-1,14
 384 162 384 162 434.5 144.5 c 128,-1,15
 485 127 485 127 557 127 c 0,16,17
 627 127 627 127 684 148.5 c 128,-1,18
 741 170 741 170 781.5 212 c 128,-1,19
 822 254 822 254 844 315 c 128,-1,20
 866 376 866 376 866 455 c 0,21,22
 866 520 866 520 845 574.5 c 128,-1,23
 824 629 824 629 785 668.5 c 128,-1,24
 746 708 746 708 689.5 730 c 128,-1,25
 633 752 633 752 561 752 c 0,26,27
 516 752 516 752 478 744 c 128,-1,28
 440 736 440 736 407.5 722 c 128,-1,29
 375 708 375 708 348.5 689.5 c 128,-1,30
 322 671 322 671 299 651 c 1,31,-1
 123 651 l 1,32,-1
 170 1409 l 1,33,-1
 971 1409 l 1,34,-1
 971 1256 l 1,35,-1
 334 1256 l 1,36,-1
 307 809 l 1,37,38
 355 846 355 846 427 872.5 c 128,-1,39
 499 899 499 899 598 899 c 0,40,41
 703 899 703 899 787 867 c 128,-1,42
 871 835 871 835 930 776.5 c 128,-1,43
 989 718 989 718 1021 637 c 128,-1,44
 1053 556 1053 556 1053 459 c 0,0,1
EndSplineSet
EndChar

StartChar: six
Encoding: 54 54 25
Width: 1139
GlyphClass: 2
Flags: W
LayerCount: 2
Fore
SplineSet
1049 461 m 0,0,1
 1049 355 1049 355 1019.5 266.5 c 128,-1,2
 990 178 990 178 932.5 114.5 c 128,-1,3
 875 51 875 51 790 15.5 c 128,-1,4
 705 -20 705 -20 594 -20 c 0,5,6
 471 -20 471 -20 379 27 c 128,-1,7
 287 74 287 74 226 162.5 c 128,-1,8
 165 251 165 251 134.5 379.5 c 128,-1,9
 104 508 104 508 104 672 c 0,10,11
 104 860 104 860 138.5 1002 c 128,-1,12
 173 1144 173 1144 238 1239 c 128,-1,13
 303 1334 303 1334 396.5 1382 c 128,-1,14
 490 1430 490 1430 608 1430 c 0,15,16
 680 1430 680 1430 743 1415 c 128,-1,17
 806 1400 806 1400 857.5 1366.5 c 128,-1,18
 909 1333 909 1333 948 1278 c 128,-1,19
 987 1223 987 1223 1010 1143 c 1,20,-1
 838 1112 l 1,21,22
 810 1203 810 1203 748.5 1243.5 c 128,-1,23
 687 1284 687 1284 606 1284 c 0,24,25
 532 1284 532 1284 472 1249 c 128,-1,26
 412 1214 412 1214 370 1144.5 c 128,-1,27
 328 1075 328 1075 305.5 970 c 128,-1,28
 283 865 283 865 283 725 c 1,29,30
 332 816 332 816 421 863.5 c 128,-1,31
 510 911 510 911 625 911 c 0,32,33
 721 911 721 911 799 880 c 128,-1,34
 877 849 877 849 932.5 790.5 c 128,-1,35
 988 732 988 732 1018.5 648.5 c 128,-1,36
 1049 565 1049 565 1049 461 c 0,0,1
866 453 m 0,37,38
 866 526 866 526 848 585 c 128,-1,39
 830 644 830 644 794 685.5 c 128,-1,40
 758 727 758 727 705 749.5 c 128,-1,41
 652 772 652 772 582 772 c 0,42,43
 533 772 533 772 483 757.5 c 128,-1,44
 433 743 433 743 392.5 710.5 c 128,-1,45
 352 678 352 678 326.5 625 c 128,-1,46
 301 572 301 572 301 496 c 0,47,48
 301 418 301 418 321 350.5 c 128,-1,49
 341 283 341 283 378.5 233 c 128,-1,50
 416 183 416 183 469 154 c 128,-1,51
 522 125 522 125 588 125 c 0,52,53
 653 125 653 125 704.5 147.5 c 128,-1,54
 756 170 756 170 792 212.5 c 128,-1,55
 828 255 828 255 847 316 c 128,-1,56
 866 377 866 377 866 453 c 0,37,38
EndSplineSet
EndChar

StartChar: seven
Encoding: 55 55 26
Width: 1139
GlyphClass: 2
Flags: W
LayerCount: 2
Fore
SplineSet
1036 1263 m 1,0,1
 930 1101 930 1101 841 951.5 c 128,-1,2
 752 802 752 802 688 650.5 c 128,-1,3
 624 499 624 499 588.5 339.5 c 128,-1,4
 553 180 553 180 553 0 c 1,5,-1
 365 0 l 1,6,7
 365 169 365 169 405 331.5 c 128,-1,8
 445 494 445 494 513 650.5 c 128,-1,9
 581 807 581 807 671 958 c 128,-1,10
 761 1109 761 1109 862 1256 c 1,11,-1
 105 1256 l 1,12,-1
 105 1409 l 1,13,-1
 1036 1409 l 1,14,-1
 1036 1263 l 1,0,1
EndSplineSet
EndChar

StartChar: eight
Encoding: 56 56 27
Width: 1139
GlyphClass: 2
Flags: W
LayerCount: 2
Fore
SplineSet
1050 393 m 0,0,1
 1050 303 1050 303 1021.5 227.5 c 128,-1,2
 993 152 993 152 934.5 97 c 128,-1,3
 876 42 876 42 785 11 c 128,-1,4
 694 -20 694 -20 570 -20 c 256,5,6
 446 -20 446 -20 355.5 11 c 128,-1,7
 265 42 265 42 205.5 96.5 c 128,-1,8
 146 151 146 151 117.5 226.5 c 128,-1,9
 89 302 89 302 89 391 c 0,10,11
 89 468 89 468 112.5 528 c 128,-1,12
 136 588 136 588 175.5 631.5 c 128,-1,13
 215 675 215 675 265.5 701.5 c 128,-1,14
 316 728 316 728 370 737 c 1,15,-1
 370 741 l 1,16,17
 311 755 311 755 264.5 786 c 128,-1,18
 218 817 218 817 186.5 860.5 c 128,-1,19
 155 904 155 904 138.5 957 c 128,-1,20
 122 1010 122 1010 122 1069 c 0,21,22
 122 1143 122 1143 150.5 1208.5 c 128,-1,23
 179 1274 179 1274 235 1323.5 c 128,-1,24
 291 1373 291 1373 374 1401.5 c 128,-1,25
 457 1430 457 1430 566 1430 c 0,26,27
 681 1430 681 1430 765.5 1401 c 128,-1,28
 850 1372 850 1372 905.5 1322.5 c 128,-1,29
 961 1273 961 1273 988 1207 c 128,-1,30
 1015 1141 1015 1141 1015 1067 c 0,31,32
 1015 1009 1015 1009 998.5 956 c 128,-1,33
 982 903 982 903 950.5 859.5 c 128,-1,34
 919 816 919 816 872.5 785.5 c 128,-1,35
 826 755 826 755 765 743 c 1,36,-1
 765 739 l 1,37,38
 826 729 826 729 878 702.5 c 128,-1,39
 930 676 930 676 968 632.5 c 128,-1,40
 1006 589 1006 589 1028 529 c 128,-1,41
 1050 469 1050 469 1050 393 c 0,0,1
828 1057 m 0,42,43
 828 1110 828 1110 814.5 1154 c 128,-1,44
 801 1198 801 1198 770 1229.5 c 128,-1,45
 739 1261 739 1261 689 1278.5 c 128,-1,46
 639 1296 639 1296 566 1296 c 0,47,48
 495 1296 495 1296 446 1278.5 c 128,-1,49
 397 1261 397 1261 365.5 1229.5 c 128,-1,50
 334 1198 334 1198 320 1154 c 128,-1,51
 306 1110 306 1110 306 1057 c 0,52,53
 306 1015 306 1015 317 971 c 128,-1,54
 328 927 328 927 357 891 c 128,-1,55
 386 855 386 855 437 832 c 128,-1,56
 488 809 488 809 568 809 c 0,57,58
 653 809 653 809 704.5 832 c 128,-1,59
 756 855 756 855 783.5 891 c 128,-1,60
 811 927 811 927 819.5 971 c 128,-1,61
 828 1015 828 1015 828 1057 c 0,42,43
863 410 m 0,62,63
 863 461 863 461 849 508.5 c 128,-1,64
 835 556 835 556 801 592.5 c 128,-1,65
 767 629 767 629 709.5 651.5 c 128,-1,66
 652 674 652 674 566 674 c 0,67,68
 487 674 487 674 431.5 651.5 c 128,-1,69
 376 629 376 629 341.5 592 c 128,-1,70
 307 555 307 555 291 506.5 c 128,-1,71
 275 458 275 458 275 406 c 0,72,73
 275 341 275 341 291 287.5 c 128,-1,74
 307 234 307 234 342 195.5 c 128,-1,75
 377 157 377 157 434 136 c 128,-1,76
 491 115 491 115 572 115 c 0,77,78
 654 115 654 115 710 136 c 128,-1,79
 766 157 766 157 800 195.5 c 128,-1,80
 834 234 834 234 848.5 288.5 c 128,-1,81
 863 343 863 343 863 410 c 0,62,63
EndSplineSet
EndChar

StartChar: nine
Encoding: 57 57 28
Width: 1139
GlyphClass: 2
Flags: W
LayerCount: 2
Fore
SplineSet
1042 733 m 0,0,1
 1042 545 1042 545 1006.5 403.5 c 128,-1,2
 971 262 971 262 905 168 c 128,-1,3
 839 74 839 74 744.5 27 c 128,-1,4
 650 -20 650 -20 532 -20 c 0,5,6
 451 -20 451 -20 386 -3.5 c 128,-1,7
 321 13 321 13 270 48 c 128,-1,8
 219 83 219 83 183 139 c 128,-1,9
 147 195 147 195 125 274 c 1,10,-1
 297 301 l 1,11,12
 325 210 325 210 384.5 167.5 c 128,-1,13
 444 125 444 125 535 125 c 0,14,15
 608 125 608 125 668.5 159.5 c 128,-1,16
 729 194 729 194 771.5 263 c 128,-1,17
 814 332 814 332 838 436 c 128,-1,18
 862 540 862 540 864 680 c 1,19,20
 843 633 843 633 806.5 596 c 128,-1,21
 770 559 770 559 723.5 533.5 c 128,-1,22
 677 508 677 508 623 494.5 c 128,-1,23
 569 481 569 481 514 481 c 0,24,25
 418 481 418 481 340.5 515.5 c 128,-1,26
 263 550 263 550 209 612 c 128,-1,27
 155 674 155 674 125.5 761.5 c 128,-1,28
 96 849 96 849 96 956 c 0,29,30
 96 1065 96 1065 127.5 1153 c 128,-1,31
 159 1241 159 1241 219 1302.5 c 128,-1,32
 279 1364 279 1364 366.5 1397 c 128,-1,33
 454 1430 454 1430 565 1430 c 0,34,35
 800 1430 800 1430 921 1256 c 128,-1,36
 1042 1082 1042 1082 1042 733 c 0,0,1
846 907 m 0,37,38
 846 985 846 985 827.5 1054 c 128,-1,39
 809 1123 809 1123 772.5 1174 c 128,-1,40
 736 1225 736 1225 682.5 1254.5 c 128,-1,41
 629 1284 629 1284 559 1284 c 0,42,43
 494 1284 494 1284 442 1261 c 128,-1,44
 390 1238 390 1238 354 1195.5 c 128,-1,45
 318 1153 318 1153 298.5 1092 c 128,-1,46
 279 1031 279 1031 279 956 c 0,47,48
 279 885 279 885 296.5 824 c 128,-1,49
 314 763 314 763 349 718.5 c 128,-1,50
 384 674 384 674 436 648.5 c 128,-1,51
 488 623 488 623 557 623 c 0,52,53
 607 623 607 623 658.5 640 c 128,-1,54
 710 657 710 657 751.5 692 c 128,-1,55
 793 727 793 727 819.5 780.5 c 128,-1,56
 846 834 846 834 846 907 c 0,37,38
EndSplineSet
EndChar

StartChar: colon
Encoding: 58 58 29
Width: 569
GlyphClass: 2
Flags: W
LayerCount: 2
Fore
SplineSet
187 875 m 1,0,-1
 187 1082 l 1,1,-1
 382 1082 l 1,2,-1
 382 875 l 1,3,-1
 187 875 l 1,0,-1
187 0 m 1,4,-1
 187 207 l 1,5,-1
 382 207 l 1,6,-1
 382 0 l 1,7,-1
 187 0 l 1,4,-1
EndSplineSet
EndChar

StartChar: uni037E
Encoding: 894 894 30
AltUni2: 00003b.ffffffff.0
Width: 569
GlyphClass: 2
Flags: W
LayerCount: 2
Fore
SplineSet
385 207 m 1,0,-1
 385 51 l 2,1,2
 385 -2 385 -2 380.5 -45.5 c 128,-1,3
 376 -89 376 -89 366 -126.5 c 128,-1,4
 356 -164 356 -164 341.5 -197 c 128,-1,5
 327 -230 327 -230 307 -262 c 1,6,-1
 184 -262 l 1,7,8
 229 -197 229 -197 253.5 -131 c 128,-1,9
 278 -65 278 -65 278 0 c 1,10,-1
 190 0 l 1,11,-1
 190 207 l 1,12,-1
 385 207 l 1,0,-1
190 875 m 1,13,-1
 190 1082 l 1,14,-1
 385 1082 l 1,15,-1
 385 875 l 1,16,-1
 190 875 l 1,13,-1
EndSplineSet
EndChar

StartChar: less
Encoding: 60 60 31
Width: 1196
GlyphClass: 2
Flags: W
LayerCount: 2
Fore
SplineSet
101 571 m 1,0,-1
 101 776 l 1,1,-1
 1096 1194 l 1,2,-1
 1096 1040 l 1,3,-1
 238 674 l 1,4,-1
 1096 307 l 1,5,-1
 1096 154 l 1,6,-1
 101 571 l 1,0,-1
EndSplineSet
EndChar

StartChar: equal
Encoding: 61 61 32
Width: 1196
GlyphClass: 2
Flags: W
LayerCount: 2
Fore
SplineSet
100 856 m 1,0,-1
 100 1004 l 1,1,-1
 1095 1004 l 1,2,-1
 1095 856 l 1,3,-1
 100 856 l 1,0,-1
100 344 m 1,4,-1
 100 492 l 1,5,-1
 1095 492 l 1,6,-1
 1095 344 l 1,7,-1
 100 344 l 1,4,-1
EndSplineSet
EndChar

StartChar: greater
Encoding: 62 62 33
Width: 1196
GlyphClass: 2
Flags: W
LayerCount: 2
Fore
SplineSet
101 154 m 1,0,-1
 101 307 l 1,1,-1
 959 674 l 1,2,-1
 101 1040 l 1,3,-1
 101 1194 l 1,4,-1
 1096 776 l 1,5,-1
 1096 571 l 1,6,-1
 101 154 l 1,0,-1
EndSplineSet
EndChar

StartChar: question
Encoding: 63 63 34
Width: 1139
GlyphClass: 2
Flags: W
LayerCount: 2
Fore
SplineSet
1063 1032 m 0,0,1
 1063 961 1063 961 1044.5 907 c 128,-1,2
 1026 853 1026 853 995 810.5 c 128,-1,3
 964 768 964 768 924.5 734.5 c 128,-1,4
 885 701 885 701 844 671 c 128,-1,5
 803 641 803 641 763.5 612 c 128,-1,6
 724 583 724 583 692.5 549 c 128,-1,7
 661 515 661 515 641.5 473.5 c 128,-1,8
 622 432 622 432 621 377 c 1,9,-1
 446 377 l 1,10,11
 448 446 448 446 467.5 498 c 128,-1,12
 487 550 487 550 518 590 c 128,-1,13
 549 630 549 630 588 661.5 c 128,-1,14
 627 693 627 693 667 721.5 c 128,-1,15
 707 750 707 750 745.5 778.5 c 128,-1,16
 784 807 784 807 814 842 c 128,-1,17
 844 877 844 877 862.5 921 c 128,-1,18
 881 965 881 965 881 1024 c 256,19,20
 881 1083 881 1083 860 1129 c 128,-1,21
 839 1175 839 1175 800.5 1206.5 c 128,-1,22
 762 1238 762 1238 707.5 1254 c 128,-1,23
 653 1270 653 1270 586 1270 c 0,24,25
 446 1270 446 1270 364 1200 c 128,-1,26
 282 1130 282 1130 268 1008 c 1,27,-1
 84 1020 l 1,28,29
 95 1104 95 1104 128.5 1178.5 c 128,-1,30
 162 1253 162 1253 222.5 1309 c 128,-1,31
 283 1365 283 1365 372.5 1397.5 c 128,-1,32
 462 1430 462 1430 584 1430 c 0,33,34
 698 1430 698 1430 787 1402 c 128,-1,35
 876 1374 876 1374 937.5 1322.5 c 128,-1,36
 999 1271 999 1271 1031 1197 c 128,-1,37
 1063 1123 1063 1123 1063 1032 c 0,0,1
438 0 m 1,38,-1
 438 201 l 1,39,-1
 633 201 l 1,40,-1
 633 0 l 1,41,-1
 438 0 l 1,38,-1
EndSplineSet
EndChar

StartChar: at
Encoding: 64 64 35
Width: 2079
GlyphClass: 2
Flags: W
LayerCount: 2
Fore
SplineSet
1902 755 m 0,0,1
 1902 611 1902 611 1868.5 491.5 c 128,-1,2
 1835 372 1835 372 1776 286 c 128,-1,3
 1717 200 1717 200 1634.5 152 c 128,-1,4
 1552 104 1552 104 1455 104 c 0,5,6
 1399 104 1399 104 1359.5 117.5 c 128,-1,7
 1320 131 1320 131 1295 154.5 c 128,-1,8
 1270 178 1270 178 1259 210 c 128,-1,9
 1248 242 1248 242 1248 280 c 0,10,11
 1248 295 1248 295 1249 316.5 c 128,-1,12
 1250 338 1250 338 1251 350 c 1,13,-1
 1245 350 l 1,14,15
 1221 305 1221 305 1186.5 260.5 c 128,-1,16
 1152 216 1152 216 1105.5 181.5 c 128,-1,17
 1059 147 1059 147 1000.5 125.5 c 128,-1,18
 942 104 942 104 871 104 c 0,19,20
 787 104 787 104 724.5 133 c 128,-1,21
 662 162 662 162 621.5 213.5 c 128,-1,22
 581 265 581 265 561 335.5 c 128,-1,23
 541 406 541 406 541 489 c 0,24,25
 541 609 541 609 576.5 719.5 c 128,-1,26
 612 830 612 830 678 914.5 c 128,-1,27
 744 999 744 999 836.5 1050 c 128,-1,28
 929 1101 929 1101 1043 1101 c 0,29,30
 1103 1101 1103 1101 1151 1087.5 c 128,-1,31
 1199 1074 1199 1074 1235.5 1050 c 128,-1,32
 1272 1026 1272 1026 1299 992.5 c 128,-1,33
 1326 959 1326 959 1344 919 c 1,34,-1
 1350 919 l 1,35,-1
 1389 1079 l 1,36,-1
 1545 1079 l 1,37,-1
 1429 573 l 2,38,39
 1410 489 1410 489 1401 429 c 128,-1,40
 1392 369 1392 369 1392 320 c 0,41,42
 1392 272 1392 272 1413.5 249 c 128,-1,43
 1435 226 1435 226 1473 226 c 0,44,45
 1535 226 1535 226 1588.5 266.5 c 128,-1,46
 1642 307 1642 307 1681.5 378 c 128,-1,47
 1721 449 1721 449 1743.5 545 c 128,-1,48
 1766 641 1766 641 1766 753 c 0,49,50
 1766 882 1766 882 1724.5 993 c 128,-1,51
 1683 1104 1683 1104 1602.5 1185 c 128,-1,52
 1522 1266 1522 1266 1403 1312 c 128,-1,53
 1284 1358 1284 1358 1128 1358 c 0,54,55
 994 1358 994 1358 880.5 1326 c 128,-1,56
 767 1294 767 1294 675 1236 c 128,-1,57
 583 1178 583 1178 513.5 1097.5 c 128,-1,58
 444 1017 444 1017 397 921 c 128,-1,59
 350 825 350 825 326 715.5 c 128,-1,60
 302 606 302 606 302 491 c 0,61,62
 302 350 302 350 345 231 c 128,-1,63
 388 112 388 112 470.5 26.5 c 128,-1,64
 553 -59 553 -59 674.5 -107 c 128,-1,65
 796 -155 796 -155 954 -155 c 0,66,67
 1059 -155 1059 -155 1150 -138.5 c 128,-1,68
 1241 -122 1241 -122 1317 -98 c 128,-1,69
 1393 -74 1393 -74 1453 -45.5 c 128,-1,70
 1513 -17 1513 -17 1557 7 c 1,71,-1
 1612 -105 l 1,72,73
 1562 -135 1562 -135 1494.5 -166.5 c 128,-1,74
 1427 -198 1427 -198 1344 -224 c 128,-1,75
 1261 -250 1261 -250 1163 -266.5 c 128,-1,76
 1065 -283 1065 -283 954 -283 c 0,77,78
 764 -283 764 -283 616.5 -225.5 c 128,-1,79
 469 -168 469 -168 367.5 -65 c 128,-1,80
 266 38 266 38 213.5 180 c 128,-1,81
 161 322 161 322 161 491 c 0,82,83
 161 630 161 630 192.5 758 c 128,-1,84
 224 886 224 886 283 996 c 128,-1,85
 342 1106 342 1106 427 1196 c 128,-1,86
 512 1286 512 1286 619.5 1350 c 128,-1,87
 727 1414 727 1414 854.5 1449 c 128,-1,88
 982 1484 982 1484 1126 1484 c 0,89,90
 1327 1484 1327 1484 1473 1425 c 128,-1,91
 1619 1366 1619 1366 1714.5 1266 c 128,-1,92
 1810 1166 1810 1166 1856 1034 c 128,-1,93
 1902 902 1902 902 1902 755 c 0,0,1
1296 747 m 0,94,95
 1296 797 1296 797 1279 839 c 128,-1,96
 1262 881 1262 881 1230.5 911 c 128,-1,97
 1199 941 1199 941 1154.5 957.5 c 128,-1,98
 1110 974 1110 974 1054 974 c 0,99,100
 968 974 968 974 903 931.5 c 128,-1,101
 838 889 838 889 794.5 820 c 128,-1,102
 751 751 751 751 728.5 664.5 c 128,-1,103
 706 578 706 578 706 491 c 0,104,105
 706 371 706 371 753.5 303 c 128,-1,106
 801 235 801 235 900 235 c 0,107,108
 969 235 969 235 1029 266 c 128,-1,109
 1089 297 1089 297 1137 348 c 128,-1,110
 1185 399 1185 399 1220 465 c 128,-1,111
 1255 531 1255 531 1273 602 c 0,112,113
 1282 638 1282 638 1289 678 c 128,-1,114
 1296 718 1296 718 1296 747 c 0,94,95
EndSplineSet
EndChar

StartChar: A
Encoding: 65 65 36
Width: 1366
GlyphClass: 2
Flags: W
LayerCount: 2
Fore
SplineSet
1167 0 m 1,0,-1
 1006 412 l 1,1,-1
 364 412 l 1,2,-1
 202 0 l 1,3,-1
 4 0 l 1,4,-1
 579 1409 l 1,5,-1
 796 1409 l 1,6,-1
 1362 0 l 1,7,-1
 1167 0 l 1,0,-1
768 1026 m 2,8,9
 752 1066 752 1066 737.5 1107 c 128,-1,10
 723 1148 723 1148 712 1181.5 c 128,-1,11
 701 1215 701 1215 693.5 1237.5 c 128,-1,12
 686 1260 686 1260 685 1265 c 1,13,14
 683 1260 683 1260 676 1237 c 128,-1,15
 669 1214 669 1214 657.5 1180 c 128,-1,16
 646 1146 646 1146 631.5 1105 c 128,-1,17
 617 1064 617 1064 602 1024 c 2,18,-1
 422 561 l 1,19,-1
 949 561 l 1,20,-1
 768 1026 l 2,8,9
EndSplineSet
EndChar

StartChar: B
Encoding: 66 66 37
Width: 1366
GlyphClass: 2
Flags: W
LayerCount: 2
Fore
SplineSet
1258 397 m 0,0,1
 1258 290 1258 290 1216 214.5 c 128,-1,2
 1174 139 1174 139 1103 91.5 c 128,-1,3
 1032 44 1032 44 938 22 c 128,-1,4
 844 0 844 0 740 0 c 2,5,-1
 168 0 l 1,6,-1
 168 1409 l 1,7,-1
 680 1409 l 2,8,9
 797 1409 797 1409 889 1389.5 c 128,-1,10
 981 1370 981 1370 1045 1328 c 128,-1,11
 1109 1286 1109 1286 1142.5 1221.5 c 128,-1,12
 1176 1157 1176 1157 1176 1067 c 0,13,14
 1176 1008 1176 1008 1159.5 956 c 128,-1,15
 1143 904 1143 904 1109.5 861.5 c 128,-1,16
 1076 819 1076 819 1025.5 788.5 c 128,-1,17
 975 758 975 758 908 743 c 1,18,19
 993 733 993 733 1058.5 704 c 128,-1,20
 1124 675 1124 675 1168 630 c 128,-1,21
 1212 585 1212 585 1235 525.5 c 128,-1,22
 1258 466 1258 466 1258 397 c 0,0,1
984 1044 m 0,23,24
 984 1158 984 1158 906 1207 c 128,-1,25
 828 1256 828 1256 680 1256 c 2,26,-1
 359 1256 l 1,27,-1
 359 810 l 1,28,-1
 680 810 l 2,29,30
 764 810 764 810 822 826.5 c 128,-1,31
 880 843 880 843 916 873.5 c 128,-1,32
 952 904 952 904 968 947 c 128,-1,33
 984 990 984 990 984 1044 c 0,23,24
1065 412 m 0,34,35
 1065 479 1065 479 1040.5 526 c 128,-1,36
 1016 573 1016 573 970 603 c 128,-1,37
 924 633 924 633 859.5 647 c 128,-1,38
 795 661 795 661 715 661 c 2,39,-1
 359 661 l 1,40,-1
 359 153 l 1,41,-1
 730 153 l 2,42,43
 803 153 803 153 864.5 165 c 128,-1,44
 926 177 926 177 970.5 207 c 128,-1,45
 1015 237 1015 237 1040 287 c 128,-1,46
 1065 337 1065 337 1065 412 c 0,34,35
EndSplineSet
EndChar

StartChar: C
Encoding: 67 67 38
Width: 1479
GlyphClass: 2
Flags: W
LayerCount: 2
Fore
SplineSet
792 1274 m 0,0,1
 672 1274 672 1274 579.5 1234 c 128,-1,2
 487 1194 487 1194 424.5 1120 c 128,-1,3
 362 1046 362 1046 330 942 c 128,-1,4
 298 838 298 838 298 711 c 256,5,6
 298 584 298 584 332.5 478.5 c 128,-1,7
 367 373 367 373 431.5 297 c 128,-1,8
 496 221 496 221 589.5 179 c 128,-1,9
 683 137 683 137 800 137 c 0,10,11
 882 137 882 137 949.5 158.5 c 128,-1,12
 1017 180 1017 180 1071.5 219 c 128,-1,13
 1126 258 1126 258 1169 311.5 c 128,-1,14
 1212 365 1212 365 1245 430 c 1,15,-1
 1401 352 l 1,16,17
 1363 273 1363 273 1307 205 c 128,-1,18
 1251 137 1251 137 1175.5 87 c 128,-1,19
 1100 37 1100 37 1004.5 8.5 c 128,-1,20
 909 -20 909 -20 791 -20 c 0,21,22
 620 -20 620 -20 491.5 34.5 c 128,-1,23
 363 89 363 89 276.5 186.5 c 128,-1,24
 190 284 190 284 147 418 c 128,-1,25
 104 552 104 552 104 711 c 0,26,27
 104 876 104 876 149.5 1009 c 128,-1,28
 195 1142 195 1142 282.5 1235.5 c 128,-1,29
 370 1329 370 1329 498 1379.5 c 128,-1,30
 626 1430 626 1430 790 1430 c 0,31,32
 1015 1430 1015 1430 1166 1342 c 128,-1,33
 1317 1254 1317 1254 1388 1081 c 1,34,-1
 1207 1021 l 1,35,36
 1187 1071 1187 1071 1153 1116.5 c 128,-1,37
 1119 1162 1119 1162 1068 1197 c 128,-1,38
 1017 1232 1017 1232 948.5 1253 c 128,-1,39
 880 1274 880 1274 792 1274 c 0,0,1
EndSplineSet
EndChar

StartChar: D
Encoding: 68 68 39
Width: 1479
GlyphClass: 2
Flags: W
LayerCount: 2
Fore
SplineSet
1381 719 m 0,0,1
 1381 543 1381 543 1328 408.5 c 128,-1,2
 1275 274 1275 274 1183 183.5 c 128,-1,3
 1091 93 1091 93 965.5 46.5 c 128,-1,4
 840 0 840 0 695 0 c 2,5,-1
 168 0 l 1,6,-1
 168 1409 l 1,7,-1
 634 1409 l 2,8,9
 797 1409 797 1409 934.5 1368.5 c 128,-1,10
 1072 1328 1072 1328 1171 1243.5 c 128,-1,11
 1270 1159 1270 1159 1325.5 1029 c 128,-1,12
 1381 899 1381 899 1381 719 c 0,0,1
1189 719 m 0,13,14
 1189 862 1189 862 1148 963.5 c 128,-1,15
 1107 1065 1107 1065 1033 1130 c 128,-1,16
 959 1195 959 1195 856 1225.5 c 128,-1,17
 753 1256 753 1256 630 1256 c 2,18,-1
 359 1256 l 1,19,-1
 359 153 l 1,20,-1
 673 153 l 2,21,22
 784 153 784 153 878.5 189 c 128,-1,23
 973 225 973 225 1042 296 c 128,-1,24
 1111 367 1111 367 1150 473 c 128,-1,25
 1189 579 1189 579 1189 719 c 0,13,14
EndSplineSet
EndChar

StartChar: E
Encoding: 69 69 40
Width: 1366
GlyphClass: 2
Flags: W
LayerCount: 2
Fore
SplineSet
168 0 m 1,0,-1
 168 1409 l 1,1,-1
 1237 1409 l 1,2,-1
 1237 1253 l 1,3,-1
 359 1253 l 1,4,-1
 359 801 l 1,5,-1
 1177 801 l 1,6,-1
 1177 647 l 1,7,-1
 359 647 l 1,8,-1
 359 156 l 1,9,-1
 1278 156 l 1,10,-1
 1278 0 l 1,11,-1
 168 0 l 1,0,-1
EndSplineSet
EndChar

StartChar: F
Encoding: 70 70 41
Width: 1251
GlyphClass: 2
Flags: W
LayerCount: 2
Fore
SplineSet
359 1253 m 1,0,-1
 359 729 l 1,1,-1
 1145 729 l 1,2,-1
 1145 571 l 1,3,-1
 359 571 l 1,4,-1
 359 0 l 1,5,-1
 168 0 l 1,6,-1
 168 1409 l 1,7,-1
 1169 1409 l 1,8,-1
 1169 1253 l 1,9,-1
 359 1253 l 1,0,-1
EndSplineSet
EndChar

StartChar: G
Encoding: 71 71 42
Width: 1593
GlyphClass: 2
Flags: W
LayerCount: 2
Fore
SplineSet
103 711 m 0,0,1
 103 876 103 876 147.5 1009 c 128,-1,2
 192 1142 192 1142 280.5 1235.5 c 128,-1,3
 369 1329 369 1329 500 1379.5 c 128,-1,4
 631 1430 631 1430 804 1430 c 0,5,6
 934 1430 934 1430 1032 1407 c 128,-1,7
 1130 1384 1130 1384 1202 1341 c 128,-1,8
 1274 1298 1274 1298 1324 1236.5 c 128,-1,9
 1374 1175 1374 1175 1409 1098 c 1,10,-1
 1227 1044 l 1,11,12
 1201 1096 1201 1096 1164.5 1138.5 c 128,-1,13
 1128 1181 1128 1181 1076 1211 c 128,-1,14
 1024 1241 1024 1241 955.5 1257.5 c 128,-1,15
 887 1274 887 1274 799 1274 c 0,16,17
 671 1274 671 1274 576.5 1234 c 128,-1,18
 482 1194 482 1194 420 1120 c 128,-1,19
 358 1046 358 1046 327.5 942 c 128,-1,20
 297 838 297 838 297 711 c 256,21,22
 297 584 297 584 330 478.5 c 128,-1,23
 363 373 363 373 428 296.5 c 128,-1,24
 493 220 493 220 589.5 177.5 c 128,-1,25
 686 135 686 135 813 135 c 0,26,27
 896 135 896 135 966 149 c 128,-1,28
 1036 163 1036 163 1092.5 185.5 c 128,-1,29
 1149 208 1149 208 1192 235.5 c 128,-1,30
 1235 263 1235 263 1264 291 c 1,31,-1
 1264 545 l 1,32,-1
 843 545 l 1,33,-1
 843 705 l 1,34,-1
 1440 705 l 1,35,-1
 1440 219 l 1,36,37
 1393 171 1393 171 1329.5 127.5 c 128,-1,38
 1266 84 1266 84 1187 51 c 128,-1,39
 1108 18 1108 18 1014 -1 c 128,-1,40
 920 -20 920 -20 813 -20 c 0,41,42
 635 -20 635 -20 502 34.5 c 128,-1,43
 369 89 369 89 280.5 186.5 c 128,-1,44
 192 284 192 284 147.5 418 c 128,-1,45
 103 552 103 552 103 711 c 0,0,1
EndSplineSet
EndChar

StartChar: H
Encoding: 72 72 43
Width: 1479
GlyphClass: 2
Flags: W
LayerCount: 2
Fore
SplineSet
1121 0 m 1,0,-1
 1121 653 l 1,1,-1
 359 653 l 1,2,-1
 359 0 l 1,3,-1
 168 0 l 1,4,-1
 168 1409 l 1,5,-1
 359 1409 l 1,6,-1
 359 813 l 1,7,-1
 1121 813 l 1,8,-1
 1121 1409 l 1,9,-1
 1312 1409 l 1,10,-1
 1312 0 l 1,11,-1
 1121 0 l 1,0,-1
EndSplineSet
EndChar

StartChar: I
Encoding: 73 73 44
Width: 569
GlyphClass: 2
Flags: W
LayerCount: 2
Fore
SplineSet
189 0 m 1,0,-1
 189 1409 l 1,1,-1
 380 1409 l 1,2,-1
 380 0 l 1,3,-1
 189 0 l 1,0,-1
EndSplineSet
EndChar

StartChar: J
Encoding: 74 74 45
Width: 1024
GlyphClass: 2
Flags: W
LayerCount: 2
Fore
SplineSet
457 -20 m 0,0,1
 286 -20 286 -20 176.5 69 c 128,-1,2
 67 158 67 158 32 350 c 1,3,-1
 219 381 l 1,4,5
 229 316 229 316 252 269.5 c 128,-1,6
 275 223 275 223 307 193 c 128,-1,7
 339 163 339 163 378 149 c 128,-1,8
 417 135 417 135 458 135 c 0,9,10
 562 135 562 135 622 206.5 c 128,-1,11
 682 278 682 278 682 416 c 2,12,-1
 682 1253 l 1,13,-1
 411 1253 l 1,14,-1
 411 1409 l 1,15,-1
 872 1409 l 1,16,-1
 872 420 l 2,17,18
 872 319 872 319 844 238 c 128,-1,19
 816 157 816 157 762.5 99.5 c 128,-1,20
 709 42 709 42 632 11 c 128,-1,21
 555 -20 555 -20 457 -20 c 0,0,1
EndSplineSet
EndChar

StartChar: K
Encoding: 75 75 46
Width: 1366
GlyphClass: 2
Flags: W
LayerCount: 2
Fore
SplineSet
1106 0 m 1,0,-1
 543 680 l 1,1,-1
 359 540 l 1,2,-1
 359 0 l 1,3,-1
 168 0 l 1,4,-1
 168 1409 l 1,5,-1
 359 1409 l 1,6,-1
 359 703 l 1,7,-1
 1038 1409 l 1,8,-1
 1263 1409 l 1,9,-1
 663 797 l 1,10,-1
 1343 0 l 1,11,-1
 1106 0 l 1,0,-1
EndSplineSet
EndChar

StartChar: L
Encoding: 76 76 47
Width: 1139
GlyphClass: 2
Flags: W
LayerCount: 2
Fore
SplineSet
168 0 m 1,0,-1
 168 1409 l 1,1,-1
 359 1409 l 1,2,-1
 359 156 l 1,3,-1
 1071 156 l 1,4,-1
 1071 0 l 1,5,-1
 168 0 l 1,0,-1
EndSplineSet
EndChar

StartChar: M
Encoding: 77 77 48
Width: 1706
GlyphClass: 2
Flags: W
LayerCount: 2
Fore
SplineSet
1366 0 m 1,0,-1
 1366 940 l 2,1,2
 1366 991 1366 991 1367 1044 c 128,-1,3
 1368 1097 1368 1097 1370 1141 c 0,4,5
 1372 1192 1372 1192 1375 1240 c 1,6,7
 1361 1189 1361 1189 1346 1139 c 0,8,9
 1333 1096 1333 1096 1317.5 1047.5 c 128,-1,10
 1302 999 1302 999 1287 960 c 2,11,-1
 923 0 l 1,12,-1
 789 0 l 1,13,-1
 420 960 l 2,14,15
 414 975 414 975 407.5 995 c 128,-1,16
 401 1015 401 1015 393.5 1037.5 c 128,-1,17
 386 1060 386 1060 378.5 1083.5 c 128,-1,18
 371 1107 371 1107 364 1130 c 0,19,20
 347 1183 347 1183 331 1240 c 1,21,22
 332 1184 332 1184 334 1129 c 0,23,24
 336 1082 336 1082 337 1030.5 c 128,-1,25
 338 979 338 979 338 940 c 2,26,-1
 338 0 l 1,27,-1
 168 0 l 1,28,-1
 168 1409 l 1,29,-1
 419 1409 l 1,30,-1
 794 432 l 2,31,32
 801 412 801 412 811 380.5 c 128,-1,33
 821 349 821 349 830 316 c 128,-1,34
 839 283 839 283 846.5 253.5 c 128,-1,35
 854 224 854 224 857 208 c 1,36,37
 860 224 860 224 868 254 c 128,-1,38
 876 284 876 284 886.5 317 c 128,-1,39
 897 350 897 350 907 381 c 128,-1,40
 917 412 917 412 925 432 c 2,41,-1
 1293 1409 l 1,42,-1
 1538 1409 l 1,43,-1
 1538 0 l 1,44,-1
 1366 0 l 1,0,-1
EndSplineSet
EndChar

StartChar: N
Encoding: 78 78 49
Width: 1479
GlyphClass: 2
Flags: W
LayerCount: 2
Fore
SplineSet
1082 0 m 1,0,-1
 328 1200 l 1,1,2
 330 1151 330 1151 333 1103 c 0,3,4
 335 1062 335 1062 336.5 1016.5 c 128,-1,5
 338 971 338 971 338 936 c 2,6,-1
 338 0 l 1,7,-1
 168 0 l 1,8,-1
 168 1409 l 1,9,-1
 390 1409 l 1,10,-1
 1152 201 l 1,11,12
 1149 250 1149 250 1146 299 c 0,13,14
 1144 341 1144 341 1142 390.5 c 128,-1,15
 1140 440 1140 440 1140 485 c 2,16,-1
 1140 1409 l 1,17,-1
 1312 1409 l 1,18,-1
 1312 0 l 1,19,-1
 1082 0 l 1,0,-1
EndSplineSet
EndChar

StartChar: O
Encoding: 79 79 50
Width: 1593
GlyphClass: 2
Flags: W
LayerCount: 2
Fore
SplineSet
1495 711 m 0,0,1
 1495 546 1495 546 1447.5 411 c 128,-1,2
 1400 276 1400 276 1310 180 c 128,-1,3
 1220 84 1220 84 1090 32 c 128,-1,4
 960 -20 960 -20 795 -20 c 0,5,6
 621 -20 621 -20 490 34.5 c 128,-1,7
 359 89 359 89 272 186.5 c 128,-1,8
 185 284 185 284 141 418 c 128,-1,9
 97 552 97 552 97 711 c 0,10,11
 97 876 97 876 143 1009 c 128,-1,12
 189 1142 189 1142 278 1235.5 c 128,-1,13
 367 1329 367 1329 497.5 1379.5 c 128,-1,14
 628 1430 628 1430 797 1430 c 0,15,16
 965 1430 965 1430 1095.5 1379 c 128,-1,17
 1226 1328 1226 1328 1314.5 1234 c 128,-1,18
 1403 1140 1403 1140 1449 1007 c 128,-1,19
 1495 874 1495 874 1495 711 c 0,0,1
1300 711 m 0,20,21
 1300 838 1300 838 1267.5 942 c 128,-1,22
 1235 1046 1235 1046 1171.5 1120 c 128,-1,23
 1108 1194 1108 1194 1014 1234 c 128,-1,24
 920 1274 920 1274 797 1274 c 0,25,26
 671 1274 671 1274 576 1234 c 128,-1,27
 481 1194 481 1194 417.5 1120 c 128,-1,28
 354 1046 354 1046 322.5 942 c 128,-1,29
 291 838 291 838 291 711 c 256,30,31
 291 584 291 584 323.5 478.5 c 128,-1,32
 356 373 356 373 419.5 296.5 c 128,-1,33
 483 220 483 220 577.5 177.5 c 128,-1,34
 672 135 672 135 795 135 c 0,35,36
 927 135 927 135 1022.5 178 c 128,-1,37
 1118 221 1118 221 1179.5 297.5 c 128,-1,38
 1241 374 1241 374 1270.5 480 c 128,-1,39
 1300 586 1300 586 1300 711 c 0,20,21
EndSplineSet
EndChar

StartChar: P
Encoding: 80 80 51
Width: 1366
GlyphClass: 2
Flags: W
LayerCount: 2
Fore
SplineSet
1258 985 m 0,0,1
 1258 893 1258 893 1227.5 813.5 c 128,-1,2
 1197 734 1197 734 1136.5 675.5 c 128,-1,3
 1076 617 1076 617 985 583 c 128,-1,4
 894 549 894 549 773 549 c 2,5,-1
 359 549 l 1,6,-1
 359 0 l 1,7,-1
 168 0 l 1,8,-1
 168 1409 l 1,9,-1
 761 1409 l 2,10,11
 886 1409 886 1409 979 1378.5 c 128,-1,12
 1072 1348 1072 1348 1134 1292.5 c 128,-1,13
 1196 1237 1196 1237 1227 1158.5 c 128,-1,14
 1258 1080 1258 1080 1258 985 c 0,0,1
1066 983 m 0,15,16
 1066 1117 1066 1117 984 1186.5 c 128,-1,17
 902 1256 902 1256 738 1256 c 2,18,-1
 359 1256 l 1,19,-1
 359 700 l 1,20,-1
 746 700 l 2,21,22
 911 700 911 700 988.5 773 c 128,-1,23
 1066 846 1066 846 1066 983 c 0,15,16
EndSplineSet
EndChar

StartChar: Q
Encoding: 81 81 52
Width: 1593
GlyphClass: 2
Flags: W
LayerCount: 2
Fore
SplineSet
1495 711 m 0,0,1
 1495 562 1495 562 1456.5 438.5 c 128,-1,2
 1418 315 1418 315 1345.5 222 c 128,-1,3
 1273 129 1273 129 1167.5 70.5 c 128,-1,4
 1062 12 1062 12 928 -6 c 1,5,6
 949 -70 949 -70 975.5 -115 c 128,-1,7
 1002 -160 1002 -160 1036 -188.5 c 128,-1,8
 1070 -217 1070 -217 1111.5 -230.5 c 128,-1,9
 1153 -244 1153 -244 1204 -244 c 0,10,11
 1232 -244 1232 -244 1264 -240 c 128,-1,12
 1296 -236 1296 -236 1319 -231 c 1,13,-1
 1319 -365 l 1,14,15
 1281 -374 1281 -374 1235.5 -380.5 c 128,-1,16
 1190 -387 1190 -387 1141 -387 c 0,17,18
 1055 -387 1055 -387 991 -361.5 c 128,-1,19
 927 -336 927 -336 878.5 -288.5 c 128,-1,20
 830 -241 830 -241 795 -172 c 128,-1,21
 760 -103 760 -103 733 -16 c 1,22,23
 575 -8 575 -8 455.5 49.5 c 128,-1,24
 336 107 336 107 256.5 203.5 c 128,-1,25
 177 300 177 300 137 429.5 c 128,-1,26
 97 559 97 559 97 711 c 0,27,28
 97 876 97 876 143 1009 c 128,-1,29
 189 1142 189 1142 278 1235.5 c 128,-1,30
 367 1329 367 1329 497.5 1379.5 c 128,-1,31
 628 1430 628 1430 797 1430 c 0,32,33
 965 1430 965 1430 1095.5 1379 c 128,-1,34
 1226 1328 1226 1328 1314.5 1234 c 128,-1,35
 1403 1140 1403 1140 1449 1007 c 128,-1,36
 1495 874 1495 874 1495 711 c 0,0,1
1300 711 m 0,37,38
 1300 838 1300 838 1267.5 942 c 128,-1,39
 1235 1046 1235 1046 1171.5 1120 c 128,-1,40
 1108 1194 1108 1194 1014 1234 c 128,-1,41
 920 1274 920 1274 797 1274 c 0,42,43
 671 1274 671 1274 576 1234 c 128,-1,44
 481 1194 481 1194 417.5 1120 c 128,-1,45
 354 1046 354 1046 322.5 942 c 128,-1,46
 291 838 291 838 291 711 c 256,47,48
 291 584 291 584 323.5 478.5 c 128,-1,49
 356 373 356 373 419.5 296.5 c 128,-1,50
 483 220 483 220 577.5 177.5 c 128,-1,51
 672 135 672 135 795 135 c 0,52,53
 927 135 927 135 1022.5 178 c 128,-1,54
 1118 221 1118 221 1179.5 297.5 c 128,-1,55
 1241 374 1241 374 1270.5 480 c 128,-1,56
 1300 586 1300 586 1300 711 c 0,37,38
EndSplineSet
EndChar

StartChar: R
Encoding: 82 82 53
Width: 1479
GlyphClass: 2
Flags: W
LayerCount: 2
Fore
SplineSet
1164 0 m 1,0,-1
 798 585 l 1,1,-1
 359 585 l 1,2,-1
 359 0 l 1,3,-1
 168 0 l 1,4,-1
 168 1409 l 1,5,-1
 831 1409 l 2,6,7
 951 1409 951 1409 1043.5 1381.5 c 128,-1,8
 1136 1354 1136 1354 1199 1302 c 128,-1,9
 1262 1250 1262 1250 1295 1175 c 128,-1,10
 1328 1100 1328 1100 1328 1006 c 0,11,12
 1328 939 1328 939 1308.5 874 c 128,-1,13
 1289 809 1289 809 1247 755 c 128,-1,14
 1205 701 1205 701 1140 662 c 128,-1,15
 1075 623 1075 623 984 607 c 1,16,-1
 1384 0 l 1,17,-1
 1164 0 l 1,0,-1
1136 1004 m 0,18,19
 1136 1068 1136 1068 1114 1115 c 128,-1,20
 1092 1162 1092 1162 1050 1193.5 c 128,-1,21
 1008 1225 1008 1225 948 1240.5 c 128,-1,22
 888 1256 888 1256 812 1256 c 2,23,-1
 359 1256 l 1,24,-1
 359 736 l 1,25,-1
 820 736 l 2,26,27
 902 736 902 736 962 756.5 c 128,-1,28
 1022 777 1022 777 1060.5 813 c 128,-1,29
 1099 849 1099 849 1117.5 898 c 128,-1,30
 1136 947 1136 947 1136 1004 c 0,18,19
EndSplineSet
EndChar

StartChar: S
Encoding: 83 83 54
Width: 1366
GlyphClass: 2
Flags: W
LayerCount: 2
Fore
SplineSet
1272 389 m 0,0,1
 1272 300 1272 300 1237.5 225 c 128,-1,2
 1203 150 1203 150 1131 95.5 c 128,-1,3
 1059 41 1059 41 949.5 10.5 c 128,-1,4
 840 -20 840 -20 690 -20 c 0,5,6
 427 -20 427 -20 280 72 c 128,-1,7
 133 164 133 164 93 338 c 1,8,-1
 278 375 l 1,9,10
 292 320 292 320 321 275 c 128,-1,11
 350 230 350 230 399.5 197.5 c 128,-1,12
 449 165 449 165 522 147 c 128,-1,13
 595 129 595 129 697 129 c 0,14,15
 782 129 782 129 853 143.5 c 128,-1,16
 924 158 924 158 975 188 c 128,-1,17
 1026 218 1026 218 1054.5 265.5 c 128,-1,18
 1083 313 1083 313 1083 379 c 0,19,20
 1083 448 1083 448 1051.5 491 c 128,-1,21
 1020 534 1020 534 963 562 c 128,-1,22
 906 590 906 590 827 609 c 128,-1,23
 748 628 748 628 652 650 c 0,24,25
 593 663 593 663 533.5 678.5 c 128,-1,26
 474 694 474 694 419.5 715.5 c 128,-1,27
 365 737 365 737 317 766 c 128,-1,28
 269 795 269 795 234 835.5 c 128,-1,29
 199 876 199 876 179 929.5 c 128,-1,30
 159 983 159 983 159 1053 c 0,31,32
 159 1153 159 1153 199.5 1224.5 c 128,-1,33
 240 1296 240 1296 312 1342 c 128,-1,34
 384 1388 384 1388 482 1409 c 128,-1,35
 580 1430 580 1430 694 1430 c 0,36,37
 825 1430 825 1430 918 1409.5 c 128,-1,38
 1011 1389 1011 1389 1075 1348 c 128,-1,39
 1139 1307 1139 1307 1177.5 1246.5 c 128,-1,40
 1216 1186 1216 1186 1239 1106 c 1,41,-1
 1051 1073 l 1,42,43
 1037 1124 1037 1124 1010.5 1164 c 128,-1,44
 984 1204 984 1204 941 1231 c 128,-1,45
 898 1258 898 1258 836.5 1272 c 128,-1,46
 775 1286 775 1286 692 1286 c 0,47,48
 594 1286 594 1286 527.5 1268.5 c 128,-1,49
 461 1251 461 1251 420.5 1221 c 128,-1,50
 380 1191 380 1191 362.5 1150.5 c 128,-1,51
 345 1110 345 1110 345 1063 c 0,52,53
 345 1000 345 1000 376.5 959.5 c 128,-1,54
 408 919 408 919 462 892 c 128,-1,55
 516 865 516 865 587 847 c 128,-1,56
 658 829 658 829 738 811 c 0,57,58
 803 796 803 796 867.5 780.5 c 128,-1,59
 932 765 932 765 991 743.5 c 128,-1,60
 1050 722 1050 722 1101.5 693 c 128,-1,61
 1153 664 1153 664 1191 622 c 128,-1,62
 1229 580 1229 580 1250.5 523 c 128,-1,63
 1272 466 1272 466 1272 389 c 0,0,1
EndSplineSet
EndChar

StartChar: T
Encoding: 84 84 55
Width: 1251
GlyphClass: 2
Flags: W
LayerCount: 2
Fore
SplineSet
720 1253 m 1,0,-1
 720 0 l 1,1,-1
 530 0 l 1,2,-1
 530 1253 l 1,3,-1
 46 1253 l 1,4,-1
 46 1409 l 1,5,-1
 1204 1409 l 1,6,-1
 1204 1253 l 1,7,-1
 720 1253 l 1,0,-1
EndSplineSet
EndChar

StartChar: U
Encoding: 85 85 56
Width: 1479
GlyphClass: 2
Flags: W
LayerCount: 2
Fore
SplineSet
731 -20 m 0,0,1
 615 -20 615 -20 511 11 c 128,-1,2
 407 42 407 42 328.5 107.5 c 128,-1,3
 250 173 250 173 204 273.5 c 128,-1,4
 158 374 158 374 158 512 c 2,5,-1
 158 1409 l 1,6,-1
 349 1409 l 1,7,-1
 349 528 l 2,8,9
 349 421 349 421 377.5 346.5 c 128,-1,10
 406 272 406 272 457 225 c 128,-1,11
 508 178 508 178 577.5 156.5 c 128,-1,12
 647 135 647 135 730 135 c 0,13,14
 812 135 812 135 885 157 c 128,-1,15
 958 179 958 179 1013 227 c 128,-1,16
 1068 275 1068 275 1099.5 352.5 c 128,-1,17
 1131 430 1131 430 1131 541 c 2,18,-1
 1131 1409 l 1,19,-1
 1321 1409 l 1,20,-1
 1321 530 l 2,21,22
 1321 389 1321 389 1274.5 285.5 c 128,-1,23
 1228 182 1228 182 1148 114 c 128,-1,24
 1068 46 1068 46 960.5 13 c 128,-1,25
 853 -20 853 -20 731 -20 c 0,0,1
EndSplineSet
EndChar

StartChar: V
Encoding: 86 86 57
Width: 1366
GlyphClass: 2
Flags: W
LayerCount: 2
Fore
SplineSet
782 0 m 1,0,-1
 584 0 l 1,1,-1
 9 1409 l 1,2,-1
 210 1409 l 1,3,-1
 600 417 l 1,4,5
 615 372 615 372 630 327.5 c 128,-1,6
 645 283 645 283 657 248 c 0,7,8
 671 207 671 207 684 168 c 1,9,10
 696 205 696 205 710 246 c 0,11,12
 722 281 722 281 736.5 325 c 128,-1,13
 751 369 751 369 768 417 c 1,14,-1
 1156 1409 l 1,15,-1
 1357 1409 l 1,16,-1
 782 0 l 1,0,-1
EndSplineSet
EndChar

StartChar: W
Encoding: 87 87 58
Width: 1933
GlyphClass: 2
Flags: W
LayerCount: 2
Fore
SplineSet
1511 0 m 1,0,-1
 1283 0 l 1,1,-1
 1039 895 l 2,2,3
 1028 933 1028 933 1015.5 985 c 128,-1,4
 1003 1037 1003 1037 993 1084 c 0,5,6
 981 1139 981 1139 969 1196 c 1,7,8
 956 1138 956 1138 944 1083 c 0,9,10
 933 1035 933 1035 921 984 c 128,-1,11
 909 933 909 933 898 895 c 2,12,-1
 652 0 l 1,13,-1
 424 0 l 1,14,-1
 9 1409 l 1,15,-1
 208 1409 l 1,16,-1
 461 514 l 2,17,18
 478 451 478 451 493.5 389 c 128,-1,19
 509 327 509 327 520 278 c 0,20,21
 533 220 533 220 544 168 c 1,22,23
 559 237 559 237 575 304 c 0,24,25
 582 332 582 332 589 363 c 128,-1,26
 596 394 596 394 603.5 424 c 128,-1,27
 611 454 611 454 618.5 481.5 c 128,-1,28
 626 509 626 509 632 532 c 2,29,-1
 877 1409 l 1,30,-1
 1060 1409 l 1,31,-1
 1305 532 l 2,32,33
 1311 509 1311 509 1318.5 481.5 c 128,-1,34
 1326 454 1326 454 1333.5 424.5 c 128,-1,35
 1341 395 1341 395 1348 364 c 128,-1,36
 1355 333 1355 333 1362 305 c 0,37,38
 1378 238 1378 238 1393 168 c 0,39,40
 1394 168 1394 168 1402 202.5 c 128,-1,41
 1410 237 1410 237 1422 289 c 128,-1,42
 1434 341 1434 341 1448.5 401.5 c 128,-1,43
 1463 462 1463 462 1478 514 c 2,44,-1
 1727 1409 l 1,45,-1
 1926 1409 l 1,46,-1
 1511 0 l 1,0,-1
EndSplineSet
EndChar

StartChar: X
Encoding: 88 88 59
Width: 1366
GlyphClass: 2
Flags: W
LayerCount: 2
Fore
SplineSet
1112 0 m 1,0,-1
 689 616 l 1,1,-1
 257 0 l 1,2,-1
 46 0 l 1,3,-1
 582 732 l 1,4,-1
 87 1409 l 1,5,-1
 298 1409 l 1,6,-1
 690 856 l 1,7,-1
 1071 1409 l 1,8,-1
 1282 1409 l 1,9,-1
 800 739 l 1,10,-1
 1323 0 l 1,11,-1
 1112 0 l 1,0,-1
EndSplineSet
EndChar

StartChar: Y
Encoding: 89 89 60
Width: 1366
GlyphClass: 2
Flags: W
LayerCount: 2
Fore
SplineSet
777 584 m 1,0,-1
 777 0 l 1,1,-1
 587 0 l 1,2,-1
 587 584 l 1,3,-1
 45 1409 l 1,4,-1
 255 1409 l 1,5,-1
 684 738 l 1,6,-1
 1111 1409 l 1,7,-1
 1321 1409 l 1,8,-1
 777 584 l 1,0,-1
EndSplineSet
EndChar

StartChar: Z
Encoding: 90 90 61
Width: 1251
GlyphClass: 2
Flags: W
LayerCount: 2
Fore
SplineSet
1187 0 m 1,0,-1
 65 0 l 1,1,-1
 65 143 l 1,2,-1
 923 1253 l 1,3,-1
 138 1253 l 1,4,-1
 138 1409 l 1,5,-1
 1140 1409 l 1,6,-1
 1140 1270 l 1,7,-1
 282 156 l 1,8,-1
 1187 156 l 1,9,-1
 1187 0 l 1,0,-1
EndSplineSet
EndChar

StartChar: bracketleft
Encoding: 91 91 62
Width: 569
GlyphClass: 2
Flags: W
LayerCount: 2
Fore
SplineSet
146 -425 m 1,0,-1
 146 1484 l 1,1,-1
 553 1484 l 1,2,-1
 553 1355 l 1,3,-1
 320 1355 l 1,4,-1
 320 -296 l 1,5,-1
 553 -296 l 1,6,-1
 553 -425 l 1,7,-1
 146 -425 l 1,0,-1
EndSplineSet
EndChar

StartChar: backslash
Encoding: 92 92 63
Width: 569
GlyphClass: 2
Flags: W
LayerCount: 2
Fore
SplineSet
407 -20 m 1,0,-1
 0 1484 l 1,1,-1
 158 1484 l 1,2,-1
 569 -20 l 1,3,-1
 407 -20 l 1,0,-1
EndSplineSet
EndChar

StartChar: bracketright
Encoding: 93 93 64
Width: 569
GlyphClass: 2
Flags: W
LayerCount: 2
Fore
SplineSet
16 -425 m 1,0,-1
 16 -296 l 1,1,-1
 249 -296 l 1,2,-1
 249 1355 l 1,3,-1
 16 1355 l 1,4,-1
 16 1484 l 1,5,-1
 423 1484 l 1,6,-1
 423 -425 l 1,7,-1
 16 -425 l 1,0,-1
EndSplineSet
EndChar

StartChar: asciicircum
Encoding: 94 94 65
Width: 961
GlyphClass: 2
Flags: W
LayerCount: 2
Fore
SplineSet
787 673 m 1,0,-1
 478 1306 l 1,1,-1
 172 673 l 1,2,-1
 10 673 l 1,3,-1
 378 1409 l 1,4,-1
 581 1409 l 1,5,-1
 951 673 l 1,6,-1
 787 673 l 1,0,-1
EndSplineSet
EndChar

StartChar: underscore
Encoding: 95 95 66
Width: 1139
GlyphClass: 2
Flags: W
LayerCount: 2
Fore
SplineSet
-31 -407 m 1,0,-1
 -31 -277 l 1,1,-1
 1162 -277 l 1,2,-1
 1162 -407 l 1,3,-1
 -31 -407 l 1,0,-1
EndSplineSet
EndChar

StartChar: grave
Encoding: 96 96 67
Width: 682
GlyphClass: 2
Flags: W
LayerCount: 2
Fore
SplineSet
436 1201 m 1,0,-1
 106 1479 l 1,1,-1
 106 1508 l 1,2,-1
 313 1508 l 1,3,-1
 530 1221 l 1,4,-1
 530 1201 l 1,5,-1
 436 1201 l 1,0,-1
EndSplineSet
EndChar

StartChar: a
Encoding: 97 97 68
Width: 1139
GlyphClass: 2
Flags: W
LayerCount: 2
Fore
SplineSet
414 -20 m 0,0,1
 251 -20 251 -20 169 66 c 128,-1,2
 87 152 87 152 87 302 c 0,3,4
 87 409 87 409 127.5 477.5 c 128,-1,5
 168 546 168 546 233.5 585 c 128,-1,6
 299 624 299 624 383 639 c 128,-1,7
 467 654 467 654 554 656 c 2,8,-1
 797 660 l 1,9,-1
 797 719 l 2,10,11
 797 786 797 786 783 833 c 128,-1,12
 769 880 769 880 740 909 c 128,-1,13
 711 938 711 938 667.5 951.5 c 128,-1,14
 624 965 624 965 565 965 c 0,15,16
 513 965 513 965 471 957.5 c 128,-1,17
 429 950 429 950 398 930.5 c 128,-1,18
 367 911 367 911 348 877.5 c 128,-1,19
 329 844 329 844 323 793 c 1,20,-1
 135 810 l 1,21,22
 145 874 145 874 173 927.5 c 128,-1,23
 201 981 201 981 252.5 1020 c 128,-1,24
 304 1059 304 1059 381.5 1080.5 c 128,-1,25
 459 1102 459 1102 569 1102 c 0,26,27
 773 1102 773 1102 876 1008.5 c 128,-1,28
 979 915 979 915 979 738 c 2,29,-1
 979 272 l 2,30,31
 979 192 979 192 1000 151.5 c 128,-1,32
 1021 111 1021 111 1080 111 c 0,33,34
 1095 111 1095 111 1110 113 c 128,-1,35
 1125 115 1125 115 1139 118 c 1,36,-1
 1139 6 l 1,37,38
 1105 -2 1105 -2 1071.5 -6 c 128,-1,39
 1038 -10 1038 -10 1000 -10 c 0,40,41
 949 -10 949 -10 912.5 3.5 c 128,-1,42
 876 17 876 17 853 44.5 c 128,-1,43
 830 72 830 72 818 112.5 c 128,-1,44
 806 153 806 153 803 207 c 1,45,-1
 797 207 l 1,46,47
 768 155 768 155 733.5 113 c 128,-1,48
 699 71 699 71 653 41.5 c 128,-1,49
 607 12 607 12 548.5 -4 c 128,-1,50
 490 -20 490 -20 414 -20 c 0,0,1
455 115 m 0,51,52
 541 115 541 115 605.5 146.5 c 128,-1,53
 670 178 670 178 712.5 227 c 128,-1,54
 755 276 755 276 776 334 c 128,-1,55
 797 392 797 392 797 445 c 2,56,-1
 797 534 l 1,57,-1
 600 530 l 2,58,59
 534 529 534 529 474.5 520.5 c 128,-1,60
 415 512 415 512 370 487 c 128,-1,61
 325 462 325 462 298.5 417 c 128,-1,62
 272 372 272 372 272 299 c 0,63,64
 272 211 272 211 319.5 163 c 128,-1,65
 367 115 367 115 455 115 c 0,51,52
EndSplineSet
EndChar

StartChar: b
Encoding: 98 98 69
Width: 1139
GlyphClass: 2
Flags: W
LayerCount: 2
Fore
SplineSet
1053 546 m 0,0,1
 1053 -20 1053 -20 655 -20 c 0,2,3
 532 -20 532 -20 450.5 24.5 c 128,-1,4
 369 69 369 69 318 168 c 1,5,-1
 316 168 l 1,6,7
 316 142 316 142 314.5 114 c 128,-1,8
 313 86 313 86 311.5 62 c 128,-1,9
 310 38 310 38 308.5 21 c 128,-1,10
 307 4 307 4 306 0 c 1,11,-1
 132 0 l 1,12,13
 133 9 133 9 134 30.5 c 128,-1,14
 135 52 135 52 136 82 c 128,-1,15
 137 112 137 112 137.5 148 c 128,-1,16
 138 184 138 184 138 223 c 2,17,-1
 138 1484 l 1,18,-1
 318 1484 l 1,19,-1
 318 1061 l 2,20,21
 318 1031 318 1031 317.5 1003.5 c 128,-1,22
 317 976 317 976 316 955 c 0,23,24
 315 930 315 930 314 908 c 1,25,-1
 318 908 l 1,26,27
 368 1012 368 1012 450.5 1057 c 128,-1,28
 533 1102 533 1102 655 1102 c 0,29,30
 860 1102 860 1102 956.5 964 c 128,-1,31
 1053 826 1053 826 1053 546 c 0,0,1
864 540 m 0,32,33
 864 652 864 652 850 732 c 128,-1,34
 836 812 836 812 805 863.5 c 128,-1,35
 774 915 774 915 726 939 c 128,-1,36
 678 963 678 963 609 963 c 0,37,38
 538 963 538 963 483.5 940 c 128,-1,39
 429 917 429 917 392.5 866 c 128,-1,40
 356 815 356 815 337 732 c 128,-1,41
 318 649 318 649 318 529 c 0,42,43
 318 413 318 413 337 334 c 128,-1,44
 356 255 356 255 392.5 205.5 c 128,-1,45
 429 156 429 156 483 134.5 c 128,-1,46
 537 113 537 113 607 113 c 0,47,48
 673 113 673 113 721 136 c 128,-1,49
 769 159 769 159 801 210 c 128,-1,50
 833 261 833 261 848.5 342.5 c 128,-1,51
 864 424 864 424 864 540 c 0,32,33
EndSplineSet
EndChar

StartChar: c
Encoding: 99 99 70
Width: 1024
GlyphClass: 2
Flags: W
LayerCount: 2
Fore
SplineSet
275 546 m 0,0,1
 275 453 275 453 288.5 375 c 128,-1,2
 302 297 302 297 334 240.5 c 128,-1,3
 366 184 366 184 418.5 153 c 128,-1,4
 471 122 471 122 548 122 c 0,5,6
 644 122 644 122 708.5 174 c 128,-1,7
 773 226 773 226 788 334 c 1,8,-1
 970 322 l 1,9,10
 961 255 961 255 931 193 c 128,-1,11
 901 131 901 131 849.5 84 c 128,-1,12
 798 37 798 37 724 8.5 c 128,-1,13
 650 -20 650 -20 553 -20 c 0,14,15
 426 -20 426 -20 337 23 c 128,-1,16
 248 66 248 66 192.5 141.5 c 128,-1,17
 137 217 137 217 112 319.5 c 128,-1,18
 87 422 87 422 87 542 c 0,19,20
 87 651 87 651 105 734.5 c 128,-1,21
 123 818 123 818 155.5 880.5 c 128,-1,22
 188 943 188 943 232 985.5 c 128,-1,23
 276 1028 276 1028 327.5 1053.5 c 128,-1,24
 379 1079 379 1079 436 1090.5 c 128,-1,25
 493 1102 493 1102 551 1102 c 0,26,27
 642 1102 642 1102 713 1077 c 128,-1,28
 784 1052 784 1052 835.5 1008.5 c 128,-1,29
 887 965 887 965 919 906 c 128,-1,30
 951 847 951 847 964 779 c 1,31,-1
 779 765 l 1,32,33
 765 855 765 855 708 908 c 128,-1,34
 651 961 651 961 546 961 c 0,35,36
 469 961 469 961 417.5 935.5 c 128,-1,37
 366 910 366 910 334 858.5 c 128,-1,38
 302 807 302 807 288.5 729 c 128,-1,39
 275 651 275 651 275 546 c 0,0,1
EndSplineSet
EndChar

StartChar: d
Encoding: 100 100 71
Width: 1139
GlyphClass: 2
Flags: W
LayerCount: 2
Fore
SplineSet
821 174 m 1,0,1
 771 70 771 70 688.5 25 c 128,-1,2
 606 -20 606 -20 484 -20 c 0,3,4
 279 -20 279 -20 182.5 118 c 128,-1,5
 86 256 86 256 86 536 c 0,6,7
 86 1102 86 1102 484 1102 c 0,8,9
 607 1102 607 1102 689 1057 c 128,-1,10
 771 1012 771 1012 821 914 c 1,11,-1
 823 914 l 1,12,13
 823 924 823 924 822.5 945.5 c 128,-1,14
 822 967 822 967 821.5 990.5 c 128,-1,15
 821 1014 821 1014 821 1035 c 128,-1,16
 821 1056 821 1056 821 1065 c 2,17,-1
 821 1484 l 1,18,-1
 1001 1484 l 1,19,-1
 1001 223 l 2,20,21
 1001 184 1001 184 1001.5 148 c 128,-1,22
 1002 112 1002 112 1003 82 c 128,-1,23
 1004 52 1004 52 1005 30.5 c 128,-1,24
 1006 9 1006 9 1007 0 c 1,25,-1
 835 0 l 1,26,27
 833 10 833 10 831.5 28.5 c 128,-1,28
 830 47 830 47 828.5 71 c 128,-1,29
 827 95 827 95 826 121.5 c 128,-1,30
 825 148 825 148 825 174 c 1,31,-1
 821 174 l 1,0,1
275 542 m 0,32,33
 275 430 275 430 289 350 c 128,-1,34
 303 270 303 270 334 218.5 c 128,-1,35
 365 167 365 167 413 143 c 128,-1,36
 461 119 461 119 530 119 c 0,37,38
 601 119 601 119 655.5 142 c 128,-1,39
 710 165 710 165 746.5 216.5 c 128,-1,40
 783 268 783 268 802 351 c 128,-1,41
 821 434 821 434 821 554 c 0,42,43
 821 669 821 669 802 748.5 c 128,-1,44
 783 828 783 828 746 877 c 128,-1,45
 709 926 709 926 655.5 947.5 c 128,-1,46
 602 969 602 969 532 969 c 0,47,48
 466 969 466 969 418 946 c 128,-1,49
 370 923 370 923 338 872 c 128,-1,50
 306 821 306 821 290.5 739.5 c 128,-1,51
 275 658 275 658 275 542 c 0,32,33
EndSplineSet
EndChar

StartChar: e
Encoding: 101 101 72
Width: 1139
GlyphClass: 2
Flags: W
LayerCount: 2
Fore
SplineSet
276 503 m 1,0,1
 276 418 276 418 293.5 346.5 c 128,-1,2
 311 275 311 275 347.5 223.5 c 128,-1,3
 384 172 384 172 441 143.5 c 128,-1,4
 498 115 498 115 578 115 c 0,5,6
 695 115 695 115 765.5 162 c 128,-1,7
 836 209 836 209 861 281 c 1,8,-1
 1019 236 l 1,9,10
 1002 191 1002 191 971.5 145.5 c 128,-1,11
 941 100 941 100 890 63.5 c 128,-1,12
 839 27 839 27 762.5 3.5 c 128,-1,13
 686 -20 686 -20 578 -20 c 0,14,15
 338 -20 338 -20 212.5 123 c 128,-1,16
 87 266 87 266 87 548 c 0,17,18
 87 700 87 700 125 805.5 c 128,-1,19
 163 911 163 911 229 977 c 128,-1,20
 295 1043 295 1043 383 1072.5 c 128,-1,21
 471 1102 471 1102 571 1102 c 0,22,23
 707 1102 707 1102 798.5 1058 c 128,-1,24
 890 1014 890 1014 945.5 936.5 c 128,-1,25
 1001 859 1001 859 1024.5 754 c 128,-1,26
 1048 649 1048 649 1048 527 c 2,27,-1
 1048 503 l 1,28,-1
 276 503 l 1,0,1
862 641 m 1,29,30
 847 812 847 812 775 890.5 c 128,-1,31
 703 969 703 969 568 969 c 0,32,33
 523 969 523 969 473.5 954.5 c 128,-1,34
 424 940 424 940 382 903 c 128,-1,35
 340 866 340 866 311 802.5 c 128,-1,36
 282 739 282 739 278 641 c 1,37,-1
 862 641 l 1,29,30
EndSplineSet
EndChar

StartChar: f
Encoding: 102 102 73
Width: 569
GlyphClass: 2
Flags: W
LayerCount: 2
Fore
SplineSet
361 951 m 1,0,-1
 361 0 l 1,1,-1
 181 0 l 1,2,-1
 181 951 l 1,3,-1
 29 951 l 1,4,-1
 29 1082 l 1,5,-1
 181 1082 l 1,6,-1
 181 1204 l 2,7,8
 181 1263 181 1263 192 1313.5 c 128,-1,9
 203 1364 203 1364 232.5 1401.5 c 128,-1,10
 262 1439 262 1439 313 1460.5 c 128,-1,11
 364 1482 364 1482 445 1482 c 0,12,13
 477 1482 477 1482 511.5 1479 c 128,-1,14
 546 1476 546 1476 572 1470 c 1,15,-1
 572 1333 l 1,16,17
 555 1336 555 1336 532.5 1338.5 c 128,-1,18
 510 1341 510 1341 492 1341 c 0,19,20
 452 1341 452 1341 426.5 1330 c 128,-1,21
 401 1319 401 1319 386.5 1298.5 c 128,-1,22
 372 1278 372 1278 366.5 1248 c 128,-1,23
 361 1218 361 1218 361 1179 c 2,24,-1
 361 1082 l 1,25,-1
 572 1082 l 1,26,-1
 572 951 l 1,27,-1
 361 951 l 1,0,-1
EndSplineSet
EndChar

StartChar: g
Encoding: 103 103 74
Width: 1139
GlyphClass: 2
Flags: W
LayerCount: 2
Fore
SplineSet
548 -425 m 0,0,1
 455 -425 455 -425 383 -406 c 128,-1,2
 311 -387 311 -387 260 -351.5 c 128,-1,3
 209 -316 209 -316 177 -267 c 128,-1,4
 145 -218 145 -218 131 -158 c 1,5,-1
 312 -132 l 1,6,7
 330 -207 330 -207 391.5 -247.5 c 128,-1,8
 453 -288 453 -288 553 -288 c 0,9,10
 614 -288 614 -288 664 -271 c 128,-1,11
 714 -254 714 -254 749 -216.5 c 128,-1,12
 784 -179 784 -179 803 -119 c 128,-1,13
 822 -59 822 -59 822 27 c 2,14,-1
 822 201 l 1,15,-1
 820 201 l 1,16,17
 800 160 800 160 770.5 122.5 c 128,-1,18
 741 85 741 85 698.5 56 c 128,-1,19
 656 27 656 27 600 9.5 c 128,-1,20
 544 -8 544 -8 472 -8 c 0,21,22
 369 -8 369 -8 295.5 26.5 c 128,-1,23
 222 61 222 61 175.5 130 c 128,-1,24
 129 199 129 199 107.5 301.5 c 128,-1,25
 86 404 86 404 86 539 c 0,26,27
 86 669 86 669 107.5 773 c 128,-1,28
 129 877 129 877 177.5 949.5 c 128,-1,29
 226 1022 226 1022 303.5 1060.5 c 128,-1,30
 381 1099 381 1099 492 1099 c 0,31,32
 607 1099 607 1099 691.5 1046.5 c 128,-1,33
 776 994 776 994 822 897 c 1,34,-1
 824 897 l 1,35,36
 824 922 824 922 825.5 953 c 128,-1,37
 827 984 827 984 828.5 1011.5 c 128,-1,38
 830 1039 830 1039 832 1059 c 128,-1,39
 834 1079 834 1079 836 1082 c 1,40,-1
 1007 1082 l 1,41,42
 1006 1073 1006 1073 1005 1051.5 c 128,-1,43
 1004 1030 1004 1030 1003 1000 c 128,-1,44
 1002 970 1002 970 1001.5 933.5 c 128,-1,45
 1001 897 1001 897 1001 858 c 2,46,-1
 1001 31 l 2,47,48
 1001 -196 1001 -196 889.5 -310.5 c 128,-1,49
 778 -425 778 -425 548 -425 c 0,0,1
822 541 m 0,50,51
 822 654 822 654 797.5 734.5 c 128,-1,52
 773 815 773 815 733 866 c 128,-1,53
 693 917 693 917 641.5 941 c 128,-1,54
 590 965 590 965 536 965 c 0,55,56
 467 965 467 965 417.5 941 c 128,-1,57
 368 917 368 917 335.5 865.5 c 128,-1,58
 303 814 303 814 287.5 733.5 c 128,-1,59
 272 653 272 653 272 541 c 0,60,61
 272 424 272 424 287.5 344.5 c 128,-1,62
 303 265 303 265 335 216 c 128,-1,63
 367 167 367 167 416 146 c 128,-1,64
 465 125 465 125 533 125 c 0,65,66
 587 125 587 125 638.5 148 c 128,-1,67
 690 171 690 171 731 221 c 128,-1,68
 772 271 772 271 797 350 c 128,-1,69
 822 429 822 429 822 541 c 0,50,51
EndSplineSet
EndChar

StartChar: h
Encoding: 104 104 75
Width: 1139
GlyphClass: 2
Flags: W
LayerCount: 2
Fore
SplineSet
317 897 m 1,0,1
 347 952 347 952 382 990.5 c 128,-1,2
 417 1029 417 1029 459 1054 c 128,-1,3
 501 1079 501 1079 551 1090.5 c 128,-1,4
 601 1102 601 1102 663 1102 c 0,5,6
 767 1102 767 1102 833.5 1074 c 128,-1,7
 900 1046 900 1046 938.5 995.5 c 128,-1,8
 977 945 977 945 991.5 875 c 128,-1,9
 1006 805 1006 805 1006 721 c 2,10,-1
 1006 0 l 1,11,-1
 825 0 l 1,12,-1
 825 686 l 2,13,14
 825 755 825 755 816.5 807 c 128,-1,15
 808 859 808 859 784 893.5 c 128,-1,16
 760 928 760 928 716 945.5 c 128,-1,17
 672 963 672 963 602 963 c 0,18,19
 538 963 538 963 486.5 940 c 128,-1,20
 435 917 435 917 398.5 875 c 128,-1,21
 362 833 362 833 342 773 c 128,-1,22
 322 713 322 713 322 638 c 2,23,-1
 322 0 l 1,24,-1
 142 0 l 1,25,-1
 142 1484 l 1,26,-1
 322 1484 l 1,27,-1
 322 1098 l 2,28,29
 322 1065 322 1065 321 1032 c 128,-1,30
 320 999 320 999 318.5 971 c 128,-1,31
 317 943 317 943 316 923.5 c 128,-1,32
 315 904 315 904 314 897 c 1,33,-1
 317 897 l 1,0,1
EndSplineSet
EndChar

StartChar: i
Encoding: 105 105 76
Width: 455
GlyphClass: 2
Flags: W
LayerCount: 2
Fore
SplineSet
137 1312 m 1,0,-1
 137 1484 l 1,1,-1
 317 1484 l 1,2,-1
 317 1312 l 1,3,-1
 137 1312 l 1,0,-1
137 0 m 1,4,-1
 137 1082 l 1,5,-1
 317 1082 l 1,6,-1
 317 0 l 1,7,-1
 137 0 l 1,4,-1
EndSplineSet
EndChar

StartChar: j
Encoding: 106 106 77
Width: 455
GlyphClass: 2
Flags: W
LayerCount: 2
Fore
SplineSet
137 1312 m 1,0,-1
 137 1484 l 1,1,-1
 317 1484 l 1,2,-1
 317 1312 l 1,3,-1
 137 1312 l 1,0,-1
317 -134 m 2,4,5
 317 -196 317 -196 306.5 -249 c 128,-1,6
 296 -302 296 -302 269 -341 c 128,-1,7
 242 -380 242 -380 195.5 -402.5 c 128,-1,8
 149 -425 149 -425 77 -425 c 0,9,10
 43 -425 43 -425 10.5 -423 c 128,-1,11
 -22 -421 -22 -421 -50 -416 c 1,12,-1
 -50 -277 l 1,13,14
 -37 -279 -37 -279 -19 -281 c 128,-1,15
 -1 -283 -1 -283 12 -283 c 0,16,17
 50 -283 50 -283 74.5 -273 c 128,-1,18
 99 -263 99 -263 113 -241.5 c 128,-1,19
 127 -220 127 -220 132 -186.5 c 128,-1,20
 137 -153 137 -153 137 -107 c 2,21,-1
 137 1082 l 1,22,-1
 317 1082 l 1,23,-1
 317 -134 l 2,4,5
EndSplineSet
EndChar

StartChar: k
Encoding: 107 107 78
Width: 1024
GlyphClass: 2
Flags: W
LayerCount: 2
Fore
SplineSet
816 0 m 1,0,-1
 450 494 l 1,1,-1
 318 385 l 1,2,-1
 318 0 l 1,3,-1
 138 0 l 1,4,-1
 138 1484 l 1,5,-1
 318 1484 l 1,6,-1
 318 557 l 1,7,-1
 793 1082 l 1,8,-1
 1004 1082 l 1,9,-1
 565 617 l 1,10,-1
 1027 0 l 1,11,-1
 816 0 l 1,0,-1
EndSplineSet
EndChar

StartChar: l
Encoding: 108 108 79
Width: 455
GlyphClass: 2
Flags: W
LayerCount: 2
Fore
SplineSet
138 0 m 1,0,-1
 138 1484 l 1,1,-1
 318 1484 l 1,2,-1
 318 0 l 1,3,-1
 138 0 l 1,0,-1
EndSplineSet
EndChar

StartChar: m
Encoding: 109 109 80
Width: 1706
GlyphClass: 2
Flags: W
LayerCount: 2
Fore
SplineSet
768 0 m 1,0,-1
 768 686 l 2,1,2
 768 765 768 765 758 818 c 128,-1,3
 748 871 748 871 724.5 903.5 c 128,-1,4
 701 936 701 936 663 949.5 c 128,-1,5
 625 963 625 963 570 963 c 0,6,7
 513 963 513 963 467 940.5 c 128,-1,8
 421 918 421 918 388.5 875.5 c 128,-1,9
 356 833 356 833 338.5 770.5 c 128,-1,10
 321 708 321 708 321 627 c 2,11,-1
 321 0 l 1,12,-1
 142 0 l 1,13,-1
 142 851 l 2,14,15
 142 885 142 885 141.5 922.5 c 128,-1,16
 141 960 141 960 140 993.5 c 128,-1,17
 139 1027 139 1027 138 1051 c 128,-1,18
 137 1075 137 1075 136 1082 c 1,19,-1
 306 1082 l 1,20,21
 307 1077 307 1077 308 1055 c 128,-1,22
 309 1033 309 1033 310.5 1004.5 c 128,-1,23
 312 976 312 976 313 946.5 c 128,-1,24
 314 917 314 917 314 897 c 1,25,-1
 317 897 l 1,26,27
 341 944 341 944 369 982 c 128,-1,28
 397 1020 397 1020 434.5 1046.5 c 128,-1,29
 472 1073 472 1073 520.5 1087.5 c 128,-1,30
 569 1102 569 1102 633 1102 c 0,31,32
 756 1102 756 1102 827.5 1053 c 128,-1,33
 899 1004 899 1004 927 897 c 1,34,-1
 930 897 l 1,35,36
 954 944 954 944 984 982 c 128,-1,37
 1014 1020 1014 1020 1054 1046.5 c 128,-1,38
 1094 1073 1094 1073 1144 1087.5 c 128,-1,39
 1194 1102 1194 1102 1258 1102 c 0,40,41
 1340 1102 1340 1102 1399.5 1080 c 128,-1,42
 1459 1058 1459 1058 1497 1012 c 128,-1,43
 1535 966 1535 966 1553 893.5 c 128,-1,44
 1571 821 1571 821 1571 721 c 2,45,-1
 1571 0 l 1,46,-1
 1393 0 l 1,47,-1
 1393 686 l 2,48,49
 1393 765 1393 765 1383 818 c 128,-1,50
 1373 871 1373 871 1349.5 903.5 c 128,-1,51
 1326 936 1326 936 1288 949.5 c 128,-1,52
 1250 963 1250 963 1195 963 c 0,53,54
 1138 963 1138 963 1092 941.5 c 128,-1,55
 1046 920 1046 920 1013.5 878 c 128,-1,56
 981 836 981 836 963.5 773 c 128,-1,57
 946 710 946 710 946 627 c 2,58,-1
 946 0 l 1,59,-1
 768 0 l 1,0,-1
EndSplineSet
EndChar

StartChar: n
Encoding: 110 110 81
Width: 1139
GlyphClass: 2
Flags: W
LayerCount: 2
Fore
SplineSet
825 0 m 1,0,-1
 825 686 l 2,1,2
 825 765 825 765 813.5 818 c 128,-1,3
 802 871 802 871 776 903.5 c 128,-1,4
 750 936 750 936 707.5 949.5 c 128,-1,5
 665 963 665 963 602 963 c 0,6,7
 538 963 538 963 486.5 940.5 c 128,-1,8
 435 918 435 918 398.5 875.5 c 128,-1,9
 362 833 362 833 342 770.5 c 128,-1,10
 322 708 322 708 322 627 c 2,11,-1
 322 0 l 1,12,-1
 142 0 l 1,13,-1
 142 851 l 2,14,15
 142 885 142 885 141.5 922.5 c 128,-1,16
 141 960 141 960 140 993.5 c 128,-1,17
 139 1027 139 1027 138 1051 c 128,-1,18
 137 1075 137 1075 136 1082 c 1,19,-1
 306 1082 l 1,20,21
 307 1077 307 1077 308 1055 c 128,-1,22
 309 1033 309 1033 310.5 1004.5 c 128,-1,23
 312 976 312 976 313 946.5 c 128,-1,24
 314 917 314 917 314 897 c 1,25,-1
 317 897 l 1,26,27
 343 944 343 944 374 982 c 128,-1,28
 405 1020 405 1020 446 1046.5 c 128,-1,29
 487 1073 487 1073 540 1087.5 c 128,-1,30
 593 1102 593 1102 663 1102 c 0,31,32
 753 1102 753 1102 818 1080 c 128,-1,33
 883 1058 883 1058 925 1012 c 128,-1,34
 967 966 967 966 986.5 893.5 c 128,-1,35
 1006 821 1006 821 1006 721 c 2,36,-1
 1006 0 l 1,37,-1
 825 0 l 1,0,-1
EndSplineSet
EndChar

StartChar: o
Encoding: 111 111 82
Width: 1139
GlyphClass: 2
Flags: W
LayerCount: 2
Fore
SplineSet
1053 542 m 0,0,1
 1053 258 1053 258 928 119 c 128,-1,2
 803 -20 803 -20 565 -20 c 0,3,4
 452 -20 452 -20 363 14 c 128,-1,5
 274 48 274 48 212.5 118 c 128,-1,6
 151 188 151 188 118.5 293.5 c 128,-1,7
 86 399 86 399 86 542 c 0,8,9
 86 1102 86 1102 571 1102 c 0,10,11
 697 1102 697 1102 788.5 1067 c 128,-1,12
 880 1032 880 1032 938.5 962 c 128,-1,13
 997 892 997 892 1025 787 c 128,-1,14
 1053 682 1053 682 1053 542 c 0,0,1
864 542 m 256,15,16
 864 668 864 668 844.5 750 c 128,-1,17
 825 832 825 832 787.5 881 c 128,-1,18
 750 930 750 930 696 949.5 c 128,-1,19
 642 969 642 969 574 969 c 0,20,21
 505 969 505 969 449.5 948.5 c 128,-1,22
 394 928 394 928 355 878.5 c 128,-1,23
 316 829 316 829 295.5 747 c 128,-1,24
 275 665 275 665 275 542 c 0,25,26
 275 416 275 416 297 333.5 c 128,-1,27
 319 251 319 251 357.5 202 c 128,-1,28
 396 153 396 153 448.5 133 c 128,-1,29
 501 113 501 113 563 113 c 0,30,31
 632 113 632 113 688 132.5 c 128,-1,32
 744 152 744 152 783 201 c 128,-1,33
 822 250 822 250 843 333 c 128,-1,34
 864 416 864 416 864 542 c 256,15,16
EndSplineSet
EndChar

StartChar: p
Encoding: 112 112 83
Width: 1139
GlyphClass: 2
Flags: W
LayerCount: 2
Fore
SplineSet
1053 546 m 0,0,1
 1053 423 1053 423 1033 319 c 128,-1,2
 1013 215 1013 215 966.5 140 c 128,-1,3
 920 65 920 65 843.5 22.5 c 128,-1,4
 767 -20 767 -20 655 -20 c 0,5,6
 539 -20 539 -20 452 24 c 128,-1,7
 365 68 365 68 319 168 c 1,8,-1
 314 168 l 1,9,10
 315 166 315 166 315.5 150 c 128,-1,11
 316 134 316 134 316.5 110 c 128,-1,12
 317 86 317 86 317.5 56.5 c 128,-1,13
 318 27 318 27 318 -2 c 2,14,-1
 318 -425 l 1,15,-1
 138 -425 l 1,16,-1
 138 861 l 2,17,18
 138 900 138 900 137.5 936 c 128,-1,19
 137 972 137 972 136 1001.5 c 128,-1,20
 135 1031 135 1031 134 1052 c 128,-1,21
 133 1073 133 1073 132 1082 c 1,22,-1
 306 1082 l 1,23,24
 307 1079 307 1079 308.5 1061 c 128,-1,25
 310 1043 310 1043 311.5 1017.5 c 128,-1,26
 313 992 313 992 314.5 963 c 128,-1,27
 316 934 316 934 316 908 c 1,28,-1
 320 908 l 1,29,30
 345 960 345 960 377 996.5 c 128,-1,31
 409 1033 409 1033 450 1056.5 c 128,-1,32
 491 1080 491 1080 541.5 1090.5 c 128,-1,33
 592 1101 592 1101 655 1101 c 0,34,35
 767 1101 767 1101 843.5 1061 c 128,-1,36
 920 1021 920 1021 966.5 948.5 c 128,-1,37
 1013 876 1013 876 1033 773.5 c 128,-1,38
 1053 671 1053 671 1053 546 c 0,0,1
864 542 m 0,39,40
 864 642 864 642 852 720 c 128,-1,41
 840 798 840 798 810.5 852 c 128,-1,42
 781 906 781 906 732 934 c 128,-1,43
 683 962 683 962 609 962 c 0,44,45
 549 962 549 962 496 945 c 128,-1,46
 443 928 443 928 403.5 880 c 128,-1,47
 364 832 364 832 341 747.5 c 128,-1,48
 318 663 318 663 318 528 c 0,49,50
 318 413 318 413 337 333.5 c 128,-1,51
 356 254 356 254 392.5 205 c 128,-1,52
 429 156 429 156 483 134.5 c 128,-1,53
 537 113 537 113 607 113 c 0,54,55
 682 113 682 113 731.5 142 c 128,-1,56
 781 171 781 171 810.5 226 c 128,-1,57
 840 281 840 281 852 360.5 c 128,-1,58
 864 440 864 440 864 542 c 0,39,40
EndSplineSet
EndChar

StartChar: q
Encoding: 113 113 84
Width: 1139
GlyphClass: 2
Flags: W
LayerCount: 2
Fore
SplineSet
484 -20 m 0,0,1
 278 -20 278 -20 182 119 c 128,-1,2
 86 258 86 258 86 536 c 0,3,4
 86 818 86 818 184.5 960 c 128,-1,5
 283 1102 283 1102 484 1102 c 0,6,7
 551 1102 551 1102 602.5 1090 c 128,-1,8
 654 1078 654 1078 694.5 1054.5 c 128,-1,9
 735 1031 735 1031 765.5 996 c 128,-1,10
 796 961 796 961 821 914 c 1,11,-1
 823 914 l 1,12,13
 823 939 823 939 824.5 969.5 c 128,-1,14
 826 1000 826 1000 827.5 1027 c 128,-1,15
 829 1054 829 1054 831 1073.5 c 128,-1,16
 833 1093 833 1093 835 1096 c 1,17,-1
 1008 1096 l 1,18,19
 1006 1079 1006 1079 1003.5 1007 c 128,-1,20
 1001 935 1001 935 1001 801 c 2,21,-1
 1001 -425 l 1,22,-1
 821 -425 l 1,23,-1
 821 14 l 2,24,25
 821 40 821 40 821.5 68 c 128,-1,26
 822 96 822 96 823 121 c 0,27,28
 824 149 824 149 825 178 c 1,29,-1
 823 178 l 1,30,31
 797 127 797 127 765.5 89.5 c 128,-1,32
 734 52 734 52 693 27.5 c 128,-1,33
 652 3 652 3 600.5 -8.5 c 128,-1,34
 549 -20 549 -20 484 -20 c 0,0,1
821 554 m 0,35,36
 821 672 821 672 800.5 752 c 128,-1,37
 780 832 780 832 742.5 880 c 128,-1,38
 705 928 705 928 651.5 948.5 c 128,-1,39
 598 969 598 969 532 969 c 0,40,41
 463 969 463 969 414 943.5 c 128,-1,42
 365 918 365 918 334.5 865.5 c 128,-1,43
 304 813 304 813 289.5 732.5 c 128,-1,44
 275 652 275 652 275 542 c 0,45,46
 275 434 275 434 288.5 354 c 128,-1,47
 302 274 302 274 332.5 222 c 128,-1,48
 363 170 363 170 411.5 144.5 c 128,-1,49
 460 119 460 119 530 119 c 0,50,51
 590 119 590 119 643 137.5 c 128,-1,52
 696 156 696 156 735.5 204.5 c 128,-1,53
 775 253 775 253 798 337.5 c 128,-1,54
 821 422 821 422 821 554 c 0,35,36
EndSplineSet
EndChar

StartChar: r
Encoding: 114 114 85
Width: 682
GlyphClass: 2
Flags: W
LayerCount: 2
Fore
SplineSet
142 0 m 1,0,-1
 142 830 l 2,1,2
 142 864 142 864 141.5 899.5 c 128,-1,3
 141 935 141 935 140 968 c 128,-1,4
 139 1001 139 1001 138 1030 c 128,-1,5
 137 1059 137 1059 136 1082 c 1,6,-1
 306 1082 l 1,7,8
 307 1059 307 1059 308.5 1029.5 c 128,-1,9
 310 1000 310 1000 311.5 969 c 128,-1,10
 313 938 313 938 313.5 909.5 c 128,-1,11
 314 881 314 881 314 861 c 1,12,-1
 318 861 l 1,13,14
 337 923 337 923 358.5 968.5 c 128,-1,15
 380 1014 380 1014 409 1043.5 c 128,-1,16
 438 1073 438 1073 478 1087.5 c 128,-1,17
 518 1102 518 1102 575 1102 c 0,18,19
 597 1102 597 1102 617 1098.5 c 128,-1,20
 637 1095 637 1095 648 1092 c 1,21,-1
 648 927 l 1,22,23
 630 932 630 932 606 934.5 c 128,-1,24
 582 937 582 937 552 937 c 0,25,26
 490 937 490 937 446.5 909 c 128,-1,27
 403 881 403 881 375.5 831.5 c 128,-1,28
 348 782 348 782 335 713.5 c 128,-1,29
 322 645 322 645 322 564 c 2,30,-1
 322 0 l 1,31,-1
 142 0 l 1,0,-1
EndSplineSet
EndChar

StartChar: s
Encoding: 115 115 86
Width: 1024
GlyphClass: 2
Flags: W
LayerCount: 2
Fore
SplineSet
950 299 m 0,0,1
 950 223 950 223 920.5 163.5 c 128,-1,2
 891 104 891 104 835 63.5 c 128,-1,3
 779 23 779 23 697.5 1.5 c 128,-1,4
 616 -20 616 -20 511 -20 c 0,5,6
 417 -20 417 -20 341.5 -5.5 c 128,-1,7
 266 9 266 9 209 41 c 128,-1,8
 152 73 152 73 113.5 125.5 c 128,-1,9
 75 178 75 178 57 254 c 1,10,-1
 216 285 l 1,11,12
 239 198 239 198 311 157.5 c 128,-1,13
 383 117 383 117 511 117 c 0,14,15
 569 117 569 117 617.5 125 c 128,-1,16
 666 133 666 133 701 152.5 c 128,-1,17
 736 172 736 172 755.5 204.5 c 128,-1,18
 775 237 775 237 775 285 c 0,19,20
 775 334 775 334 752 365.5 c 128,-1,21
 729 397 729 397 688 418 c 128,-1,22
 647 439 647 439 588.5 454.5 c 128,-1,23
 530 470 530 470 460 489 c 0,24,25
 395 506 395 506 331 527 c 128,-1,26
 267 548 267 548 215.5 582.5 c 128,-1,27
 164 617 164 617 132 668 c 128,-1,28
 100 719 100 719 100 796 c 0,29,30
 100 944 100 944 205.5 1021.5 c 128,-1,31
 311 1099 311 1099 513 1099 c 0,32,33
 692 1099 692 1099 797.5 1036 c 128,-1,34
 903 973 903 973 931 834 c 1,35,-1
 769 814 l 1,36,37
 760 856 760 856 736 884.5 c 128,-1,38
 712 913 712 913 678 930.5 c 128,-1,39
 644 948 644 948 601.5 955.5 c 128,-1,40
 559 963 559 963 513 963 c 0,41,42
 391 963 391 963 333 926 c 128,-1,43
 275 889 275 889 275 814 c 0,44,45
 275 770 275 770 296.5 741.5 c 128,-1,46
 318 713 318 713 356.5 693.5 c 128,-1,47
 395 674 395 674 449 659.5 c 128,-1,48
 503 645 503 645 568 629 c 0,49,50
 611 618 611 618 656 605.5 c 128,-1,51
 701 593 701 593 743.5 575.5 c 128,-1,52
 786 558 786 558 823.5 534.5 c 128,-1,53
 861 511 861 511 889 478 c 128,-1,54
 917 445 917 445 933.5 401 c 128,-1,55
 950 357 950 357 950 299 c 0,0,1
EndSplineSet
EndChar

StartChar: t
Encoding: 116 116 87
Width: 569
GlyphClass: 2
Flags: W
LayerCount: 2
Fore
SplineSet
554 8 m 1,0,1
 513 -3 513 -3 470.5 -9.5 c 128,-1,2
 428 -16 428 -16 372 -16 c 0,3,4
 156 -16 156 -16 156 229 c 2,5,-1
 156 951 l 1,6,-1
 31 951 l 1,7,-1
 31 1082 l 1,8,-1
 163 1082 l 1,9,-1
 216 1324 l 1,10,-1
 336 1324 l 1,11,-1
 336 1082 l 1,12,-1
 536 1082 l 1,13,-1
 536 951 l 1,14,-1
 336 951 l 1,15,-1
 336 268 l 2,16,17
 336 190 336 190 361.5 158.5 c 128,-1,18
 387 127 387 127 450 127 c 0,19,20
 476 127 476 127 500.5 131 c 128,-1,21
 525 135 525 135 554 141 c 1,22,-1
 554 8 l 1,0,1
EndSplineSet
EndChar

StartChar: u
Encoding: 117 117 88
Width: 1139
GlyphClass: 2
Flags: W
LayerCount: 2
Fore
SplineSet
314 1082 m 1,0,-1
 314 396 l 2,1,2
 314 317 314 317 325.5 264 c 128,-1,3
 337 211 337 211 363 178.5 c 128,-1,4
 389 146 389 146 431.5 132.5 c 128,-1,5
 474 119 474 119 537 119 c 0,6,7
 601 119 601 119 652.5 141.5 c 128,-1,8
 704 164 704 164 740.5 206.5 c 128,-1,9
 777 249 777 249 797 311.5 c 128,-1,10
 817 374 817 374 817 455 c 2,11,-1
 817 1082 l 1,12,-1
 997 1082 l 1,13,-1
 997 231 l 2,14,15
 997 197 997 197 997.5 159.5 c 128,-1,16
 998 122 998 122 999 88.5 c 128,-1,17
 1000 55 1000 55 1001 31 c 128,-1,18
 1002 7 1002 7 1003 0 c 1,19,-1
 833 0 l 1,20,21
 832 5 832 5 831 27 c 128,-1,22
 830 49 830 49 828.5 77.5 c 128,-1,23
 827 106 827 106 826 135.5 c 128,-1,24
 825 165 825 165 825 185 c 1,25,-1
 822 185 l 1,26,27
 796 138 796 138 765 100 c 128,-1,28
 734 62 734 62 693 35.5 c 128,-1,29
 652 9 652 9 599 -5.5 c 128,-1,30
 546 -20 546 -20 476 -20 c 0,31,32
 386 -20 386 -20 321 2 c 128,-1,33
 256 24 256 24 214 70 c 128,-1,34
 172 116 172 116 152.5 188 c 128,-1,35
 133 260 133 260 133 361 c 2,36,-1
 133 1082 l 1,37,-1
 314 1082 l 1,0,-1
EndSplineSet
EndChar

StartChar: v
Encoding: 118 118 89
Width: 1024
GlyphClass: 2
Flags: W
LayerCount: 2
Fore
SplineSet
613 0 m 1,0,-1
 400 0 l 1,1,-1
 7 1082 l 1,2,-1
 199 1082 l 1,3,-1
 437 378 l 2,4,5
 444 356 444 356 453.5 324.5 c 128,-1,6
 463 293 463 293 473 259 c 128,-1,7
 483 225 483 225 491.5 193.5 c 128,-1,8
 500 162 500 162 506 141 c 1,9,10
 512 162 512 162 521.5 193.5 c 128,-1,11
 531 225 531 225 541 258 c 128,-1,12
 551 291 551 291 561.5 322.5 c 128,-1,13
 572 354 572 354 580 376 c 2,14,-1
 826 1082 l 1,15,-1
 1017 1082 l 1,16,-1
 613 0 l 1,0,-1
EndSplineSet
EndChar

StartChar: w
Encoding: 119 119 90
Width: 1479
GlyphClass: 2
Flags: W
LayerCount: 2
Fore
SplineSet
1174 0 m 1,0,-1
 965 0 l 1,1,-1
 792 698 l 1,2,3
 784 725 784 725 775.5 765 c 128,-1,4
 767 805 767 805 759 843 c 0,5,6
 749 887 749 887 740 934 c 1,7,8
 731 889 731 889 721 845 c 0,9,10
 713 807 713 807 703.5 766 c 128,-1,11
 694 725 694 725 686 694 c 2,12,-1
 508 0 l 1,13,-1
 300 0 l 1,14,-1
 -3 1082 l 1,15,-1
 175 1082 l 1,16,-1
 358 347 l 1,17,18
 365 324 365 324 372 290.5 c 128,-1,19
 379 257 379 257 386 225 c 0,20,21
 393 188 393 188 401 149 c 1,22,23
 409 187 409 187 418 223 c 0,24,25
 426 254 426 254 434 286 c 128,-1,26
 442 318 442 318 448 339 c 2,27,-1
 644 1082 l 1,28,-1
 837 1082 l 1,29,-1
 1026 339 l 2,30,31
 1033 313 1033 313 1041 280 c 128,-1,32
 1049 247 1049 247 1056 218 c 0,33,34
 1064 184 1064 184 1072 149 c 1,35,36
 1080 187 1080 187 1088 223 c 0,37,38
 1095 254 1095 254 1102.5 287.5 c 128,-1,39
 1110 321 1110 321 1117 347 c 2,40,-1
 1308 1082 l 1,41,-1
 1484 1082 l 1,42,-1
 1174 0 l 1,0,-1
EndSplineSet
EndChar

StartChar: x
Encoding: 120 120 91
Width: 1024
GlyphClass: 2
Flags: W
LayerCount: 2
Fore
SplineSet
801 0 m 1,0,-1
 510 444 l 1,1,-1
 217 0 l 1,2,-1
 23 0 l 1,3,-1
 408 556 l 1,4,-1
 41 1082 l 1,5,-1
 240 1082 l 1,6,-1
 510 661 l 1,7,-1
 778 1082 l 1,8,-1
 979 1082 l 1,9,-1
 612 558 l 1,10,-1
 1002 0 l 1,11,-1
 801 0 l 1,0,-1
EndSplineSet
EndChar

StartChar: y
Encoding: 121 121 92
Width: 1024
GlyphClass: 2
Flags: W
LayerCount: 2
Fore
SplineSet
604 0 m 2,0,1
 566 -98 566 -98 526.5 -176.5 c 128,-1,2
 487 -255 487 -255 438 -310.5 c 128,-1,3
 389 -366 389 -366 329 -395.5 c 128,-1,4
 269 -425 269 -425 191 -425 c 0,5,6
 157 -425 157 -425 128 -423 c 128,-1,7
 99 -421 99 -421 67 -414 c 1,8,-1
 67 -279 l 1,9,10
 86 -282 86 -282 110 -283.5 c 128,-1,11
 134 -285 134 -285 151 -285 c 0,12,13
 230 -285 230 -285 298 -226 c 128,-1,14
 366 -167 366 -167 417 -38 c 2,15,-1
 434 5 l 1,16,-1
 5 1082 l 1,17,-1
 197 1082 l 1,18,-1
 425 484 l 2,19,20
 435 457 435 457 450.5 412 c 128,-1,21
 466 367 466 367 481.5 322 c 128,-1,22
 497 277 497 277 509 241 c 128,-1,23
 521 205 521 205 523 196 c 1,24,25
 526 207 526 207 537.5 239.5 c 128,-1,26
 549 272 549 272 563.5 312 c 128,-1,27
 578 352 578 352 593 393 c 128,-1,28
 608 434 608 434 618 464 c 2,29,-1
 830 1082 l 1,30,-1
 1020 1082 l 1,31,-1
 604 0 l 2,0,1
EndSplineSet
EndChar

StartChar: z
Encoding: 122 122 93
Width: 1024
GlyphClass: 2
Flags: W
LayerCount: 2
Fore
SplineSet
49 0 m 1,0,-1
 49 137 l 1,1,-1
 710 943 l 1,2,-1
 89 943 l 1,3,-1
 89 1082 l 1,4,-1
 913 1082 l 1,5,-1
 913 945 l 1,6,-1
 251 139 l 1,7,-1
 950 139 l 1,8,-1
 950 0 l 1,9,-1
 49 0 l 1,0,-1
EndSplineSet
EndChar

StartChar: braceleft
Encoding: 123 123 94
Width: 684
GlyphClass: 2
Flags: W
LayerCount: 2
Fore
SplineSet
513 -425 m 2,0,1
 448 -425 448 -425 398.5 -404.5 c 128,-1,2
 349 -384 349 -384 316 -346 c 128,-1,3
 283 -308 283 -308 266 -254 c 128,-1,4
 249 -200 249 -200 249 -132 c 2,5,-1
 249 229 l 2,6,7
 249 292 249 292 234.5 336 c 128,-1,8
 220 380 220 380 192.5 408 c 128,-1,9
 165 436 165 436 125 450 c 128,-1,10
 85 464 85 464 34 466 c 1,11,-1
 34 593 l 1,12,13
 85 595 85 595 125 609 c 128,-1,14
 165 623 165 623 192.5 651 c 128,-1,15
 220 679 220 679 234.5 723 c 128,-1,16
 249 767 249 767 249 829 c 2,17,-1
 249 1191 l 2,18,19
 249 1332 249 1332 315.5 1408 c 128,-1,20
 382 1484 382 1484 513 1484 c 2,21,-1
 648 1484 l 1,22,-1
 648 1355 l 1,23,-1
 585 1355 l 2,24,25
 494 1355 494 1355 455.5 1301.5 c 128,-1,26
 417 1248 417 1248 417 1140 c 2,27,-1
 417 784 l 2,28,29
 417 734 417 734 402 692 c 128,-1,30
 387 650 387 650 361 618 c 128,-1,31
 335 586 335 586 299.5 564 c 128,-1,32
 264 542 264 542 223 532 c 1,33,-1
 223 530 l 1,34,35
 266 520 266 520 301.5 498 c 128,-1,36
 337 476 337 476 362.5 443.5 c 128,-1,37
 388 411 388 411 402.5 369 c 128,-1,38
 417 327 417 327 417 276 c 2,39,-1
 417 -81 l 2,40,41
 417 -187 417 -187 455.5 -241.5 c 128,-1,42
 494 -296 494 -296 585 -296 c 2,43,-1
 648 -296 l 1,44,-1
 648 -425 l 1,45,-1
 513 -425 l 2,0,1
EndSplineSet
EndChar

StartChar: bar
Encoding: 124 124 95
Width: 532
GlyphClass: 2
Flags: W
LayerCount: 2
Fore
SplineSet
183 -434 m 1,0,-1
 183 1484 l 1,1,-1
 349 1484 l 1,2,-1
 349 -434 l 1,3,-1
 183 -434 l 1,0,-1
EndSplineSet
EndChar

StartChar: braceright
Encoding: 125 125 96
Width: 684
GlyphClass: 2
Flags: W
LayerCount: 2
Fore
SplineSet
94 -296 m 2,0,1
 185 -296 185 -296 224.5 -241.5 c 128,-1,2
 264 -187 264 -187 264 -81 c 2,3,-1
 264 276 l 2,4,5
 264 327 264 327 278 369 c 128,-1,6
 292 411 292 411 317.5 443.5 c 128,-1,7
 343 476 343 476 378.5 498 c 128,-1,8
 414 520 414 520 457 530 c 1,9,-1
 457 532 l 1,10,11
 415 542 415 542 380 564 c 128,-1,12
 345 586 345 586 319 618 c 128,-1,13
 293 650 293 650 278.5 692 c 128,-1,14
 264 734 264 734 264 784 c 2,15,-1
 264 1140 l 2,16,17
 264 1248 264 1248 224.5 1301.5 c 128,-1,18
 185 1355 185 1355 94 1355 c 2,19,-1
 34 1355 l 1,20,-1
 34 1484 l 1,21,-1
 166 1484 l 2,22,23
 297 1484 297 1484 363.5 1408 c 128,-1,24
 430 1332 430 1332 430 1191 c 2,25,-1
 430 829 l 2,26,27
 430 767 430 767 444.5 723 c 128,-1,28
 459 679 459 679 486.5 651 c 128,-1,29
 514 623 514 623 554.5 609 c 128,-1,30
 595 595 595 595 647 593 c 1,31,-1
 647 466 l 1,32,33
 595 464 595 464 554.5 450 c 128,-1,34
 514 436 514 436 486.5 408 c 128,-1,35
 459 380 459 380 444.5 336 c 128,-1,36
 430 292 430 292 430 229 c 2,37,-1
 430 -132 l 2,38,39
 430 -200 430 -200 413 -254 c 128,-1,40
 396 -308 396 -308 363 -346 c 128,-1,41
 330 -384 330 -384 280.5 -404.5 c 128,-1,42
 231 -425 231 -425 166 -425 c 2,43,-1
 34 -425 l 1,44,-1
 34 -296 l 1,45,-1
 94 -296 l 2,0,1
EndSplineSet
EndChar

StartChar: asciitilde
Encoding: 126 126 97
Width: 1196
GlyphClass: 2
Flags: W
LayerCount: 2
Fore
SplineSet
844 553 m 0,0,1
 775 553 775 553 702.5 575 c 128,-1,2
 630 597 630 597 557 623 c 0,3,4
 428 668 428 668 340 668 c 0,5,6
 302 668 302 668 269.5 662 c 128,-1,7
 237 656 237 656 207 644.5 c 128,-1,8
 177 633 177 633 149 617 c 128,-1,9
 121 601 121 601 92 580 c 1,10,-1
 92 723 l 1,11,12
 142 761 142 761 208 784 c 128,-1,13
 274 807 274 807 355 807 c 0,14,15
 395 807 395 807 435 800.5 c 128,-1,16
 475 794 475 794 513.5 784 c 128,-1,17
 552 774 552 774 589.5 761 c 128,-1,18
 627 748 627 748 664 735 c 0,19,20
 685 727 685 727 710 719.5 c 128,-1,21
 735 712 735 712 760.5 705 c 128,-1,22
 786 698 786 698 811.5 694 c 128,-1,23
 837 690 837 690 860 690 c 0,24,25
 929 690 929 690 990.5 715 c 128,-1,26
 1052 740 1052 740 1104 782 c 1,27,-1
 1104 633 l 1,28,29
 1072 610 1072 610 1042.5 595 c 128,-1,30
 1013 580 1013 580 982.5 570.5 c 128,-1,31
 952 561 952 561 918 557 c 128,-1,32
 884 553 884 553 844 553 c 0,0,1
EndSplineSet
EndChar

StartChar: exclamdown
Encoding: 161 161 98
Width: 682
GlyphClass: 2
Flags: W
LayerCount: 2
Fore
SplineSet
266 685 m 1,0,-1
 414 685 l 1,1,-1
 438 -327 l 1,2,-1
 242 -327 l 1,3,-1
 266 685 l 1,0,-1
440 1082 m 1,4,-1
 440 881 l 1,5,-1
 246 881 l 1,6,-1
 246 1082 l 1,7,-1
 440 1082 l 1,4,-1
EndSplineSet
EndChar

StartChar: cent
Encoding: 162 162 99
Width: 1139
GlyphClass: 2
Flags: W
LayerCount: 2
Fore
SplineSet
596 277 m 0,0,1
 692 277 692 277 756.5 329 c 128,-1,2
 821 381 821 381 836 489 c 1,3,-1
 1018 477 l 1,4,5
 1010 415 1010 415 984.5 357 c 128,-1,6
 959 299 959 299 915 253 c 128,-1,7
 871 207 871 207 808 176 c 128,-1,8
 745 145 745 145 662 137 c 1,9,-1
 662 -31 l 1,10,-1
 538 -31 l 1,11,-1
 538 137 l 1,12,13
 427 147 427 147 350 193.5 c 128,-1,14
 273 240 273 240 225.5 314.5 c 128,-1,15
 178 389 178 389 156.5 486.5 c 128,-1,16
 135 584 135 584 135 697 c 0,17,18
 135 847 135 847 168 950 c 128,-1,19
 201 1053 201 1053 256.5 1118.5 c 128,-1,20
 312 1184 312 1184 385 1215.5 c 128,-1,21
 458 1247 458 1247 538 1254 c 1,22,-1
 538 1409 l 1,23,-1
 662 1409 l 1,24,-1
 662 1254 l 1,25,26
 740 1246 740 1246 800 1218.5 c 128,-1,27
 860 1191 860 1191 903 1148.5 c 128,-1,28
 946 1106 946 1106 973 1051.5 c 128,-1,29
 1000 997 1000 997 1012 934 c 1,30,-1
 827 920 l 1,31,32
 813 1010 813 1010 756 1063 c 128,-1,33
 699 1116 699 1116 594 1116 c 0,34,35
 517 1116 517 1116 465.5 1090.5 c 128,-1,36
 414 1065 414 1065 382 1013.5 c 128,-1,37
 350 962 350 962 336.5 884 c 128,-1,38
 323 806 323 806 323 701 c 0,39,40
 323 608 323 608 336.5 530 c 128,-1,41
 350 452 350 452 382 395.5 c 128,-1,42
 414 339 414 339 466.5 308 c 128,-1,43
 519 277 519 277 596 277 c 0,0,1
EndSplineSet
EndChar

StartChar: sterling
Encoding: 163 163 100
Width: 1139
GlyphClass: 2
Flags: W
LayerCount: 2
Fore
SplineSet
1104 311 m 1,0,1
 1095 231 1095 231 1066.5 172.5 c 128,-1,2
 1038 114 1038 114 993.5 75.5 c 128,-1,3
 949 37 949 37 891.5 18.5 c 128,-1,4
 834 0 834 0 767 0 c 2,5,-1
 69 0 l 1,6,-1
 69 154 l 1,7,8
 158 200 158 200 201 280 c 128,-1,9
 244 360 244 360 244 481 c 2,10,-1
 244 625 l 1,11,-1
 58 625 l 1,12,-1
 58 754 l 1,13,-1
 244 754 l 1,14,-1
 244 1034 l 2,15,16
 244 1126 244 1126 268 1199.5 c 128,-1,17
 292 1273 292 1273 341.5 1324 c 128,-1,18
 391 1375 391 1375 467 1402.5 c 128,-1,19
 543 1430 543 1430 646 1430 c 0,20,21
 716 1430 716 1430 777.5 1415.5 c 128,-1,22
 839 1401 839 1401 888.5 1372 c 128,-1,23
 938 1343 938 1343 973.5 1300 c 128,-1,24
 1009 1257 1009 1257 1027 1200 c 1,25,-1
 853 1143 l 1,26,27
 843 1174 843 1174 823.5 1200 c 128,-1,28
 804 1226 804 1226 777.5 1244 c 128,-1,29
 751 1262 751 1262 718.5 1272 c 128,-1,30
 686 1282 686 1282 650 1282 c 0,31,32
 536 1282 536 1282 480 1224.5 c 128,-1,33
 424 1167 424 1167 424 1042 c 2,34,-1
 424 754 l 1,35,-1
 832 754 l 1,36,-1
 832 625 l 1,37,-1
 424 625 l 1,38,-1
 424 499 l 2,39,40
 424 443 424 443 413 390 c 128,-1,41
 402 337 402 337 380 291 c 128,-1,42
 358 245 358 245 326.5 209.5 c 128,-1,43
 295 174 295 174 255 153 c 1,44,-1
 738 153 l 2,45,46
 776 153 776 153 809.5 162.5 c 128,-1,47
 843 172 843 172 869.5 193 c 128,-1,48
 896 214 896 214 914.5 247.5 c 128,-1,49
 933 281 933 281 941 329 c 1,50,-1
 1104 311 l 1,0,1
EndSplineSet
EndChar

StartChar: currency
Encoding: 164 164 101
Width: 1139
GlyphClass: 2
Flags: W
LayerCount: 2
Fore
SplineSet
137 684 m 256,0,1
 137 755 137 755 157.5 818.5 c 128,-1,2
 178 882 178 882 215 936 c 1,3,-1
 115 1036 l 1,4,-1
 219 1139 l 1,5,-1
 318 1038 l 1,6,7
 372 1077 372 1077 435.5 1098.5 c 128,-1,8
 499 1120 499 1120 572 1120 c 0,9,10
 643 1120 643 1120 706 1099 c 128,-1,11
 769 1078 769 1078 823 1040 c 1,12,-1
 920 1137 l 1,13,-1
 1024 1032 l 1,14,-1
 928 936 l 1,15,16
 965 882 965 882 986.5 818.5 c 128,-1,17
 1008 755 1008 755 1008 684 c 256,18,19
 1008 613 1008 613 986 549 c 128,-1,20
 964 485 964 485 926 432 c 1,21,-1
 1026 332 l 1,22,-1
 924 227 l 1,23,-1
 823 328 l 1,24,25
 769 291 769 291 706 270.5 c 128,-1,26
 643 250 643 250 572 250 c 0,27,28
 500 250 500 250 436 271 c 128,-1,29
 372 292 372 292 320 330 c 1,30,-1
 215 225 l 1,31,-1
 113 330 l 1,32,-1
 215 432 l 1,33,34
 178 486 178 486 157.5 549.5 c 128,-1,35
 137 613 137 613 137 684 c 256,0,1
291 686 m 256,36,37
 291 628 291 628 313 577 c 128,-1,38
 335 526 335 526 373.5 488 c 128,-1,39
 412 450 412 450 463 428 c 128,-1,40
 514 406 514 406 572 406 c 0,41,42
 629 406 629 406 680 428 c 128,-1,43
 731 450 731 450 769.5 488 c 128,-1,44
 808 526 808 526 830 577 c 128,-1,45
 852 628 852 628 852 686 c 256,46,47
 852 744 852 744 830 795 c 128,-1,48
 808 846 808 846 769.5 884 c 128,-1,49
 731 922 731 922 680 944.5 c 128,-1,50
 629 967 629 967 572 967 c 0,51,52
 514 967 514 967 463 944.5 c 128,-1,53
 412 922 412 922 373.5 884 c 128,-1,54
 335 846 335 846 313 795 c 128,-1,55
 291 744 291 744 291 686 c 256,36,37
EndSplineSet
EndChar

StartChar: yen
Encoding: 165 165 102
Width: 1139
GlyphClass: 2
Flags: W
LayerCount: 2
Fore
SplineSet
720 709 m 1,0,-1
 1041 709 l 1,1,-1
 1041 584 l 1,2,-1
 658 584 l 1,3,-1
 658 430 l 1,4,-1
 1041 430 l 1,5,-1
 1041 303 l 1,6,-1
 658 303 l 1,7,-1
 658 0 l 1,8,-1
 480 0 l 1,9,-1
 480 303 l 1,10,-1
 99 303 l 1,11,-1
 99 430 l 1,12,-1
 480 430 l 1,13,-1
 482 584 l 1,14,-1
 99 584 l 1,15,-1
 99 709 l 1,16,-1
 419 709 l 1,17,-1
 -2 1409 l 1,18,-1
 197 1409 l 1,19,-1
 568 762 l 1,20,-1
 943 1409 l 1,21,-1
 1142 1409 l 1,22,-1
 720 709 l 1,0,-1
EndSplineSet
EndChar

StartChar: brokenbar
Encoding: 166 166 103
Width: 532
GlyphClass: 2
Flags: W
LayerCount: 2
Fore
SplineSet
183 706 m 1,0,-1
 183 1484 l 1,1,-1
 349 1484 l 1,2,-1
 349 706 l 1,3,-1
 183 706 l 1,0,-1
183 -434 m 1,4,-1
 183 345 l 1,5,-1
 349 345 l 1,6,-1
 349 -434 l 1,7,-1
 183 -434 l 1,4,-1
EndSplineSet
EndChar

StartChar: section
Encoding: 167 167 104
Width: 1139
GlyphClass: 2
Flags: W
LayerCount: 2
Fore
SplineSet
588 1484 m 0,0,1
 667 1484 667 1484 736 1469 c 128,-1,2
 805 1454 805 1454 859 1422.5 c 128,-1,3
 913 1391 913 1391 949.5 1342 c 128,-1,4
 986 1293 986 1293 1001 1224 c 1,5,-1
 840 1204 l 1,6,7
 832 1249 832 1249 809 1278 c 128,-1,8
 786 1307 786 1307 752 1324 c 128,-1,9
 718 1341 718 1341 676 1347.5 c 128,-1,10
 634 1354 634 1354 588 1354 c 0,11,12
 463 1354 463 1354 398.5 1314.5 c 128,-1,13
 334 1275 334 1275 334 1204 c 0,14,15
 334 1159 334 1159 359 1127 c 128,-1,16
 384 1095 384 1095 425.5 1072 c 128,-1,17
 467 1049 467 1049 521.5 1033 c 128,-1,18
 576 1017 576 1017 635 1003 c 0,19,20
 703 987 703 987 772.5 964 c 128,-1,21
 842 941 842 941 898 904.5 c 128,-1,22
 954 868 954 868 989 815 c 128,-1,23
 1024 762 1024 762 1024 686 c 0,24,25
 1024 641 1024 641 1010 597.5 c 128,-1,26
 996 554 996 554 968.5 517.5 c 128,-1,27
 941 481 941 481 900 453.5 c 128,-1,28
 859 426 859 426 805 413 c 1,29,30
 854 392 854 392 893.5 366.5 c 128,-1,31
 933 341 933 341 960.5 309 c 128,-1,32
 988 277 988 277 1003 236.5 c 128,-1,33
 1018 196 1018 196 1018 145 c 0,34,35
 1018 72 1018 72 989 13.5 c 128,-1,36
 960 -45 960 -45 904 -86.5 c 128,-1,37
 848 -128 848 -128 766 -150 c 128,-1,38
 684 -172 684 -172 577 -172 c 0,39,40
 484 -172 484 -172 407 -158.5 c 128,-1,41
 330 -145 330 -145 271.5 -113 c 128,-1,42
 213 -81 213 -81 173.5 -29 c 128,-1,43
 134 23 134 23 115 100 c 1,44,-1
 276 131 l 1,45,46
 288 76 288 76 315 42.5 c 128,-1,47
 342 9 342 9 381 -9.5 c 128,-1,48
 420 -28 420 -28 470 -34.5 c 128,-1,49
 520 -41 520 -41 577 -41 c 0,50,51
 635 -41 635 -41 686 -32 c 128,-1,52
 737 -23 737 -23 775 -3 c 128,-1,53
 813 17 813 17 835.5 49.5 c 128,-1,54
 858 82 858 82 858 129 c 0,55,56
 858 183 858 183 829.5 219 c 128,-1,57
 801 255 801 255 753.5 280.5 c 128,-1,58
 706 306 706 306 644.5 324 c 128,-1,59
 583 342 583 342 518 358 c 0,60,61
 453 373 453 373 387.5 396 c 128,-1,62
 322 419 322 419 270 455.5 c 128,-1,63
 218 492 218 492 185.5 544.5 c 128,-1,64
 153 597 153 597 153 671 c 0,65,66
 153 716 153 716 169 757.5 c 128,-1,67
 185 799 185 799 214.5 834.5 c 128,-1,68
 244 870 244 870 286 896.5 c 128,-1,69
 328 923 328 923 381 938 c 1,70,71
 339 952 339 952 301.5 975 c 128,-1,72
 264 998 264 998 235.5 1030 c 128,-1,73
 207 1062 207 1062 190.5 1102 c 128,-1,74
 174 1142 174 1142 174 1190 c 0,75,76
 174 1329 174 1329 279.5 1406.5 c 128,-1,77
 385 1484 385 1484 588 1484 c 0,0,1
866 663 m 0,78,79
 866 711 866 711 839.5 745.5 c 128,-1,80
 813 780 813 780 769 805.5 c 128,-1,81
 725 831 725 831 668.5 848.5 c 128,-1,82
 612 866 612 866 551 880 c 1,83,84
 493 877 493 877 448.5 860.5 c 128,-1,85
 404 844 404 844 374 818 c 128,-1,86
 344 792 344 792 328.5 757.5 c 128,-1,87
 313 723 313 723 313 684 c 0,88,89
 313 638 313 638 337.5 605 c 128,-1,90
 362 572 362 572 403 548 c 128,-1,91
 444 524 444 524 498 507 c 128,-1,92
 552 490 552 490 612 475 c 1,93,94
 666 476 666 476 712.5 488 c 128,-1,95
 759 500 759 500 793 523.5 c 128,-1,96
 827 547 827 547 846.5 582 c 128,-1,97
 866 617 866 617 866 663 c 0,78,79
EndSplineSet
EndChar

StartChar: dieresis
Encoding: 168 168 105
Width: 682
GlyphClass: 2
Flags: W
LayerCount: 2
Fore
SplineSet
439 1219 m 1,0,-1
 439 1403 l 1,1,-1
 602 1403 l 1,2,-1
 602 1219 l 1,3,-1
 439 1219 l 1,0,-1
45 1219 m 1,4,-1
 45 1403 l 1,5,-1
 210 1403 l 1,6,-1
 210 1219 l 1,7,-1
 45 1219 l 1,4,-1
EndSplineSet
EndChar

StartChar: copyright
Encoding: 169 169 106
Width: 1509
GlyphClass: 2
Flags: W
LayerCount: 2
Fore
SplineSet
1477 707 m 0,0,1
 1477 607 1477 607 1451 514.5 c 128,-1,2
 1425 422 1425 422 1378 341.5 c 128,-1,3
 1331 261 1331 261 1265.5 195.5 c 128,-1,4
 1200 130 1200 130 1119.5 83 c 128,-1,5
 1039 36 1039 36 946.5 10 c 128,-1,6
 854 -16 854 -16 754 -16 c 0,7,8
 655 -16 655 -16 562.5 10 c 128,-1,9
 470 36 470 36 390 83 c 128,-1,10
 310 130 310 130 243.5 195.5 c 128,-1,11
 177 261 177 261 130 341.5 c 128,-1,12
 83 422 83 422 57 514.5 c 128,-1,13
 31 607 31 607 31 707 c 256,14,15
 31 807 31 807 57 899 c 128,-1,16
 83 991 83 991 130 1071.5 c 128,-1,17
 177 1152 177 1152 243 1218 c 128,-1,18
 309 1284 309 1284 389.5 1331 c 128,-1,19
 470 1378 470 1378 562 1404 c 128,-1,20
 654 1430 654 1430 754 1430 c 0,21,22
 904 1430 904 1430 1035.5 1373 c 128,-1,23
 1167 1316 1167 1316 1265.5 1218 c 128,-1,24
 1364 1120 1364 1120 1420.5 988.5 c 128,-1,25
 1477 857 1477 857 1477 707 c 0,0,1
1385 707 m 0,26,27
 1385 793 1385 793 1362.5 873.5 c 128,-1,28
 1340 954 1340 954 1299 1023.5 c 128,-1,29
 1258 1093 1258 1093 1200 1150.5 c 128,-1,30
 1142 1208 1142 1208 1072 1249 c 128,-1,31
 1002 1290 1002 1290 921.5 1312.5 c 128,-1,32
 841 1335 841 1335 754 1335 c 0,33,34
 624 1335 624 1335 510 1285.5 c 128,-1,35
 396 1236 396 1236 310.5 1150.5 c 128,-1,36
 225 1065 225 1065 175.5 951 c 128,-1,37
 126 837 126 837 126 707 c 0,38,39
 126 576 126 576 175.5 461.5 c 128,-1,40
 225 347 225 347 310.5 261.5 c 128,-1,41
 396 176 396 176 510 127 c 128,-1,42
 624 78 624 78 754 78 c 0,43,44
 841 78 841 78 921.5 100.5 c 128,-1,45
 1002 123 1002 123 1072 163.5 c 128,-1,46
 1142 204 1142 204 1200 261.5 c 128,-1,47
 1258 319 1258 319 1299 389 c 128,-1,48
 1340 459 1340 459 1362.5 539.5 c 128,-1,49
 1385 620 1385 620 1385 707 c 0,26,27
498 709 m 256,50,51
 498 637 498 637 514.5 577 c 128,-1,52
 531 517 531 517 564.5 474 c 128,-1,53
 598 431 598 431 648 407 c 128,-1,54
 698 383 698 383 765 383 c 0,55,56
 814 383 814 383 851.5 396.5 c 128,-1,57
 889 410 889 410 917 432.5 c 128,-1,58
 945 455 945 455 964.5 482.5 c 128,-1,59
 984 510 984 510 998 539 c 1,60,-1
 1113 504 l 1,61,62
 1091 461 1091 461 1062 420.5 c 128,-1,63
 1033 380 1033 380 992 348.5 c 128,-1,64
 951 317 951 317 895.5 298 c 128,-1,65
 840 279 840 279 765 279 c 0,66,67
 664 279 664 279 589.5 311 c 128,-1,68
 515 343 515 343 466 400 c 128,-1,69
 417 457 417 457 393 536 c 128,-1,70
 369 615 369 615 369 709 c 0,71,72
 369 806 369 806 393 884.5 c 128,-1,73
 417 963 417 963 465.5 1018.5 c 128,-1,74
 514 1074 514 1074 587 1103.5 c 128,-1,75
 660 1133 660 1133 758 1133 c 0,76,77
 833 1133 833 1133 889 1115 c 128,-1,78
 945 1097 945 1097 985 1067.5 c 128,-1,79
 1025 1038 1025 1038 1052.5 1000.5 c 128,-1,80
 1080 963 1080 963 1098 924 c 1,81,-1
 984 891 l 1,82,83
 972 917 972 917 953 942 c 128,-1,84
 934 967 934 967 906.5 986 c 128,-1,85
 879 1005 879 1005 843 1016.5 c 128,-1,86
 807 1028 807 1028 760 1028 c 0,87,88
 691 1028 691 1028 641.5 1005 c 128,-1,89
 592 982 592 982 560 940.5 c 128,-1,90
 528 899 528 899 513 840 c 128,-1,91
 498 781 498 781 498 709 c 256,50,51
EndSplineSet
EndChar

StartChar: ordfeminine
Encoding: 170 170 107
Width: 758
GlyphClass: 2
Flags: W
LayerCount: 2
Fore
SplineSet
260 651 m 0,0,1
 207 651 207 651 164 665.5 c 128,-1,2
 121 680 121 680 90 708 c 128,-1,3
 59 736 59 736 42.5 777 c 128,-1,4
 26 818 26 818 26 870 c 0,5,6
 26 939 26 939 51.5 985 c 128,-1,7
 77 1031 77 1031 120 1059 c 128,-1,8
 163 1087 163 1087 219.5 1099 c 128,-1,9
 276 1111 276 1111 338 1112 c 2,10,-1
 516 1116 l 1,11,-1
 516 1176 l 2,12,13
 516 1222 516 1222 505.5 1252 c 128,-1,14
 495 1282 495 1282 475.5 1299.5 c 128,-1,15
 456 1317 456 1317 428 1324 c 128,-1,16
 400 1331 400 1331 365 1331 c 0,17,18
 298 1331 298 1331 257.5 1301.5 c 128,-1,19
 217 1272 217 1272 208 1196 c 1,20,-1
 59 1206 l 1,21,22
 66 1253 66 1253 87.5 1294 c 128,-1,23
 109 1335 109 1335 146.5 1366 c 128,-1,24
 184 1397 184 1397 238 1414.5 c 128,-1,25
 292 1432 292 1432 363 1432 c 0,26,27
 431 1432 431 1432 485.5 1417.5 c 128,-1,28
 540 1403 540 1403 578.5 1373 c 128,-1,29
 617 1343 617 1343 638 1295.5 c 128,-1,30
 659 1248 659 1248 659 1182 c 2,31,-1
 659 874 l 2,32,33
 659 816 659 816 673 791 c 128,-1,34
 687 766 687 766 722 766 c 0,35,36
 734 766 734 766 745 768.5 c 128,-1,37
 756 771 756 771 765 774 c 1,38,-1
 765 670 l 1,39,40
 746 665 746 665 725 661 c 128,-1,41
 704 657 704 657 682 657 c 0,42,43
 641 657 641 657 612.5 668 c 128,-1,44
 584 679 584 679 565 698.5 c 128,-1,45
 546 718 546 718 536 743.5 c 128,-1,46
 526 769 526 769 524 798 c 1,47,-1
 520 798 l 1,48,49
 482 721 482 721 416 686 c 128,-1,50
 350 651 350 651 260 651 c 0,0,1
299 762 m 0,51,52
 347 762 347 762 387 779 c 128,-1,53
 427 796 427 796 455.5 823.5 c 128,-1,54
 484 851 484 851 500 886.5 c 128,-1,55
 516 922 516 922 516 959 c 2,56,-1
 516 1024 l 1,57,-1
 378 1020 l 2,58,59
 337 1018 337 1018 300 1012.5 c 128,-1,60
 263 1007 263 1007 235.5 992.5 c 128,-1,61
 208 978 208 978 192 952 c 128,-1,62
 176 926 176 926 176 883 c 0,63,64
 176 827 176 827 205 794.5 c 128,-1,65
 234 762 234 762 299 762 c 0,51,52
EndSplineSet
EndChar

StartChar: guillemotleft
Encoding: 171 171 108
Width: 1139
GlyphClass: 2
Flags: W
LayerCount: 2
Fore
SplineSet
886 141 m 1,0,-1
 548 506 l 1,1,-1
 548 569 l 1,2,-1
 886 940 l 1,3,-1
 1054 940 l 1,4,-1
 1054 909 l 1,5,-1
 716 537 l 1,6,-1
 1056 170 l 1,7,-1
 1056 141 l 1,8,-1
 886 141 l 1,0,-1
419 141 m 1,9,-1
 83 506 l 1,10,-1
 83 569 l 1,11,-1
 419 940 l 1,12,-1
 586 940 l 1,13,-1
 586 909 l 1,14,-1
 251 537 l 1,15,-1
 588 170 l 1,16,-1
 588 141 l 1,17,-1
 419 141 l 1,9,-1
EndSplineSet
EndChar

StartChar: logicalnot
Encoding: 172 172 109
Width: 1196
GlyphClass: 2
Flags: W
LayerCount: 2
Fore
SplineSet
950 180 m 1,0,-1
 950 608 l 1,1,-1
 100 608 l 1,2,-1
 100 754 l 1,3,-1
 1095 754 l 1,4,-1
 1095 180 l 1,5,-1
 950 180 l 1,0,-1
EndSplineSet
EndChar

StartChar: registered
Encoding: 174 174 110
Width: 1509
GlyphClass: 2
Flags: W
LayerCount: 2
Fore
SplineSet
1477 707 m 0,0,1
 1477 607 1477 607 1451 514.5 c 128,-1,2
 1425 422 1425 422 1378 341.5 c 128,-1,3
 1331 261 1331 261 1265.5 195.5 c 128,-1,4
 1200 130 1200 130 1119.5 83 c 128,-1,5
 1039 36 1039 36 946.5 10 c 128,-1,6
 854 -16 854 -16 754 -16 c 0,7,8
 655 -16 655 -16 562.5 10 c 128,-1,9
 470 36 470 36 390 83 c 128,-1,10
 310 130 310 130 243.5 195.5 c 128,-1,11
 177 261 177 261 130 341.5 c 128,-1,12
 83 422 83 422 57 514.5 c 128,-1,13
 31 607 31 607 31 707 c 256,14,15
 31 807 31 807 57 899 c 128,-1,16
 83 991 83 991 130 1071.5 c 128,-1,17
 177 1152 177 1152 243 1218 c 128,-1,18
 309 1284 309 1284 389.5 1331 c 128,-1,19
 470 1378 470 1378 562 1404 c 128,-1,20
 654 1430 654 1430 754 1430 c 0,21,22
 904 1430 904 1430 1035.5 1373 c 128,-1,23
 1167 1316 1167 1316 1265.5 1218 c 128,-1,24
 1364 1120 1364 1120 1420.5 988.5 c 128,-1,25
 1477 857 1477 857 1477 707 c 0,0,1
1385 707 m 0,26,27
 1385 793 1385 793 1362.5 873.5 c 128,-1,28
 1340 954 1340 954 1299 1023.5 c 128,-1,29
 1258 1093 1258 1093 1200 1150.5 c 128,-1,30
 1142 1208 1142 1208 1072 1249 c 128,-1,31
 1002 1290 1002 1290 921.5 1312.5 c 128,-1,32
 841 1335 841 1335 754 1335 c 0,33,34
 624 1335 624 1335 510 1285.5 c 128,-1,35
 396 1236 396 1236 310.5 1150.5 c 128,-1,36
 225 1065 225 1065 175.5 951 c 128,-1,37
 126 837 126 837 126 707 c 0,38,39
 126 576 126 576 175.5 461.5 c 128,-1,40
 225 347 225 347 310.5 261.5 c 128,-1,41
 396 176 396 176 510 127 c 128,-1,42
 624 78 624 78 754 78 c 0,43,44
 841 78 841 78 921.5 100.5 c 128,-1,45
 1002 123 1002 123 1072 163.5 c 128,-1,46
 1142 204 1142 204 1200 261.5 c 128,-1,47
 1258 319 1258 319 1299 389 c 128,-1,48
 1340 459 1340 459 1362.5 539.5 c 128,-1,49
 1385 620 1385 620 1385 707 c 0,26,27
955 289 m 1,50,-1
 756 625 l 1,51,-1
 595 625 l 1,52,-1
 595 289 l 1,53,-1
 468 289 l 1,54,-1
 468 1120 l 1,55,-1
 775 1120 l 2,56,57
 917 1120 917 1120 992.5 1057 c 128,-1,58
 1068 994 1068 994 1068 883 c 0,59,60
 1068 781 1068 781 1016 719.5 c 128,-1,61
 964 658 964 658 879 639 c 1,62,-1
 1100 289 l 1,63,-1
 955 289 l 1,50,-1
941 881 m 0,64,65
 941 950 941 950 893.5 986 c 128,-1,66
 846 1022 846 1022 765 1022 c 2,67,-1
 595 1022 l 1,68,-1
 595 721 l 1,69,-1
 777 721 l 2,70,71
 857 721 857 721 899 763.5 c 128,-1,72
 941 806 941 806 941 881 c 0,64,65
EndSplineSet
EndChar

StartChar: macron
Encoding: 175 175 111
Width: 1131
GlyphClass: 2
Flags: W
LayerCount: 2
Fore
SplineSet
1148 1452 m 1,0,-1
 -17 1452 l 1,1,-1
 -17 1546 l 1,2,-1
 1148 1546 l 1,3,-1
 1148 1452 l 1,0,-1
EndSplineSet
EndChar

StartChar: degree
Encoding: 176 176 112
Width: 819
GlyphClass: 2
Flags: W
LayerCount: 2
Fore
SplineSet
696 1145 m 0,0,1
 696 1086 696 1086 673.5 1034 c 128,-1,2
 651 982 651 982 612 943.5 c 128,-1,3
 573 905 573 905 520.5 882.5 c 128,-1,4
 468 860 468 860 409 860 c 256,5,6
 350 860 350 860 298 882.5 c 128,-1,7
 246 905 246 905 207 943.5 c 128,-1,8
 168 982 168 982 145 1034 c 128,-1,9
 122 1086 122 1086 122 1145 c 0,10,11
 122 1205 122 1205 145 1257 c 128,-1,12
 168 1309 168 1309 207 1347.5 c 128,-1,13
 246 1386 246 1386 298 1408 c 128,-1,14
 350 1430 350 1430 409 1430 c 256,15,16
 468 1430 468 1430 520.5 1408 c 128,-1,17
 573 1386 573 1386 612 1347.5 c 128,-1,18
 651 1309 651 1309 673.5 1257 c 128,-1,19
 696 1205 696 1205 696 1145 c 0,0,1
587 1145 m 256,20,21
 587 1182 587 1182 573.5 1215 c 128,-1,22
 560 1248 560 1248 536 1272.5 c 128,-1,23
 512 1297 512 1297 479.5 1311 c 128,-1,24
 447 1325 447 1325 409 1325 c 0,25,26
 372 1325 372 1325 339.5 1311 c 128,-1,27
 307 1297 307 1297 283 1272.5 c 128,-1,28
 259 1248 259 1248 245 1215 c 128,-1,29
 231 1182 231 1182 231 1145 c 256,30,31
 231 1108 231 1108 245 1075.5 c 128,-1,32
 259 1043 259 1043 283 1018.5 c 128,-1,33
 307 994 307 994 339.5 979.5 c 128,-1,34
 372 965 372 965 409 965 c 0,35,36
 447 965 447 965 479.5 979.5 c 128,-1,37
 512 994 512 994 536 1018.5 c 128,-1,38
 560 1043 560 1043 573.5 1075.5 c 128,-1,39
 587 1108 587 1108 587 1145 c 256,20,21
EndSplineSet
EndChar

StartChar: plusminus
Encoding: 177 177 113
Width: 1124
GlyphClass: 2
Flags: W
LayerCount: 2
Fore
SplineSet
636 680 m 1,0,-1
 636 285 l 1,1,-1
 489 285 l 1,2,-1
 489 680 l 1,3,-1
 65 680 l 1,4,-1
 65 825 l 1,5,-1
 489 825 l 1,6,-1
 489 1219 l 1,7,-1
 636 1219 l 1,8,-1
 636 825 l 1,9,-1
 1060 825 l 1,10,-1
 1060 680 l 1,11,-1
 636 680 l 1,0,-1
65 0 m 1,12,-1
 65 145 l 1,13,-1
 1060 145 l 1,14,-1
 1060 0 l 1,15,-1
 65 0 l 1,12,-1
EndSplineSet
EndChar

StartChar: uni00B2
Encoding: 178 178 114
Width: 682
GlyphClass: 2
Flags: W
LayerCount: 2
Fore
SplineSet
43 563 m 1,0,-1
 41 666 l 1,1,2
 68 727 68 727 112 775 c 128,-1,3
 156 823 156 823 206 863.5 c 128,-1,4
 256 904 256 904 307.5 940 c 128,-1,5
 359 976 359 976 400 1012.5 c 128,-1,6
 441 1049 441 1049 467 1089 c 128,-1,7
 493 1129 493 1129 493 1178 c 0,8,9
 493 1240 493 1240 457.5 1277.5 c 128,-1,10
 422 1315 422 1315 348 1315 c 0,11,12
 280 1315 280 1315 236 1278.5 c 128,-1,13
 192 1242 192 1242 184 1174 c 1,14,-1
 51 1182 l 1,15,16
 57 1233 57 1233 80 1276.5 c 128,-1,17
 103 1320 103 1320 141 1352 c 128,-1,18
 179 1384 179 1384 232.5 1402.5 c 128,-1,19
 286 1421 286 1421 354 1421 c 0,20,21
 419 1421 419 1421 470.5 1404.5 c 128,-1,22
 522 1388 522 1388 557.5 1358 c 128,-1,23
 593 1328 593 1328 611.5 1285 c 128,-1,24
 630 1242 630 1242 630 1188 c 0,25,26
 630 1126 630 1126 603 1076 c 128,-1,27
 576 1026 576 1026 534.5 983 c 128,-1,28
 493 940 493 940 442 902.5 c 128,-1,29
 391 865 391 865 343.5 828.5 c 128,-1,30
 296 792 296 792 257 755 c 128,-1,31
 218 718 218 718 200 676 c 1,32,-1
 643 676 l 1,33,-1
 643 563 l 1,34,-1
 43 563 l 1,0,-1
EndSplineSet
EndChar

StartChar: uni00B3
Encoding: 179 179 115
Width: 682
GlyphClass: 2
Flags: W
LayerCount: 2
Fore
SplineSet
642 795 m 0,0,1
 642 679 642 679 564.5 615 c 128,-1,2
 487 551 487 551 345 551 c 0,3,4
 258 551 258 551 200 570.5 c 128,-1,5
 142 590 142 590 105.5 622 c 128,-1,6
 69 654 69 654 51 694.5 c 128,-1,7
 33 735 33 735 27 778 c 1,8,-1
 163 791 l 1,9,10
 172 724 172 724 216 689.5 c 128,-1,11
 260 655 260 655 345 655 c 0,12,13
 422 655 422 655 463.5 691 c 128,-1,14
 505 727 505 727 505 803 c 0,15,16
 505 848 505 848 486.5 875 c 128,-1,17
 468 902 468 902 440 916.5 c 128,-1,18
 412 931 412 931 378.5 935.5 c 128,-1,19
 345 940 345 940 316 940 c 2,20,-1
 255 940 l 1,21,-1
 255 1049 l 1,22,-1
 312 1049 l 2,23,24
 341 1049 341 1049 371.5 1055.5 c 128,-1,25
 402 1062 402 1062 427 1077.5 c 128,-1,26
 452 1093 452 1093 468 1119.5 c 128,-1,27
 484 1146 484 1146 484 1186 c 0,28,29
 484 1246 484 1246 447 1280.5 c 128,-1,30
 410 1315 410 1315 339 1315 c 0,31,32
 271 1315 271 1315 229 1280 c 128,-1,33
 187 1245 187 1245 181 1180 c 1,34,-1
 46 1192 l 1,35,36
 53 1250 53 1250 78 1293 c 128,-1,37
 103 1336 103 1336 142.5 1364.5 c 128,-1,38
 182 1393 182 1393 233 1407 c 128,-1,39
 284 1421 284 1421 343 1421 c 0,40,41
 412 1421 412 1421 464 1404.5 c 128,-1,42
 516 1388 516 1388 551 1358.5 c 128,-1,43
 586 1329 586 1329 603.5 1289.5 c 128,-1,44
 621 1250 621 1250 621 1204 c 0,45,46
 621 1129 621 1129 578 1074 c 128,-1,47
 535 1019 535 1019 445 999 c 1,48,-1
 445 997 l 1,49,50
 497 992 497 992 534.5 973.5 c 128,-1,51
 572 955 572 955 596 928 c 128,-1,52
 620 901 620 901 631 866.5 c 128,-1,53
 642 832 642 832 642 795 c 0,0,1
EndSplineSet
EndChar

StartChar: acute
Encoding: 180 180 116
Width: 682
GlyphClass: 2
Flags: W
LayerCount: 2
Fore
SplineSet
72 1201 m 1,0,-1
 72 1221 l 1,1,-1
 289 1508 l 1,2,-1
 496 1508 l 1,3,-1
 496 1479 l 1,4,-1
 166 1201 l 1,5,-1
 72 1201 l 1,0,-1
EndSplineSet
EndChar

StartChar: uni00B5
Encoding: 181 181 117
Width: 1180
GlyphClass: 2
Flags: W
LayerCount: 2
Fore
SplineSet
140 -425 m 1,0,-1
 140 1082 l 1,1,-1
 321 1082 l 1,2,-1
 321 396 l 2,3,4
 321 318 321 318 337 265 c 128,-1,5
 353 212 353 212 382 179.5 c 128,-1,6
 411 147 411 147 453 133 c 128,-1,7
 495 119 495 119 547 119 c 0,8,9
 675 119 675 119 748 206 c 128,-1,10
 821 293 821 293 821 455 c 2,11,-1
 821 1082 l 1,12,-1
 1001 1082 l 1,13,-1
 1001 266 l 2,14,15
 1001 222 1001 222 1006.5 194 c 128,-1,16
 1012 166 1012 166 1022 150 c 128,-1,17
 1032 134 1032 134 1046.5 127.5 c 128,-1,18
 1061 121 1061 121 1079 121 c 0,19,20
 1090 121 1090 121 1106 123.5 c 128,-1,21
 1122 126 1122 126 1133 129 c 1,22,-1
 1133 0 l 1,23,24
 1107 -8 1107 -8 1081.5 -14 c 128,-1,25
 1056 -20 1056 -20 1020 -20 c 0,26,27
 966 -20 966 -20 930.5 -5 c 128,-1,28
 895 10 895 10 873 36 c 128,-1,29
 851 62 851 62 841 97.5 c 128,-1,30
 831 133 831 133 829 174 c 1,31,-1
 826 174 l 1,32,33
 774 79 774 79 700.5 29.5 c 128,-1,34
 627 -20 627 -20 527 -20 c 0,35,36
 460 -20 460 -20 405.5 0.5 c 128,-1,37
 351 21 351 21 320 59 c 1,38,-1
 320 -425 l 1,39,-1
 140 -425 l 1,0,-1
EndSplineSet
EndChar

StartChar: paragraph
Encoding: 182 182 118
Width: 1100
GlyphClass: 2
Flags: W
LayerCount: 2
Fore
SplineSet
884 1307 m 1,0,-1
 884 -264 l 1,1,-1
 772 -264 l 1,2,-1
 772 1307 l 1,3,-1
 555 1307 l 1,4,-1
 555 -264 l 1,5,-1
 442 -264 l 1,6,-1
 442 694 l 1,7,8
 362 694 362 694 295.5 716.5 c 128,-1,9
 229 739 229 739 181 783 c 128,-1,10
 133 827 133 827 106.5 893.5 c 128,-1,11
 80 960 80 960 80 1049 c 0,12,13
 80 1133 80 1133 105 1199.5 c 128,-1,14
 130 1266 130 1266 177.5 1312.5 c 128,-1,15
 225 1359 225 1359 294 1384 c 128,-1,16
 363 1409 363 1409 450 1409 c 2,17,-1
 1013 1409 l 1,18,-1
 1013 1307 l 1,19,-1
 884 1307 l 1,0,-1
EndSplineSet
EndChar

StartChar: uni2219
Encoding: 8729 8729 119
AltUni2: 0000b7.ffffffff.0
Width: 569
GlyphClass: 2
Flags: W
LayerCount: 2
Fore
SplineSet
187 446 m 1,0,-1
 187 666 l 1,1,-1
 382 666 l 1,2,-1
 382 446 l 1,3,-1
 187 446 l 1,0,-1
EndSplineSet
EndChar

StartChar: cedilla
Encoding: 184 184 120
Width: 682
GlyphClass: 2
Flags: W
LayerCount: 2
Fore
SplineSet
483 -253 m 0,0,1
 483 -294 483 -294 468 -327.5 c 128,-1,2
 453 -361 453 -361 420.5 -385 c 128,-1,3
 388 -409 388 -409 336 -421.5 c 128,-1,4
 284 -434 284 -434 209 -434 c 0,5,6
 189 -434 189 -434 166.5 -433.5 c 128,-1,7
 144 -433 144 -433 119 -430 c 1,8,-1
 119 -332 l 1,9,10
 168 -338 168 -338 205 -338 c 0,11,12
 246 -338 246 -338 274 -332 c 128,-1,13
 302 -326 302 -326 319.5 -315.5 c 128,-1,14
 337 -305 337 -305 344.5 -290 c 128,-1,15
 352 -275 352 -275 352 -257 c 0,16,17
 352 -220 352 -220 321.5 -200 c 128,-1,18
 291 -180 291 -180 219 -180 c 0,19,20
 205 -180 205 -180 190.5 -180 c 128,-1,21
 176 -180 176 -180 162 -182 c 1,22,-1
 227 0 l 1,23,-1
 334 0 l 1,24,-1
 295 -100 l 1,25,26
 389 -103 389 -103 436 -143.5 c 128,-1,27
 483 -184 483 -184 483 -253 c 0,0,1
EndSplineSet
EndChar

StartChar: uni00B9
Encoding: 185 185 121
Width: 682
GlyphClass: 2
Flags: W
LayerCount: 2
Fore
SplineSet
80 563 m 1,0,-1
 80 670 l 1,1,-1
 291 670 l 1,2,-1
 291 1290 l 1,3,-1
 89 1152 l 1,4,-1
 89 1272 l 1,5,-1
 299 1409 l 1,6,-1
 422 1409 l 1,7,-1
 422 670 l 1,8,-1
 637 670 l 1,9,-1
 637 563 l 1,10,-1
 80 563 l 1,0,-1
EndSplineSet
EndChar

StartChar: ordmasculine
Encoding: 186 186 122
Width: 748
GlyphClass: 2
Flags: W
LayerCount: 2
Fore
SplineSet
723 1042 m 0,0,1
 723 854 723 854 635 752.5 c 128,-1,2
 547 651 547 651 372 651 c 0,3,4
 204 651 204 651 115.5 751.5 c 128,-1,5
 27 852 27 852 27 1042 c 0,6,7
 27 1133 27 1133 48.5 1205.5 c 128,-1,8
 70 1278 70 1278 113.5 1328.5 c 128,-1,9
 157 1379 157 1379 222.5 1405.5 c 128,-1,10
 288 1432 288 1432 376 1432 c 0,11,12
 469 1432 469 1432 534.5 1405.5 c 128,-1,13
 600 1379 600 1379 642 1329 c 128,-1,14
 684 1279 684 1279 703.5 1206.5 c 128,-1,15
 723 1134 723 1134 723 1042 c 0,0,1
574 1042 m 0,16,17
 574 1125 574 1125 561.5 1180 c 128,-1,18
 549 1235 549 1235 524 1267.5 c 128,-1,19
 499 1300 499 1300 463 1313.5 c 128,-1,20
 427 1327 427 1327 379 1327 c 256,21,22
 331 1327 331 1327 293.5 1313.5 c 128,-1,23
 256 1300 256 1300 230.5 1267 c 128,-1,24
 205 1234 205 1234 192 1179 c 128,-1,25
 179 1124 179 1124 179 1042 c 0,26,27
 179 958 179 958 193 903 c 128,-1,28
 207 848 207 848 232.5 815 c 128,-1,29
 258 782 258 782 293 769 c 128,-1,30
 328 756 328 756 371 756 c 0,31,32
 420 756 420 756 457.5 769 c 128,-1,33
 495 782 495 782 521 815 c 128,-1,34
 547 848 547 848 560.5 903 c 128,-1,35
 574 958 574 958 574 1042 c 0,16,17
EndSplineSet
EndChar

StartChar: guillemotright
Encoding: 187 187 123
Width: 1139
GlyphClass: 2
Flags: W
LayerCount: 2
Fore
SplineSet
718 141 m 1,0,-1
 550 141 l 1,1,-1
 550 170 l 1,2,-1
 888 537 l 1,3,-1
 552 909 l 1,4,-1
 552 940 l 1,5,-1
 718 940 l 1,6,-1
 1056 569 l 1,7,-1
 1056 506 l 1,8,-1
 718 141 l 1,0,-1
253 141 m 1,9,-1
 83 141 l 1,10,-1
 83 170 l 1,11,-1
 421 537 l 1,12,-1
 85 909 l 1,13,-1
 85 940 l 1,14,-1
 253 940 l 1,15,-1
 588 569 l 1,16,-1
 588 506 l 1,17,-1
 253 141 l 1,9,-1
EndSplineSet
EndChar

StartChar: questiondown
Encoding: 191 191 127
Width: 1251
GlyphClass: 2
Flags: W
LayerCount: 2
Fore
SplineSet
131 50 m 0,0,1
 131 121 131 121 149.5 175 c 128,-1,2
 168 229 168 229 199 271.5 c 128,-1,3
 230 314 230 314 269.5 347.5 c 128,-1,4
 309 381 309 381 350 411 c 128,-1,5
 391 441 391 441 430.5 470 c 128,-1,6
 470 499 470 499 501.5 533 c 128,-1,7
 533 567 533 567 552.5 608.5 c 128,-1,8
 572 650 572 650 573 705 c 1,9,-1
 748 705 l 1,10,11
 746 636 746 636 726.5 584 c 128,-1,12
 707 532 707 532 676 492 c 128,-1,13
 645 452 645 452 606 420.5 c 128,-1,14
 567 389 567 389 527 360.5 c 128,-1,15
 487 332 487 332 448.5 303.5 c 128,-1,16
 410 275 410 275 380 240 c 128,-1,17
 350 205 350 205 331.5 161 c 128,-1,18
 313 117 313 117 313 58 c 256,19,20
 313 -1 313 -1 334 -47 c 128,-1,21
 355 -93 355 -93 393.5 -124.5 c 128,-1,22
 432 -156 432 -156 486.5 -172 c 128,-1,23
 541 -188 541 -188 608 -188 c 0,24,25
 748 -188 748 -188 830 -118 c 128,-1,26
 912 -48 912 -48 926 74 c 1,27,-1
 1110 62 l 1,28,29
 1099 -22 1099 -22 1065.5 -96.5 c 128,-1,30
 1032 -171 1032 -171 971.5 -227 c 128,-1,31
 911 -283 911 -283 821.5 -315.5 c 128,-1,32
 732 -348 732 -348 610 -348 c 0,33,34
 496 -348 496 -348 407 -320 c 128,-1,35
 318 -292 318 -292 256.5 -240.5 c 128,-1,36
 195 -189 195 -189 163 -115.5 c 128,-1,37
 131 -42 131 -42 131 50 c 0,0,1
756 1082 m 1,38,-1
 756 881 l 1,39,-1
 561 881 l 1,40,-1
 561 1082 l 1,41,-1
 756 1082 l 1,38,-1
EndSplineSet
EndChar

StartChar: AE
Encoding: 198 198 134
Width: 2048
GlyphClass: 2
Flags: W
LayerCount: 2
Fore
SplineSet
969 0 m 1,0,-1
 969 412 l 1,1,-1
 421 412 l 1,2,-1
 223 0 l 1,3,-1
 24 0 l 1,4,-1
 710 1409 l 1,5,-1
 1919 1409 l 1,6,-1
 1919 1253 l 1,7,-1
 1160 1253 l 1,8,-1
 1160 801 l 1,9,-1
 1859 801 l 1,10,-1
 1859 647 l 1,11,-1
 1160 647 l 1,12,-1
 1160 156 l 1,13,-1
 1960 156 l 1,14,-1
 1960 0 l 1,15,-1
 969 0 l 1,0,-1
969 1262 m 1,16,-1
 818 1262 l 1,17,18
 817 1259 817 1259 809 1241.5 c 128,-1,19
 801 1224 801 1224 790 1199 c 128,-1,20
 779 1174 779 1174 765.5 1145 c 128,-1,21
 752 1116 752 1116 740 1090.5 c 128,-1,22
 728 1065 728 1065 719 1046 c 128,-1,23
 710 1027 710 1027 708 1022 c 2,24,-1
 491 561 l 1,25,-1
 969 561 l 1,26,-1
 969 1262 l 1,16,-1
EndSplineSet
EndChar

StartChar: Eth
Encoding: 208 208 144
Width: 1479
GlyphClass: 2
Flags: W
LayerCount: 2
Fore
SplineSet
14 801 m 1,0,-1
 168 801 l 1,1,-1
 168 1409 l 1,2,-1
 634 1409 l 2,3,4
 797 1409 797 1409 934.5 1368.5 c 128,-1,5
 1072 1328 1072 1328 1171 1243.5 c 128,-1,6
 1270 1159 1270 1159 1325.5 1029 c 128,-1,7
 1381 899 1381 899 1381 719 c 0,8,9
 1381 543 1381 543 1328 408.5 c 128,-1,10
 1275 274 1275 274 1183 183.5 c 128,-1,11
 1091 93 1091 93 965.5 46.5 c 128,-1,12
 840 0 840 0 695 0 c 2,13,-1
 168 0 l 1,14,-1
 168 647 l 1,15,-1
 14 647 l 1,16,-1
 14 801 l 1,0,-1
1189 719 m 0,17,18
 1189 862 1189 862 1148 963.5 c 128,-1,19
 1107 1065 1107 1065 1033 1130 c 128,-1,20
 959 1195 959 1195 856 1225.5 c 128,-1,21
 753 1256 753 1256 630 1256 c 2,22,-1
 359 1256 l 1,23,-1
 359 801 l 1,24,-1
 765 801 l 1,25,-1
 765 647 l 1,26,-1
 359 647 l 1,27,-1
 359 153 l 1,28,-1
 673 153 l 2,29,30
 784 153 784 153 878.5 189 c 128,-1,31
 973 225 973 225 1042 296 c 128,-1,32
 1111 367 1111 367 1150 473 c 128,-1,33
 1189 579 1189 579 1189 719 c 0,17,18
EndSplineSet
EndChar

StartChar: multiply
Encoding: 215 215 151
Width: 1196
GlyphClass: 2
Flags: W
LayerCount: 2
Fore
SplineSet
142 330 m 1,0,-1
 496 684 l 1,1,-1
 144 1036 l 1,2,-1
 248 1139 l 1,3,-1
 598 786 l 1,4,-1
 948 1137 l 1,5,-1
 1053 1032 l 1,6,-1
 703 684 l 1,7,-1
 1055 332 l 1,8,-1
 953 227 l 1,9,-1
 600 580 l 1,10,-1
 244 225 l 1,11,-1
 142 330 l 1,0,-1
EndSplineSet
EndChar

StartChar: Oslash
Encoding: 216 216 152
Width: 1593
GlyphClass: 2
Flags: W
LayerCount: 2
Fore
SplineSet
1495 711 m 0,0,1
 1495 546 1495 546 1447.5 411 c 128,-1,2
 1400 276 1400 276 1310 180 c 128,-1,3
 1220 84 1220 84 1090 32 c 128,-1,4
 960 -20 960 -20 795 -20 c 0,5,6
 668 -20 668 -20 565 9 c 128,-1,7
 462 38 462 38 381 92 c 1,8,-1
 261 -53 l 1,9,-1
 71 -53 l 1,10,-1
 271 188 l 1,11,12
 183 285 183 285 140 418 c 128,-1,13
 97 551 97 551 97 711 c 0,14,15
 97 876 97 876 143 1009 c 128,-1,16
 189 1142 189 1142 278 1235.5 c 128,-1,17
 367 1329 367 1329 497.5 1379.5 c 128,-1,18
 628 1430 628 1430 797 1430 c 0,19,20
 922 1430 922 1430 1025.5 1402 c 128,-1,21
 1129 1374 1129 1374 1211 1320 c 1,22,-1
 1332 1466 l 1,23,-1
 1524 1466 l 1,24,-1
 1323 1224 l 1,25,26
 1408 1130 1408 1130 1451.5 1000.5 c 128,-1,27
 1495 871 1495 871 1495 711 c 0,0,1
1300 711 m 0,28,29
 1300 823 1300 823 1275.5 915 c 128,-1,30
 1251 1007 1251 1007 1202 1079 c 1,31,-1
 493 226 l 1,32,33
 552 182 552 182 627 158.5 c 128,-1,34
 702 135 702 135 795 135 c 0,35,36
 927 135 927 135 1022.5 178 c 128,-1,37
 1118 221 1118 221 1179.5 297.5 c 128,-1,38
 1241 374 1241 374 1270.5 480 c 128,-1,39
 1300 586 1300 586 1300 711 c 0,28,29
291 711 m 0,40,41
 291 598 291 598 316 503 c 128,-1,42
 341 408 341 408 392 333 c 1,43,-1
 1099 1186 l 1,44,45
 1040 1228 1040 1228 964.5 1251 c 128,-1,46
 889 1274 889 1274 797 1274 c 0,47,48
 671 1274 671 1274 576 1234 c 128,-1,49
 481 1194 481 1194 417.5 1120 c 128,-1,50
 354 1046 354 1046 322.5 942 c 128,-1,51
 291 838 291 838 291 711 c 0,40,41
EndSplineSet
EndChar

StartChar: Thorn
Encoding: 222 222 158
Width: 1366
GlyphClass: 2
Flags: W
LayerCount: 2
Fore
SplineSet
1258 735 m 0,0,1
 1258 647 1258 647 1228.5 567.5 c 128,-1,2
 1199 488 1199 488 1138.5 428 c 128,-1,3
 1078 368 1078 368 987 332.5 c 128,-1,4
 896 297 896 297 773 297 c 2,5,-1
 359 297 l 1,6,-1
 359 0 l 1,7,-1
 168 0 l 1,8,-1
 168 1409 l 1,9,-1
 359 1409 l 1,10,-1
 359 1157 l 1,11,-1
 761 1157 l 2,12,13
 886 1157 886 1157 979 1127 c 128,-1,14
 1072 1097 1072 1097 1134 1041.5 c 128,-1,15
 1196 986 1196 986 1227 908 c 128,-1,16
 1258 830 1258 830 1258 735 c 0,0,1
1066 731 m 0,17,18
 1066 865 1066 865 984 939.5 c 128,-1,19
 902 1014 902 1014 738 1014 c 2,20,-1
 359 1014 l 1,21,-1
 359 438 l 1,22,-1
 746 438 l 2,23,24
 828 438 828 438 888.5 460 c 128,-1,25
 949 482 949 482 988.5 521.5 c 128,-1,26
 1028 561 1028 561 1047 614.5 c 128,-1,27
 1066 668 1066 668 1066 731 c 0,17,18
EndSplineSet
EndChar

StartChar: germandbls
Encoding: 223 223 159
Width: 1251
GlyphClass: 2
Flags: W
LayerCount: 2
Fore
SplineSet
1167 295 m 0,0,1
 1167 229 1167 229 1146.5 171.5 c 128,-1,2
 1126 114 1126 114 1082.5 71.5 c 128,-1,3
 1039 29 1039 29 971 4.5 c 128,-1,4
 903 -20 903 -20 809 -20 c 0,5,6
 729 -20 729 -20 655 -7.5 c 128,-1,7
 581 5 581 5 526 29 c 1,8,-1
 524 193 l 1,9,10
 549 179 549 179 582.5 166.5 c 128,-1,11
 616 154 616 154 653 144.5 c 128,-1,12
 690 135 690 135 729 129.5 c 128,-1,13
 768 124 768 124 805 124 c 0,14,15
 897 124 897 124 946 167 c 128,-1,16
 995 210 995 210 995 289 c 0,17,18
 995 345 995 345 968 383.5 c 128,-1,19
 941 422 941 422 900.5 453 c 128,-1,20
 860 484 860 484 812.5 512.5 c 128,-1,21
 765 541 765 541 724.5 577.5 c 128,-1,22
 684 614 684 614 657 663 c 128,-1,23
 630 712 630 712 630 785 c 0,24,25
 630 836 630 836 646.5 872.5 c 128,-1,26
 663 909 663 909 687.5 938 c 128,-1,27
 712 967 712 967 741 991 c 128,-1,28
 770 1015 770 1015 794.5 1041 c 128,-1,29
 819 1067 819 1067 835.5 1098.5 c 128,-1,30
 852 1130 852 1130 852 1173 c 0,31,32
 852 1210 852 1210 835.5 1241 c 128,-1,33
 819 1272 819 1272 787.5 1294.5 c 128,-1,34
 756 1317 756 1317 711 1330 c 128,-1,35
 666 1343 666 1343 609 1343 c 0,36,37
 541 1343 541 1343 487.5 1325.5 c 128,-1,38
 434 1308 434 1308 397.5 1269.5 c 128,-1,39
 361 1231 361 1231 341.5 1170 c 128,-1,40
 322 1109 322 1109 322 1021 c 2,41,-1
 322 0 l 1,42,-1
 142 0 l 1,43,-1
 142 1027 l 2,44,45
 142 1145 142 1145 173.5 1231.5 c 128,-1,46
 205 1318 205 1318 265 1374 c 128,-1,47
 325 1430 325 1430 412 1457 c 128,-1,48
 499 1484 499 1484 609 1484 c 0,49,50
 711 1484 711 1484 788.5 1461 c 128,-1,51
 866 1438 866 1438 918.5 1398 c 128,-1,52
 971 1358 971 1358 997.5 1303.5 c 128,-1,53
 1024 1249 1024 1249 1024 1187 c 0,54,55
 1024 1126 1024 1126 1007.5 1081 c 128,-1,56
 991 1036 991 1036 965.5 1001.5 c 128,-1,57
 940 967 940 967 911 940.5 c 128,-1,58
 882 914 882 914 856.5 890.5 c 128,-1,59
 831 867 831 867 814.5 843 c 128,-1,60
 798 819 798 819 798 791 c 0,61,62
 798 753 798 753 825.5 723.5 c 128,-1,63
 853 694 853 694 894 665.5 c 128,-1,64
 935 637 935 637 982.5 605 c 128,-1,65
 1030 573 1030 573 1071 530.5 c 128,-1,66
 1112 488 1112 488 1139.5 431 c 128,-1,67
 1167 374 1167 374 1167 295 c 0,0,1
EndSplineSet
EndChar

StartChar: ae
Encoding: 230 230 166
Width: 1821
GlyphClass: 2
Flags: W
LayerCount: 2
Fore
SplineSet
968 503 m 1,0,-1
 968 486 l 1,1,2
 969 404 969 404 986 336 c 128,-1,3
 1003 268 1003 268 1038 219 c 128,-1,4
 1073 170 1073 170 1127.5 142.5 c 128,-1,5
 1182 115 1182 115 1260 115 c 0,6,7
 1377 115 1377 115 1447.5 162 c 128,-1,8
 1518 209 1518 209 1543 281 c 1,9,-1
 1701 236 l 1,10,11
 1684 191 1684 191 1653.5 145.5 c 128,-1,12
 1623 100 1623 100 1572 63.5 c 128,-1,13
 1521 27 1521 27 1444.5 3.5 c 128,-1,14
 1368 -20 1368 -20 1260 -20 c 0,15,16
 939 -20 939 -20 837 237 c 1,17,18
 808 186 808 186 771 139.5 c 128,-1,19
 734 93 734 93 683 57.5 c 128,-1,20
 632 22 632 22 563.5 1 c 128,-1,21
 495 -20 495 -20 402 -20 c 0,22,23
 235 -20 235 -20 150.5 66 c 128,-1,24
 66 152 66 152 66 302 c 0,25,26
 66 373 66 373 85 427 c 128,-1,27
 104 481 104 481 137.5 520 c 128,-1,28
 171 559 171 559 216.5 584.5 c 128,-1,29
 262 610 262 610 315.5 626 c 128,-1,30
 369 642 369 642 427.5 648.5 c 128,-1,31
 486 655 486 655 546 656 c 2,32,-1
 786 660 l 1,33,-1
 786 719 l 2,34,35
 786 786 786 786 773 833 c 128,-1,36
 760 880 760 880 731.5 909 c 128,-1,37
 703 938 703 938 659 951.5 c 128,-1,38
 615 965 615 965 554 965 c 0,39,40
 500 965 500 965 456 957.5 c 128,-1,41
 412 950 412 950 380 930.5 c 128,-1,42
 348 911 348 911 328.5 877.5 c 128,-1,43
 309 844 309 844 302 793 c 1,44,-1
 114 810 l 1,45,46
 124 874 124 874 153 927.5 c 128,-1,47
 182 981 182 981 234.5 1020 c 128,-1,48
 287 1059 287 1059 366.5 1080.5 c 128,-1,49
 446 1102 446 1102 558 1102 c 0,50,51
 686 1102 686 1102 772 1067 c 128,-1,52
 858 1032 858 1032 907 963 c 1,53,54
 970 1037 970 1037 1058.5 1069.5 c 128,-1,55
 1147 1102 1147 1102 1253 1102 c 0,56,57
 1389 1102 1389 1102 1480.5 1058 c 128,-1,58
 1572 1014 1572 1014 1627.5 936.5 c 128,-1,59
 1683 859 1683 859 1706.5 754 c 128,-1,60
 1730 649 1730 649 1730 527 c 2,61,-1
 1730 503 l 1,62,-1
 968 503 l 1,0,-1
786 534 m 1,63,-1
 591 530 l 2,64,65
 551 529 551 529 510.5 526 c 128,-1,66
 470 523 470 523 432 514 c 128,-1,67
 394 505 394 505 361 489.5 c 128,-1,68
 328 474 328 474 303.5 448.5 c 128,-1,69
 279 423 279 423 265 386.5 c 128,-1,70
 251 350 251 350 251 299 c 0,71,72
 251 212 251 212 301 163.5 c 128,-1,73
 351 115 351 115 444 115 c 0,74,75
 534 115 534 115 598.5 146.5 c 128,-1,76
 663 178 663 178 704.5 227 c 128,-1,77
 746 276 746 276 766 334 c 128,-1,78
 786 392 786 392 786 445 c 2,79,-1
 786 534 l 1,63,-1
1544 641 m 1,80,81
 1529 812 1529 812 1457 890.5 c 128,-1,82
 1385 969 1385 969 1250 969 c 0,83,84
 1205 969 1205 969 1157 954.5 c 128,-1,85
 1109 940 1109 940 1068.5 903 c 128,-1,86
 1028 866 1028 866 1001 802.5 c 128,-1,87
 974 739 974 739 970 641 c 1,88,-1
 1544 641 l 1,80,81
EndSplineSet
EndChar

StartChar: eth
Encoding: 240 240 176
Width: 1139
GlyphClass: 2
Flags: W
LayerCount: 2
Fore
SplineSet
566 -20 m 0,0,1
 441 -20 441 -20 350.5 16.5 c 128,-1,2
 260 53 260 53 201 119 c 128,-1,3
 142 185 142 185 114 277.5 c 128,-1,4
 86 370 86 370 86 481 c 0,5,6
 86 588 86 588 112 679 c 128,-1,7
 138 770 138 770 196 837 c 128,-1,8
 254 904 254 904 347 941.5 c 128,-1,9
 440 979 440 979 573 979 c 0,10,11
 644 979 644 979 702.5 963 c 128,-1,12
 761 947 761 947 804 920 c 1,13,14
 761 1006 761 1006 703.5 1094 c 128,-1,15
 646 1182 646 1182 570 1251 c 1,16,-1
 269 1118 l 1,17,-1
 269 1232 l 1,18,-1
 487 1326 l 1,19,20
 431 1371 431 1371 371 1410 c 128,-1,21
 311 1449 311 1449 245 1484 c 1,22,-1
 454 1484 l 1,23,24
 499 1464 499 1464 540.5 1438.5 c 128,-1,25
 582 1413 582 1413 624 1382 c 1,26,-1
 930 1514 l 1,27,-1
 929 1402 l 1,28,-1
 718 1310 l 1,29,30
 799 1236 799 1236 863.5 1148 c 128,-1,31
 928 1060 928 1060 972 960 c 128,-1,32
 1016 860 1016 860 1039.5 748.5 c 128,-1,33
 1063 637 1063 637 1063 516 c 2,34,-1
 1063 510 l 2,35,36
 1063 388 1063 388 1034.5 290 c 128,-1,37
 1006 192 1006 192 946 123 c 128,-1,38
 886 54 886 54 792 17 c 128,-1,39
 698 -20 698 -20 566 -20 c 0,0,1
874 481 m 0,40,41
 874 575 874 575 857.5 643.5 c 128,-1,42
 841 712 841 712 805.5 757 c 128,-1,43
 770 802 770 802 713.5 824 c 128,-1,44
 657 846 657 846 577 846 c 0,45,46
 496 846 496 846 438.5 823.5 c 128,-1,47
 381 801 381 801 344.5 755 c 128,-1,48
 308 709 308 709 291.5 640.5 c 128,-1,49
 275 572 275 572 275 481 c 0,50,51
 275 291 275 291 347 202 c 128,-1,52
 419 113 419 113 564 113 c 0,53,54
 645 113 645 113 704 135 c 128,-1,55
 763 157 763 157 800.5 202 c 128,-1,56
 838 247 838 247 856 316.5 c 128,-1,57
 874 386 874 386 874 481 c 0,40,41
EndSplineSet
EndChar

StartChar: divide
Encoding: 247 247 183
Width: 1124
GlyphClass: 2
Flags: W
LayerCount: 2
Fore
SplineSet
478 958 m 1,0,-1
 478 1141 l 1,1,-1
 646 1141 l 1,2,-1
 646 958 l 1,3,-1
 478 958 l 1,0,-1
65 608 m 1,4,-1
 65 754 l 1,5,-1
 1060 754 l 1,6,-1
 1060 608 l 1,7,-1
 65 608 l 1,4,-1
478 223 m 1,8,-1
 478 406 l 1,9,-1
 646 406 l 1,10,-1
 646 223 l 1,11,-1
 478 223 l 1,8,-1
EndSplineSet
EndChar

StartChar: oslash
Encoding: 248 248 184
Width: 1251
GlyphClass: 2
Flags: W
LayerCount: 2
Fore
SplineSet
1112 542 m 0,0,1
 1112 258 1112 258 987 119 c 128,-1,2
 862 -20 862 -20 624 -20 c 0,3,4
 527 -20 527 -20 449 4 c 128,-1,5
 371 28 371 28 311 78 c 1,6,-1
 211 -38 l 1,7,-1
 44 -38 l 1,8,-1
 228 176 l 1,9,10
 187 244 187 244 166 335 c 128,-1,11
 145 426 145 426 145 542 c 0,12,13
 145 1102 145 1102 630 1102 c 0,14,15
 733 1102 733 1102 811 1079 c 128,-1,16
 889 1056 889 1056 946 1011 c 1,17,-1
 1037 1116 l 1,18,-1
 1204 1116 l 1,19,-1
 1031 915 l 1,20,21
 1073 846 1073 846 1092.5 753.5 c 128,-1,22
 1112 661 1112 661 1112 542 c 0,0,1
923 542 m 0,23,24
 923 610 923 610 917 664.5 c 128,-1,25
 911 719 911 719 900 763 c 1,26,-1
 417 201 l 1,27,28
 455 152 455 152 507.5 132.5 c 128,-1,29
 560 113 560 113 622 113 c 0,30,31
 691 113 691 113 747 132.5 c 128,-1,32
 803 152 803 152 842 201 c 128,-1,33
 881 250 881 250 902 333 c 128,-1,34
 923 416 923 416 923 542 c 0,23,24
334 542 m 0,35,36
 334 412 334 412 358 327 c 1,37,-1
 840 888 l 1,38,39
 803 933 803 933 751 951 c 128,-1,40
 699 969 699 969 633 969 c 0,41,42
 564 969 564 969 508.5 948.5 c 128,-1,43
 453 928 453 928 414 878.5 c 128,-1,44
 375 829 375 829 354.5 747 c 128,-1,45
 334 665 334 665 334 542 c 0,35,36
EndSplineSet
EndChar

StartChar: thorn
Encoding: 254 254 190
Width: 1139
GlyphClass: 2
Flags: W
LayerCount: 2
Fore
SplineSet
138 1484 m 1,0,-1
 318 1484 l 1,1,-1
 318 1061 l 2,2,3
 318 1031 318 1031 317.5 1003.5 c 128,-1,4
 317 976 317 976 316 955 c 0,5,6
 315 930 315 930 314 908 c 1,7,-1
 320 908 l 1,8,9
 345 960 345 960 377 996.5 c 128,-1,10
 409 1033 409 1033 450 1056.5 c 128,-1,11
 491 1080 491 1080 541.5 1090.5 c 128,-1,12
 592 1101 592 1101 655 1101 c 0,13,14
 767 1101 767 1101 843.5 1061 c 128,-1,15
 920 1021 920 1021 966.5 948.5 c 128,-1,16
 1013 876 1013 876 1033 773.5 c 128,-1,17
 1053 671 1053 671 1053 546 c 0,18,19
 1053 423 1053 423 1033 319 c 128,-1,20
 1013 215 1013 215 966.5 140 c 128,-1,21
 920 65 920 65 843.5 22.5 c 128,-1,22
 767 -20 767 -20 655 -20 c 0,23,24
 539 -20 539 -20 452 24 c 128,-1,25
 365 68 365 68 319 168 c 1,26,-1
 314 168 l 1,27,28
 315 166 315 166 315.5 150 c 128,-1,29
 316 134 316 134 316.5 110 c 128,-1,30
 317 86 317 86 317.5 56.5 c 128,-1,31
 318 27 318 27 318 -2 c 2,32,-1
 318 -425 l 1,33,-1
 138 -425 l 1,34,-1
 138 1484 l 1,0,-1
864 542 m 0,35,36
 864 642 864 642 852 720 c 128,-1,37
 840 798 840 798 810.5 852 c 128,-1,38
 781 906 781 906 732 934 c 128,-1,39
 683 962 683 962 609 962 c 0,40,41
 549 962 549 962 496 945 c 128,-1,42
 443 928 443 928 403.5 880 c 128,-1,43
 364 832 364 832 341 747.5 c 128,-1,44
 318 663 318 663 318 528 c 0,45,46
 318 413 318 413 337 333.5 c 128,-1,47
 356 254 356 254 392.5 205 c 128,-1,48
 429 156 429 156 483 134.5 c 128,-1,49
 537 113 537 113 607 113 c 0,50,51
 682 113 682 113 731.5 142 c 128,-1,52
 781 171 781 171 810.5 226 c 128,-1,53
 840 281 840 281 852 360.5 c 128,-1,54
 864 440 864 440 864 542 c 0,35,36
EndSplineSet
EndChar

StartChar: dcroat
Encoding: 273 273 209
Width: 1139
GlyphClass: 2
Flags: W
LayerCount: 2
Fore
SplineSet
821 174 m 1,0,1
 771 70 771 70 688.5 25 c 128,-1,2
 606 -20 606 -20 484 -20 c 0,3,4
 279 -20 279 -20 182.5 118 c 128,-1,5
 86 256 86 256 86 536 c 0,6,7
 86 1102 86 1102 484 1102 c 0,8,9
 607 1102 607 1102 689 1057 c 128,-1,10
 771 1012 771 1012 821 914 c 1,11,-1
 823 914 l 1,12,13
 823 924 823 924 822.5 945.5 c 128,-1,14
 822 967 822 967 821.5 990.5 c 128,-1,15
 821 1014 821 1014 821 1035 c 128,-1,16
 821 1056 821 1056 821 1065 c 2,17,-1
 821 1206 l 1,18,-1
 521 1206 l 1,19,-1
 521 1337 l 1,20,-1
 821 1337 l 1,21,-1
 821 1484 l 1,22,-1
 1001 1484 l 1,23,-1
 1001 1337 l 1,24,-1
 1133 1337 l 1,25,-1
 1133 1206 l 1,26,-1
 1001 1206 l 1,27,-1
 1001 223 l 2,28,29
 1001 184 1001 184 1001.5 148 c 128,-1,30
 1002 112 1002 112 1003 82 c 128,-1,31
 1004 52 1004 52 1005 30.5 c 128,-1,32
 1006 9 1006 9 1007 0 c 1,33,-1
 835 0 l 1,34,35
 833 10 833 10 831.5 28.5 c 128,-1,36
 830 47 830 47 828.5 71 c 128,-1,37
 827 95 827 95 826 121.5 c 128,-1,38
 825 148 825 148 825 174 c 1,39,-1
 821 174 l 1,0,1
275 542 m 0,40,41
 275 430 275 430 289 350 c 128,-1,42
 303 270 303 270 334 218.5 c 128,-1,43
 365 167 365 167 413 143 c 128,-1,44
 461 119 461 119 530 119 c 0,45,46
 601 119 601 119 655.5 142 c 128,-1,47
 710 165 710 165 746.5 216.5 c 128,-1,48
 783 268 783 268 802 351 c 128,-1,49
 821 434 821 434 821 554 c 0,50,51
 821 669 821 669 802 748.5 c 128,-1,52
 783 828 783 828 746 877 c 128,-1,53
 709 926 709 926 655.5 947.5 c 128,-1,54
 602 969 602 969 532 969 c 0,55,56
 466 969 466 969 418 946 c 128,-1,57
 370 923 370 923 338 872 c 128,-1,58
 306 821 306 821 290.5 739.5 c 128,-1,59
 275 658 275 658 275 542 c 0,40,41
EndSplineSet
EndChar

StartChar: Hbar
Encoding: 294 294 230
Width: 1479
GlyphClass: 2
Flags: W
LayerCount: 2
Fore
SplineSet
1126 0 m 1,0,-1
 1126 653 l 1,1,-1
 359 653 l 1,2,-1
 359 0 l 1,3,-1
 168 0 l 1,4,-1
 168 1025 l 1,5,-1
 14 1025 l 1,6,-1
 14 1179 l 1,7,-1
 168 1179 l 1,8,-1
 168 1409 l 1,9,-1
 359 1409 l 1,10,-1
 359 1179 l 1,11,-1
 1126 1179 l 1,12,-1
 1126 1409 l 1,13,-1
 1312 1409 l 1,14,-1
 1312 1179 l 1,15,-1
 1465 1179 l 1,16,-1
 1465 1025 l 1,17,-1
 1312 1025 l 1,18,-1
 1312 0 l 1,19,-1
 1126 0 l 1,0,-1
1126 813 m 1,20,-1
 1126 1025 l 1,21,-1
 359 1025 l 1,22,-1
 359 813 l 1,23,-1
 1126 813 l 1,20,-1
EndSplineSet
EndChar

StartChar: hbar
Encoding: 295 295 231
Width: 1139
GlyphClass: 2
Flags: W
LayerCount: 2
Fore
SplineSet
317 857 m 1,0,1
 347 912 347 912 382 950.5 c 128,-1,2
 417 989 417 989 459 1014 c 128,-1,3
 501 1039 501 1039 551 1050.5 c 128,-1,4
 601 1062 601 1062 663 1062 c 0,5,6
 767 1062 767 1062 833.5 1034 c 128,-1,7
 900 1006 900 1006 938.5 955.5 c 128,-1,8
 977 905 977 905 991.5 835 c 128,-1,9
 1006 765 1006 765 1006 681 c 2,10,-1
 1006 0 l 1,11,-1
 825 0 l 1,12,-1
 825 646 l 2,13,14
 825 715 825 715 816.5 767 c 128,-1,15
 808 819 808 819 784 853.5 c 128,-1,16
 760 888 760 888 716 905.5 c 128,-1,17
 672 923 672 923 602 923 c 0,18,19
 538 923 538 923 486.5 900 c 128,-1,20
 435 877 435 877 398.5 835 c 128,-1,21
 362 793 362 793 342 733 c 128,-1,22
 322 673 322 673 322 598 c 2,23,-1
 322 0 l 1,24,-1
 142 0 l 1,25,-1
 142 1206 l 1,26,-1
 10 1206 l 1,27,-1
 10 1337 l 1,28,-1
 142 1337 l 1,29,-1
 142 1484 l 1,30,-1
 322 1484 l 1,31,-1
 322 1337 l 1,32,-1
 622 1337 l 1,33,-1
 622 1206 l 1,34,-1
 322 1206 l 1,35,-1
 322 1058 l 2,36,37
 322 1025 322 1025 321 992 c 128,-1,38
 320 959 320 959 318.5 931 c 128,-1,39
 317 903 317 903 316 883.5 c 128,-1,40
 315 864 315 864 314 857 c 1,41,-1
 317 857 l 1,0,1
EndSplineSet
EndChar

StartChar: dotlessi
Encoding: 305 305 241
Width: 569
GlyphClass: 2
Flags: W
LayerCount: 2
Fore
SplineSet
194 0 m 1,0,-1
 194 1082 l 1,1,-1
 374 1082 l 1,2,-1
 374 0 l 1,3,-1
 194 0 l 1,0,-1
EndSplineSet
EndChar

StartChar: jcircumflex
Encoding: 309 309 245
Width: 455
GlyphClass: 2
Flags: W
LayerCount: 2
Fore
SplineSet
77 -425 m 0,0,1
 43 -425 43 -425 10.5 -423 c 128,-1,2
 -22 -421 -22 -421 -50 -416 c 1,3,-1
 -50 -277 l 1,4,5
 -37 -279 -37 -279 -19 -281 c 128,-1,6
 -1 -283 -1 -283 12 -283 c 0,7,8
 50 -283 50 -283 74.5 -273 c 128,-1,9
 99 -263 99 -263 113 -241.5 c 128,-1,10
 127 -220 127 -220 132 -186.5 c 128,-1,11
 137 -153 137 -153 137 -107 c 2,12,-1
 137 1082 l 1,13,-1
 317 1082 l 1,14,-1
 317 -134 l 2,15,16
 317 -196 317 -196 306.5 -249 c 128,-1,17
 296 -302 296 -302 269 -341 c 128,-1,18
 242 -380 242 -380 195.5 -402.5 c 128,-1,19
 149 -425 149 -425 77 -425 c 0,0,1
559 1221 m 1,20,-1
 559 1201 l 1,21,-1
 454 1201 l 1,22,-1
 235 1370 l 1,23,-1
 233 1370 l 1,24,-1
 1 1201 l 1,25,-1
 -103 1201 l 1,26,-1
 -103 1221 l 1,27,-1
 131 1491 l 1,28,-1
 335 1491 l 1,29,-1
 559 1221 l 1,20,-1
EndSplineSet
EndChar

StartChar: kgreenlandic
Encoding: 312 312 248
Width: 1024
GlyphClass: 2
Flags: W
LayerCount: 2
Fore
SplineSet
816 0 m 1,0,-1
 450 494 l 1,1,-1
 318 386 l 1,2,-1
 318 0 l 1,3,-1
 138 0 l 1,4,-1
 138 1082 l 1,5,-1
 318 1082 l 1,6,-1
 318 557 l 1,7,-1
 793 1082 l 1,8,-1
 1004 1082 l 1,9,-1
 565 617 l 1,10,-1
 1027 0 l 1,11,-1
 816 0 l 1,0,-1
EndSplineSet
EndChar

StartChar: Lslash
Encoding: 321 321 257
Width: 1139
GlyphClass: 2
Flags: W
LayerCount: 2
Fore
SplineSet
616 797 m 1,0,-1
 359 648 l 1,1,-1
 359 156 l 1,2,-1
 1071 156 l 1,3,-1
 1071 0 l 1,4,-1
 168 0 l 1,5,-1
 168 538 l 1,6,-1
 20 453 l 1,7,-1
 20 611 l 1,8,-1
 168 696 l 1,9,-1
 168 1409 l 1,10,-1
 359 1409 l 1,11,-1
 359 806 l 1,12,-1
 616 954 l 1,13,-1
 616 797 l 1,0,-1
EndSplineSet
EndChar

StartChar: lslash
Encoding: 322 322 258
Width: 455
GlyphClass: 2
Flags: W
LayerCount: 2
Fore
SplineSet
138 0 m 1,0,-1
 138 542 l 1,1,-1
 16 474 l 1,2,-1
 16 632 l 1,3,-1
 138 700 l 1,4,-1
 138 1484 l 1,5,-1
 318 1484 l 1,6,-1
 318 804 l 1,7,-1
 442 876 l 1,8,-1
 442 717 l 1,9,-1
 318 646 l 1,10,-1
 318 0 l 1,11,-1
 138 0 l 1,0,-1
EndSplineSet
EndChar

StartChar: Eng
Encoding: 330 330 266
Width: 1481
GlyphClass: 2
Flags: W
LayerCount: 2
Fore
SplineSet
941 -20 m 0,0,1
 885 -20 885 -20 837 -8 c 128,-1,2
 789 4 789 4 749.5 24 c 128,-1,3
 710 44 710 44 678.5 71 c 128,-1,4
 647 98 647 98 623 128 c 1,5,-1
 750 243 l 1,6,7
 787 198 787 198 837 165.5 c 128,-1,8
 887 133 887 133 946 133 c 0,9,10
 1010 133 1010 133 1049 162 c 128,-1,11
 1088 191 1088 191 1108.5 244.5 c 128,-1,12
 1129 298 1129 298 1135.5 374.5 c 128,-1,13
 1142 451 1142 451 1142 546 c 2,14,-1
 1142 868 l 2,15,16
 1142 976 1142 976 1122.5 1053 c 128,-1,17
 1103 1130 1103 1130 1062.5 1179 c 128,-1,18
 1022 1228 1022 1228 958.5 1251 c 128,-1,19
 895 1274 895 1274 808 1274 c 0,20,21
 714 1274 714 1274 632.5 1243 c 128,-1,22
 551 1212 551 1212 490.5 1159.5 c 128,-1,23
 430 1107 430 1107 395 1037.5 c 128,-1,24
 360 968 360 968 360 891 c 2,25,-1
 360 0 l 1,26,-1
 169 0 l 1,27,-1
 169 1092 l 2,28,29
 169 1129 169 1129 168.5 1175 c 128,-1,30
 168 1221 168 1221 167.5 1266 c 128,-1,31
 167 1311 167 1311 166.5 1349 c 128,-1,32
 166 1387 166 1387 165 1409 c 1,33,-1
 349 1409 l 1,34,35
 350 1387 350 1387 351.5 1355.5 c 128,-1,36
 353 1324 353 1324 354 1289.5 c 128,-1,37
 355 1255 355 1255 355.5 1220.5 c 128,-1,38
 356 1186 356 1186 356 1158 c 1,39,-1
 360 1158 l 1,40,41
 394 1219 394 1219 445.5 1269.5 c 128,-1,42
 497 1320 497 1320 562 1355 c 128,-1,43
 627 1390 627 1390 703.5 1409.5 c 128,-1,44
 780 1429 780 1429 866 1429 c 0,45,46
 990 1429 990 1429 1078.5 1397 c 128,-1,47
 1167 1365 1167 1365 1223 1298.5 c 128,-1,48
 1279 1232 1279 1232 1305.5 1130 c 128,-1,49
 1332 1028 1332 1028 1332 889 c 2,50,-1
 1332 542 l 2,51,52
 1332 412 1332 412 1317 308 c 128,-1,53
 1302 204 1302 204 1259 131 c 128,-1,54
 1216 58 1216 58 1140 19 c 128,-1,55
 1064 -20 1064 -20 941 -20 c 0,0,1
EndSplineSet
EndChar

StartChar: eng
Encoding: 331 331 267
Width: 1139
GlyphClass: 2
Flags: W
LayerCount: 2
Fore
SplineSet
769 -425 m 0,0,1
 735 -425 735 -425 702.5 -423 c 128,-1,2
 670 -421 670 -421 642 -416 c 1,3,-1
 642 -277 l 1,4,5
 655 -279 655 -279 673 -281 c 128,-1,6
 691 -283 691 -283 704 -283 c 0,7,8
 742 -283 742 -283 766.5 -273 c 128,-1,9
 791 -263 791 -263 805 -241.5 c 128,-1,10
 819 -220 819 -220 824 -186.5 c 128,-1,11
 829 -153 829 -153 829 -107 c 2,12,-1
 829 686 l 2,13,14
 829 765 829 765 817.5 818 c 128,-1,15
 806 871 806 871 780 903.5 c 128,-1,16
 754 936 754 936 711.5 949.5 c 128,-1,17
 669 963 669 963 606 963 c 0,18,19
 542 963 542 963 490.5 940.5 c 128,-1,20
 439 918 439 918 402.5 875.5 c 128,-1,21
 366 833 366 833 346 770.5 c 128,-1,22
 326 708 326 708 326 627 c 2,23,-1
 326 0 l 1,24,-1
 146 0 l 1,25,-1
 146 851 l 2,26,27
 146 885 146 885 145.5 922.5 c 128,-1,28
 145 960 145 960 144 993.5 c 128,-1,29
 143 1027 143 1027 142 1051 c 128,-1,30
 141 1075 141 1075 140 1082 c 1,31,-1
 310 1082 l 1,32,33
 311 1077 311 1077 312 1055 c 128,-1,34
 313 1033 313 1033 314.5 1004.5 c 128,-1,35
 316 976 316 976 317 946.5 c 128,-1,36
 318 917 318 917 318 897 c 1,37,-1
 321 897 l 1,38,39
 347 944 347 944 378 982 c 128,-1,40
 409 1020 409 1020 450 1046.5 c 128,-1,41
 491 1073 491 1073 544 1087.5 c 128,-1,42
 597 1102 597 1102 667 1102 c 0,43,44
 757 1102 757 1102 822 1080 c 128,-1,45
 887 1058 887 1058 929 1012 c 128,-1,46
 971 966 971 966 990.5 893.5 c 128,-1,47
 1010 821 1010 821 1010 721 c 2,48,-1
 1010 -134 l 2,49,50
 1010 -196 1010 -196 999 -249 c 128,-1,51
 988 -302 988 -302 961 -341 c 128,-1,52
 934 -380 934 -380 887.5 -402.5 c 128,-1,53
 841 -425 841 -425 769 -425 c 0,0,1
EndSplineSet
EndChar

StartChar: OE
Encoding: 338 338 274
Width: 2048
GlyphClass: 2
Flags: W
LayerCount: 2
Fore
SplineSet
999 0 m 1,0,1
 979 -3 979 -3 953.5 -4.5 c 128,-1,2
 928 -6 928 -6 899.5 -7.5 c 128,-1,3
 871 -9 871 -9 842.5 -9.5 c 128,-1,4
 814 -10 814 -10 789 -10 c 0,5,6
 620 -10 620 -10 490.5 43 c 128,-1,7
 361 96 361 96 273.5 191.5 c 128,-1,8
 186 287 186 287 141.5 419.5 c 128,-1,9
 97 552 97 552 97 711 c 0,10,11
 97 876 97 876 144 1007.5 c 128,-1,12
 191 1139 191 1139 280 1230.5 c 128,-1,13
 369 1322 369 1322 498 1371 c 128,-1,14
 627 1420 627 1420 791 1420 c 0,15,16
 817 1420 817 1420 846 1419 c 128,-1,17
 875 1418 875 1418 903.5 1416.5 c 128,-1,18
 932 1415 932 1415 958 1413 c 128,-1,19
 984 1411 984 1411 1003 1409 c 1,20,-1
 1917 1409 l 1,21,-1
 1917 1253 l 1,22,-1
 1114 1253 l 1,23,-1
 1114 801 l 1,24,-1
 1857 801 l 1,25,-1
 1857 647 l 1,26,-1
 1114 647 l 1,27,-1
 1114 156 l 1,28,-1
 1958 156 l 1,29,-1
 1958 0 l 1,30,-1
 999 0 l 1,0,1
789 145 m 0,31,32
 821 145 821 145 859 146 c 128,-1,33
 897 147 897 147 923 149 c 1,34,-1
 923 1260 l 1,35,36
 912 1261 912 1261 896 1262 c 128,-1,37
 880 1263 880 1263 861.5 1263.5 c 128,-1,38
 843 1264 843 1264 824.5 1264 c 128,-1,39
 806 1264 806 1264 791 1264 c 0,40,41
 666 1264 666 1264 572.5 1227 c 128,-1,42
 479 1190 479 1190 416.5 1119 c 128,-1,43
 354 1048 354 1048 322.5 945 c 128,-1,44
 291 842 291 842 291 711 c 0,45,46
 291 582 291 582 323 477.5 c 128,-1,47
 355 373 355 373 418 299 c 128,-1,48
 481 225 481 225 574 185 c 128,-1,49
 667 145 667 145 789 145 c 0,31,32
EndSplineSet
EndChar

StartChar: oe
Encoding: 339 339 275
Width: 1933
GlyphClass: 2
Flags: W
LayerCount: 2
Fore
SplineSet
1070 503 m 1,0,1
 1070 418 1070 418 1087.5 346.5 c 128,-1,2
 1105 275 1105 275 1141.5 223.5 c 128,-1,3
 1178 172 1178 172 1235 143.5 c 128,-1,4
 1292 115 1292 115 1372 115 c 0,5,6
 1489 115 1489 115 1559.5 162 c 128,-1,7
 1630 209 1630 209 1655 281 c 1,8,-1
 1813 236 l 1,9,10
 1796 191 1796 191 1765.5 145.5 c 128,-1,11
 1735 100 1735 100 1684 63.5 c 128,-1,12
 1633 27 1633 27 1556.5 3.5 c 128,-1,13
 1480 -20 1480 -20 1372 -20 c 0,14,15
 1235 -20 1235 -20 1136 25.5 c 128,-1,16
 1037 71 1037 71 976 163 c 1,17,18
 913 70 913 70 812.5 25 c 128,-1,19
 712 -20 712 -20 575 -20 c 0,20,21
 462 -20 462 -20 371.5 14 c 128,-1,22
 281 48 281 48 217.5 118 c 128,-1,23
 154 188 154 188 120 293.5 c 128,-1,24
 86 399 86 399 86 542 c 0,25,26
 86 821 86 821 212.5 961.5 c 128,-1,27
 339 1102 339 1102 581 1102 c 0,28,29
 862 1102 862 1102 979 925 c 1,30,31
 1046 1019 1046 1019 1146 1060.5 c 128,-1,32
 1246 1102 1246 1102 1365 1102 c 0,33,34
 1501 1102 1501 1102 1592.5 1058 c 128,-1,35
 1684 1014 1684 1014 1739.5 936.5 c 128,-1,36
 1795 859 1795 859 1818.5 754 c 128,-1,37
 1842 649 1842 649 1842 527 c 2,38,-1
 1842 503 l 1,39,-1
 1070 503 l 1,0,1
881 542 m 256,40,41
 881 668 881 668 860 750 c 128,-1,42
 839 832 839 832 800.5 881 c 128,-1,43
 762 930 762 930 707 949.5 c 128,-1,44
 652 969 652 969 584 969 c 0,45,46
 515 969 515 969 458 948.5 c 128,-1,47
 401 928 401 928 360.5 878.5 c 128,-1,48
 320 829 320 829 297.5 747 c 128,-1,49
 275 665 275 665 275 542 c 0,50,51
 275 416 275 416 298.5 333.5 c 128,-1,52
 322 251 322 251 362.5 202 c 128,-1,53
 403 153 403 153 457 133 c 128,-1,54
 511 113 511 113 573 113 c 0,55,56
 642 113 642 113 699 132.5 c 128,-1,57
 756 152 756 152 796.5 201 c 128,-1,58
 837 250 837 250 859 333 c 128,-1,59
 881 416 881 416 881 542 c 256,40,41
1656 641 m 1,60,61
 1641 812 1641 812 1569 890.5 c 128,-1,62
 1497 969 1497 969 1362 969 c 0,63,64
 1317 969 1317 969 1267.5 954.5 c 128,-1,65
 1218 940 1218 940 1176 903 c 128,-1,66
 1134 866 1134 866 1105 802.5 c 128,-1,67
 1076 739 1076 739 1072 641 c 1,68,-1
 1656 641 l 1,60,61
EndSplineSet
EndChar

StartChar: Tbar
Encoding: 358 358 294
Width: 1251
GlyphClass: 2
Flags: W
LayerCount: 2
Fore
SplineSet
720 1253 m 1,0,-1
 720 801 l 1,1,-1
 1001 801 l 1,2,-1
 1001 647 l 1,3,-1
 720 647 l 1,4,-1
 720 0 l 1,5,-1
 530 0 l 1,6,-1
 530 647 l 1,7,-1
 251 647 l 1,8,-1
 251 801 l 1,9,-1
 530 801 l 1,10,-1
 530 1253 l 1,11,-1
 46 1253 l 1,12,-1
 46 1409 l 1,13,-1
 1204 1409 l 1,14,-1
 1204 1253 l 1,15,-1
 720 1253 l 1,0,-1
EndSplineSet
EndChar

StartChar: tbar
Encoding: 359 359 295
Width: 569
GlyphClass: 2
Flags: W
LayerCount: 2
Fore
SplineSet
336 516 m 1,0,-1
 336 268 l 2,1,2
 336 190 336 190 361.5 158.5 c 128,-1,3
 387 127 387 127 450 127 c 0,4,5
 476 127 476 127 500.5 131 c 128,-1,6
 525 135 525 135 554 141 c 1,7,-1
 554 8 l 1,8,9
 513 -3 513 -3 470.5 -9.5 c 128,-1,10
 428 -16 428 -16 372 -16 c 0,11,12
 156 -16 156 -16 156 229 c 2,13,-1
 156 516 l 1,14,-1
 31 516 l 1,15,-1
 31 647 l 1,16,-1
 156 647 l 1,17,-1
 156 951 l 1,18,-1
 31 951 l 1,19,-1
 31 1082 l 1,20,-1
 163 1082 l 1,21,-1
 216 1324 l 1,22,-1
 336 1324 l 1,23,-1
 336 1082 l 1,24,-1
 536 1082 l 1,25,-1
 536 951 l 1,26,-1
 336 951 l 1,27,-1
 336 647 l 1,28,-1
 536 647 l 1,29,-1
 536 516 l 1,30,-1
 336 516 l 1,0,-1
EndSplineSet
EndChar

StartChar: longs
Encoding: 383 383 319
Width: 455
GlyphClass: 2
Flags: W
LayerCount: 2
Fore
SplineSet
318 0 m 1,0,-1
 138 0 l 1,1,-1
 138 1204 l 2,2,3
 138 1263 138 1263 149 1313.5 c 128,-1,4
 160 1364 160 1364 189.5 1401.5 c 128,-1,5
 219 1439 219 1439 270 1460.5 c 128,-1,6
 321 1482 321 1482 402 1482 c 0,7,8
 434 1482 434 1482 468.5 1479 c 128,-1,9
 503 1476 503 1476 529 1470 c 1,10,-1
 529 1333 l 1,11,12
 512 1336 512 1336 489.5 1338.5 c 128,-1,13
 467 1341 467 1341 449 1341 c 0,14,15
 409 1341 409 1341 383.5 1330 c 128,-1,16
 358 1319 358 1319 343.5 1298.5 c 128,-1,17
 329 1278 329 1278 323.5 1248 c 128,-1,18
 318 1218 318 1218 318 1179 c 2,19,-1
 318 0 l 1,0,-1
EndSplineSet
EndChar

StartChar: florin
Encoding: 402 402 320
Width: 1139
GlyphClass: 2
Flags: W
LayerCount: 2
Fore
SplineSet
932 1312 m 1,0,1
 915 1317 915 1317 884 1322 c 128,-1,2
 853 1327 853 1327 822 1327 c 256,3,4
 791 1327 791 1327 768 1317.5 c 128,-1,5
 745 1308 745 1308 728.5 1288 c 128,-1,6
 712 1268 712 1268 700 1236 c 128,-1,7
 688 1204 688 1204 679 1159 c 2,8,-1
 653 1022 l 1,9,-1
 864 1022 l 1,10,-1
 839 891 l 1,11,-1
 626 891 l 1,12,-1
 372 -434 l 1,13,-1
 192 -434 l 1,14,-1
 446 891 l 1,15,-1
 294 891 l 1,16,-1
 321 1022 l 1,17,-1
 472 1022 l 1,18,-1
 501 1174 l 2,19,20
 513 1233 513 1233 533 1284 c 128,-1,21
 553 1335 553 1335 588.5 1373 c 128,-1,22
 624 1411 624 1411 678.5 1432.5 c 128,-1,23
 733 1454 733 1454 814 1454 c 0,24,25
 846 1454 846 1454 887 1449 c 128,-1,26
 928 1444 928 1444 963 1434 c 1,27,-1
 932 1312 l 1,0,1
EndSplineSet
EndChar

StartChar: Aringacute
Encoding: 506 506 321
Width: 1366
GlyphClass: 2
Flags: W
LayerCount: 2
Fore
SplineSet
926 1392 m 256,0,1
 926 1347 926 1347 907 1307.5 c 128,-1,2
 888 1268 888 1268 855 1238 c 0,3,4
 839 1223 839 1223 821 1212 c 1,5,-1
 1362 0 l 1,6,-1
 1167 0 l 1,7,-1
 1006 371 l 1,8,-1
 364 371 l 1,9,-1
 202 0 l 1,10,-1
 4 0 l 1,11,-1
 552 1209 l 1,12,13
 531 1221 531 1221 513 1238 c 0,14,15
 480 1268 480 1268 461 1307.5 c 128,-1,16
 442 1347 442 1347 442 1392 c 256,17,18
 442 1437 442 1437 461 1476.5 c 128,-1,19
 480 1516 480 1516 513 1545.5 c 128,-1,20
 546 1575 546 1575 590 1592 c 128,-1,21
 634 1609 634 1609 684 1609 c 256,22,23
 734 1609 734 1609 778 1592 c 128,-1,24
 822 1575 822 1575 855 1545.5 c 128,-1,25
 888 1516 888 1516 907 1476.5 c 128,-1,26
 926 1437 926 1437 926 1392 c 256,0,1
768 923 m 2,27,28
 752 959 752 959 737.5 996 c 128,-1,29
 723 1033 723 1033 712 1063 c 128,-1,30
 701 1093 701 1093 693.5 1113.5 c 128,-1,31
 686 1134 686 1134 685 1138 c 1,32,33
 683 1134 683 1134 676 1113.5 c 128,-1,34
 669 1093 669 1093 657.5 1062 c 128,-1,35
 646 1031 646 1031 631.5 994.5 c 128,-1,36
 617 958 617 958 602 922 c 2,37,-1
 422 505 l 1,38,-1
 949 505 l 1,39,-1
 768 923 l 2,27,28
818 1392 m 0,40,41
 818 1417 818 1417 807.5 1439 c 128,-1,42
 797 1461 797 1461 779 1477.5 c 128,-1,43
 761 1494 761 1494 736.5 1503.5 c 128,-1,44
 712 1513 712 1513 684 1513 c 0,45,46
 655 1513 655 1513 630.5 1503.5 c 128,-1,47
 606 1494 606 1494 588 1477.5 c 128,-1,48
 570 1461 570 1461 559.5 1439 c 128,-1,49
 549 1417 549 1417 549 1392 c 0,50,51
 549 1366 549 1366 559.5 1344 c 128,-1,52
 570 1322 570 1322 588 1304.5 c 128,-1,53
 606 1287 606 1287 630 1277 c 0,54,55
 651 1269 651 1269 675 1268 c 1,56,-1
 684 1268 l 2,57,58
 712 1268 712 1268 736.5 1277.5 c 128,-1,59
 761 1287 761 1287 779 1304.5 c 128,-1,60
 797 1322 797 1322 807.5 1344 c 128,-1,61
 818 1366 818 1366 818 1392 c 0,40,41
571 1657 m 1,62,-1
 571 1673 l 1,63,-1
 788 1854 l 1,64,-1
 995 1854 l 1,65,-1
 995 1831 l 1,66,-1
 685 1657 l 1,67,-1
 571 1657 l 1,62,-1
EndSplineSet
EndChar

StartChar: circumflex
Encoding: 710 710 327
Width: 682
GlyphClass: 2
Flags: W
LayerCount: 2
Fore
SplineSet
662 1221 m 1,0,-1
 662 1201 l 1,1,-1
 557 1201 l 1,2,-1
 338 1370 l 1,3,-1
 336 1370 l 1,4,-1
 104 1201 l 1,5,-1
 0 1201 l 1,6,-1
 0 1221 l 1,7,-1
 234 1491 l 1,8,-1
 438 1491 l 1,9,-1
 662 1221 l 1,0,-1
EndSplineSet
EndChar

StartChar: caron
Encoding: 711 711 328
Width: 682
GlyphClass: 2
Flags: W
LayerCount: 2
Fore
SplineSet
438 1201 m 1,0,-1
 234 1201 l 1,1,-1
 0 1471 l 1,2,-1
 0 1491 l 1,3,-1
 104 1491 l 1,4,-1
 336 1322 l 1,5,-1
 338 1322 l 1,6,-1
 557 1491 l 1,7,-1
 662 1491 l 1,8,-1
 662 1471 l 1,9,-1
 438 1201 l 1,0,-1
EndSplineSet
EndChar

StartChar: uni02C9
Encoding: 713 713 329
Width: 682
GlyphClass: 2
Flags: W
LayerCount: 2
Fore
SplineSet
600 1236 m 1,0,-1
 51 1236 l 1,1,-1
 51 1363 l 1,2,-1
 600 1363 l 1,3,-1
 600 1236 l 1,0,-1
EndSplineSet
EndChar

StartChar: breve
Encoding: 728 728 330
Width: 682
GlyphClass: 2
Flags: W
LayerCount: 2
Fore
SplineSet
297 1201 m 0,0,1
 223 1201 223 1201 165 1226.5 c 128,-1,2
 107 1252 107 1252 65 1294.5 c 128,-1,3
 23 1337 23 1337 -2 1393 c 128,-1,4
 -27 1449 -27 1449 -35 1510 c 1,5,-1
 82 1510 l 1,6,7
 90 1467 90 1467 109.5 1437.5 c 128,-1,8
 129 1408 129 1408 157 1390 c 128,-1,9
 185 1372 185 1372 221 1364.5 c 128,-1,10
 257 1357 257 1357 299 1357 c 256,11,12
 341 1357 341 1357 376.5 1365 c 128,-1,13
 412 1373 412 1373 440 1391 c 128,-1,14
 468 1409 468 1409 487 1438.5 c 128,-1,15
 506 1468 506 1468 514 1510 c 1,16,-1
 631 1510 l 1,17,18
 622 1449 622 1449 597 1393 c 128,-1,19
 572 1337 572 1337 530.5 1294.5 c 128,-1,20
 489 1252 489 1252 431 1226.5 c 128,-1,21
 373 1201 373 1201 297 1201 c 0,0,1
EndSplineSet
EndChar

StartChar: dotaccent
Encoding: 729 729 331
Width: 682
GlyphClass: 2
Flags: W
LayerCount: 2
Fore
SplineSet
156 1312 m 1,0,-1
 156 1484 l 1,1,-1
 336 1484 l 1,2,-1
 336 1312 l 1,3,-1
 156 1312 l 1,0,-1
EndSplineSet
EndChar

StartChar: ring
Encoding: 730 730 332
Width: 682
GlyphClass: 2
Flags: W
LayerCount: 2
Fore
SplineSet
535 1410 m 256,0,1
 535 1360 535 1360 516 1316 c 128,-1,2
 497 1272 497 1272 464 1239 c 128,-1,3
 431 1206 431 1206 387 1187 c 128,-1,4
 343 1168 343 1168 293 1168 c 256,5,6
 243 1168 243 1168 199 1187 c 128,-1,7
 155 1206 155 1206 122 1239 c 128,-1,8
 89 1272 89 1272 70 1316 c 128,-1,9
 51 1360 51 1360 51 1410 c 256,10,11
 51 1460 51 1460 70 1504 c 128,-1,12
 89 1548 89 1548 122 1580.5 c 128,-1,13
 155 1613 155 1613 199 1632 c 128,-1,14
 243 1651 243 1651 293 1651 c 256,15,16
 343 1651 343 1651 387 1632 c 128,-1,17
 431 1613 431 1613 464 1580.5 c 128,-1,18
 497 1548 497 1548 516 1504 c 128,-1,19
 535 1460 535 1460 535 1410 c 256,0,1
427 1410 m 0,20,21
 427 1438 427 1438 416.5 1462.5 c 128,-1,22
 406 1487 406 1487 388 1505 c 128,-1,23
 370 1523 370 1523 345.5 1533.5 c 128,-1,24
 321 1544 321 1544 293 1544 c 0,25,26
 264 1544 264 1544 239.5 1533.5 c 128,-1,27
 215 1523 215 1523 197 1505 c 128,-1,28
 179 1487 179 1487 168.5 1462.5 c 128,-1,29
 158 1438 158 1438 158 1410 c 0,30,31
 158 1381 158 1381 168.5 1356.5 c 128,-1,32
 179 1332 179 1332 197 1313 c 128,-1,33
 215 1294 215 1294 239.5 1283.5 c 128,-1,34
 264 1273 264 1273 293 1273 c 0,35,36
 321 1273 321 1273 345.5 1283.5 c 128,-1,37
 370 1294 370 1294 388 1313 c 128,-1,38
 406 1332 406 1332 416.5 1356.5 c 128,-1,39
 427 1381 427 1381 427 1410 c 0,20,21
EndSplineSet
EndChar

StartChar: ogonek
Encoding: 731 731 333
Width: 682
GlyphClass: 2
Flags: W
LayerCount: 2
Fore
SplineSet
430 -400 m 1,0,1
 402 -412 402 -412 366.5 -419.5 c 128,-1,2
 331 -427 331 -427 291 -427 c 0,3,4
 186 -427 186 -427 133 -376 c 128,-1,5
 80 -325 80 -325 80 -240 c 0,6,7
 80 -193 80 -193 97 -153.5 c 128,-1,8
 114 -114 114 -114 138 -83.5 c 128,-1,9
 162 -53 162 -53 188.5 -32 c 128,-1,10
 215 -11 215 -11 235 0 c 1,11,-1
 368 0 l 1,12,13
 343 -14 343 -14 317 -36.5 c 128,-1,14
 291 -59 291 -59 269.5 -88.5 c 128,-1,15
 248 -118 248 -118 234.5 -153 c 128,-1,16
 221 -188 221 -188 221 -227 c 0,17,18
 221 -269 221 -269 245.5 -293 c 128,-1,19
 270 -317 270 -317 315 -317 c 0,20,21
 344 -317 344 -317 373 -310.5 c 128,-1,22
 402 -304 402 -304 430 -293 c 1,23,-1
 430 -400 l 1,0,1
EndSplineSet
EndChar

StartChar: tilde
Encoding: 732 732 334
Width: 682
GlyphClass: 2
Flags: W
LayerCount: 2
Fore
SplineSet
492 1201 m 0,0,1
 450 1201 450 1201 408 1219.5 c 128,-1,2
 366 1238 366 1238 327 1260.5 c 128,-1,3
 288 1283 288 1283 252.5 1301.5 c 128,-1,4
 217 1320 217 1320 186 1320 c 0,5,6
 131 1320 131 1320 104 1289 c 128,-1,7
 77 1258 77 1258 68 1201 c 1,8,-1
 -23 1201 l 1,9,10
 -18 1246 -18 1246 -8 1293.5 c 128,-1,11
 2 1341 2 1341 24.5 1380 c 128,-1,12
 47 1419 47 1419 84 1444 c 128,-1,13
 121 1469 121 1469 180 1469 c 0,14,15
 224 1469 224 1469 266 1450.5 c 128,-1,16
 308 1432 308 1432 347 1409.5 c 128,-1,17
 386 1387 386 1387 420.5 1368.5 c 128,-1,18
 455 1350 455 1350 485 1350 c 0,19,20
 539 1350 539 1350 566.5 1381.5 c 128,-1,21
 594 1413 594 1413 602 1469 c 1,22,-1
 694 1469 l 1,23,24
 689 1425 689 1425 679 1377.5 c 128,-1,25
 669 1330 669 1330 647.5 1291 c 128,-1,26
 626 1252 626 1252 589 1226.5 c 128,-1,27
 552 1201 552 1201 492 1201 c 0,0,1
EndSplineSet
EndChar

StartChar: hungarumlaut
Encoding: 733 733 335
Width: 682
GlyphClass: 2
Flags: W
LayerCount: 2
Fore
SplineSet
22 1201 m 1,0,-1
 22 1221 l 1,1,-1
 239 1508 l 1,2,-1
 446 1508 l 1,3,-1
 446 1479 l 1,4,-1
 116 1201 l 1,5,-1
 22 1201 l 1,0,-1
369 1201 m 1,6,-1
 369 1221 l 1,7,-1
 586 1508 l 1,8,-1
 793 1508 l 1,9,-1
 793 1479 l 1,10,-1
 463 1201 l 1,11,-1
 369 1201 l 1,6,-1
EndSplineSet
EndChar

StartChar: tonos
Encoding: 900 900 336
Width: 682
GlyphClass: 2
Flags: W
LayerCount: 2
Fore
SplineSet
205 1218 m 1,0,-1
 205 1251 l 1,1,-1
 274 1543 l 1,2,-1
 481 1543 l 1,3,-1
 481 1506 l 1,4,-1
 280 1218 l 1,5,-1
 205 1218 l 1,0,-1
EndSplineSet
EndChar

StartChar: dieresistonos
Encoding: 901 901 337
Width: 682
GlyphClass: 2
Flags: W
LayerCount: 2
Fore
SplineSet
250 1200 m 1,0,-1
 250 1233 l 1,1,-1
 319 1601 l 1,2,-1
 506 1601 l 1,3,-1
 506 1564 l 1,4,-1
 325 1200 l 1,5,-1
 250 1200 l 1,0,-1
29 1231 m 1,6,-1
 29 1403 l 1,7,-1
 179 1403 l 1,8,-1
 179 1231 l 1,9,-1
 29 1231 l 1,6,-1
501 1231 m 1,10,-1
 501 1403 l 1,11,-1
 651 1403 l 1,12,-1
 651 1231 l 1,13,-1
 501 1231 l 1,10,-1
EndSplineSet
EndChar

StartChar: anoteleia
Encoding: 903 903 339
Width: 569
GlyphClass: 2
Flags: W
LayerCount: 2
Fore
SplineSet
187 446 m 1,0,-1
 187 666 l 1,1,-1
 382 666 l 1,2,-1
 382 446 l 1,3,-1
 187 446 l 1,0,-1
EndSplineSet
EndChar

StartChar: Gamma
Encoding: 915 915 349
Width: 1128
GlyphClass: 2
Flags: W
LayerCount: 2
Fore
SplineSet
1071 1410 m 1,0,-1
 1071 1254 l 1,1,-1
 359 1254 l 1,2,-1
 359 1 l 1,3,-1
 168 1 l 1,4,-1
 168 1410 l 1,5,-1
 1071 1410 l 1,0,-1
EndSplineSet
EndChar

StartChar: Delta
Encoding: 916 916 350
Width: 1368
GlyphClass: 2
Flags: W
LayerCount: 2
Fore
SplineSet
62 141 m 1,0,-1
 579 1409 l 1,1,-1
 796 1409 l 1,2,-1
 1306 141 l 1,3,-1
 1306 0 l 1,4,-1
 61 0 l 1,5,-1
 62 141 l 1,0,-1
1106 156 m 1,6,-1
 768 1018 l 2,7,8
 752 1058 752 1058 737.5 1099 c 128,-1,9
 723 1140 723 1140 712 1174.5 c 128,-1,10
 701 1209 701 1209 693.5 1233 c 128,-1,11
 686 1257 686 1257 685 1265 c 1,12,13
 683 1257 683 1257 676 1232.5 c 128,-1,14
 669 1208 669 1208 657.5 1173 c 128,-1,15
 646 1138 646 1138 632 1097 c 128,-1,16
 618 1056 618 1056 602 1016 c 2,17,-1
 263 156 l 1,18,-1
 1106 156 l 1,6,-1
EndSplineSet
EndChar

StartChar: Theta
Encoding: 920 920 354
Width: 1593
GlyphClass: 2
Flags: W
LayerCount: 2
Fore
SplineSet
1495 711 m 0,0,1
 1495 546 1495 546 1447.5 411 c 128,-1,2
 1400 276 1400 276 1310 180 c 128,-1,3
 1220 84 1220 84 1090 32 c 128,-1,4
 960 -20 960 -20 795 -20 c 0,5,6
 621 -20 621 -20 490 34.5 c 128,-1,7
 359 89 359 89 272 186.5 c 128,-1,8
 185 284 185 284 141 418 c 128,-1,9
 97 552 97 552 97 711 c 0,10,11
 97 876 97 876 143 1009 c 128,-1,12
 189 1142 189 1142 278 1235.5 c 128,-1,13
 367 1329 367 1329 497.5 1379.5 c 128,-1,14
 628 1430 628 1430 797 1430 c 0,15,16
 965 1430 965 1430 1095.5 1379 c 128,-1,17
 1226 1328 1226 1328 1314.5 1234 c 128,-1,18
 1403 1140 1403 1140 1449 1007 c 128,-1,19
 1495 874 1495 874 1495 711 c 0,0,1
1300 711 m 0,20,21
 1300 838 1300 838 1267.5 942 c 128,-1,22
 1235 1046 1235 1046 1171.5 1120 c 128,-1,23
 1108 1194 1108 1194 1014 1234 c 128,-1,24
 920 1274 920 1274 797 1274 c 0,25,26
 671 1274 671 1274 576 1234 c 128,-1,27
 481 1194 481 1194 417.5 1120 c 128,-1,28
 354 1046 354 1046 322.5 942 c 128,-1,29
 291 838 291 838 291 711 c 256,30,31
 291 584 291 584 323.5 478.5 c 128,-1,32
 356 373 356 373 419.5 296.5 c 128,-1,33
 483 220 483 220 577.5 177.5 c 128,-1,34
 672 135 672 135 795 135 c 0,35,36
 927 135 927 135 1022.5 178 c 128,-1,37
 1118 221 1118 221 1179.5 297.5 c 128,-1,38
 1241 374 1241 374 1270.5 480 c 128,-1,39
 1300 586 1300 586 1300 711 c 0,20,21
502 794 m 1,40,-1
 1089 794 l 1,41,-1
 1089 634 l 1,42,-1
 502 634 l 1,43,-1
 502 794 l 1,40,-1
EndSplineSet
EndChar

StartChar: Lambda
Encoding: 923 923 357
Width: 1368
GlyphClass: 2
Flags: W
LayerCount: 2
Fore
SplineSet
1358 1 m 1,0,-1
 1157 1 l 1,1,-1
 769 993 l 1,2,3
 752 1040 752 1040 737.5 1084.5 c 128,-1,4
 723 1129 723 1129 711 1164 c 0,5,6
 697 1205 697 1205 685 1242 c 1,7,8
 672 1203 672 1203 658 1162 c 0,9,10
 646 1127 646 1127 631 1082.5 c 128,-1,11
 616 1038 616 1038 601 993 c 1,12,-1
 211 1 l 1,13,-1
 10 1 l 1,14,-1
 585 1410 l 1,15,-1
 783 1410 l 1,16,-1
 1358 1 l 1,0,-1
EndSplineSet
EndChar

StartChar: Xi
Encoding: 926 926 360
Width: 1331
GlyphClass: 2
Flags: W
LayerCount: 2
Fore
SplineSet
125 1409 m 1,0,-1
 1206 1409 l 1,1,-1
 1206 1253 l 1,2,-1
 125 1253 l 1,3,-1
 125 1409 l 1,0,-1
1241 156 m 1,4,-1
 1241 0 l 1,5,-1
 90 0 l 1,6,-1
 90 156 l 1,7,-1
 1241 156 l 1,4,-1
1086 801 m 1,8,-1
 1086 647 l 1,9,-1
 245 647 l 1,10,-1
 245 801 l 1,11,-1
 1086 801 l 1,8,-1
EndSplineSet
EndChar

StartChar: Pi
Encoding: 928 928 362
Width: 1479
GlyphClass: 2
Flags: W
LayerCount: 2
Fore
SplineSet
1121 0 m 1,0,-1
 1121 1248 l 1,1,-1
 359 1248 l 1,2,-1
 359 0 l 1,3,-1
 168 0 l 1,4,-1
 168 1409 l 1,5,-1
 1312 1409 l 1,6,-1
 1312 0 l 1,7,-1
 1121 0 l 1,0,-1
EndSplineSet
EndChar

StartChar: Sigma
Encoding: 931 931 364
Width: 1266
GlyphClass: 2
Flags: W
LayerCount: 2
Fore
SplineSet
108 0 m 1,0,-1
 108 162 l 1,1,-1
 646 741 l 1,2,-1
 125 1248 l 1,3,-1
 125 1409 l 1,4,-1
 1124 1409 l 1,5,-1
 1124 1253 l 1,6,-1
 340 1253 l 1,7,-1
 798 808 l 1,8,-1
 798 684 l 1,9,-1
 308 156 l 1,10,-1
 1185 156 l 1,11,-1
 1185 0 l 1,12,-1
 108 0 l 1,0,-1
EndSplineSet
EndChar

StartChar: Phi
Encoding: 934 934 367
Width: 1634
GlyphClass: 2
Flags: W
LayerCount: 2
Fore
SplineSet
1518 736 m 0,0,1
 1518 631 1518 631 1486 537 c 128,-1,2
 1454 443 1454 443 1388.5 371.5 c 128,-1,3
 1323 300 1323 300 1224.5 258 c 128,-1,4
 1126 216 1126 216 993 216 c 2,5,-1
 910 216 l 1,6,-1
 910 -11 l 1,7,-1
 725 -11 l 1,8,-1
 725 216 l 1,9,-1
 642 216 l 2,10,11
 509 216 509 216 410.5 258 c 128,-1,12
 312 300 312 300 246.5 371.5 c 128,-1,13
 181 443 181 443 149 537 c 128,-1,14
 117 631 117 631 117 736 c 0,15,16
 117 849 117 849 150.5 941.5 c 128,-1,17
 184 1034 184 1034 250.5 1099.5 c 128,-1,18
 317 1165 317 1165 417.5 1201 c 128,-1,19
 518 1237 518 1237 653 1237 c 2,20,-1
 725 1237 l 1,21,-1
 725 1419 l 1,22,-1
 910 1419 l 1,23,-1
 910 1237 l 1,24,-1
 981 1237 l 2,25,26
 1116 1237 1116 1237 1217 1201 c 128,-1,27
 1318 1165 1318 1165 1384.5 1099.5 c 128,-1,28
 1451 1034 1451 1034 1484.5 941.5 c 128,-1,29
 1518 849 1518 849 1518 736 c 0,0,1
1326 732 m 0,30,31
 1326 919 1326 919 1233.5 1009 c 128,-1,32
 1141 1099 1141 1099 958 1099 c 2,33,-1
 910 1099 l 1,34,-1
 910 353 l 1,35,-1
 966 353 l 2,36,37
 1058 353 1058 353 1126 379.5 c 128,-1,38
 1194 406 1194 406 1238.5 455 c 128,-1,39
 1283 504 1283 504 1304.5 574 c 128,-1,40
 1326 644 1326 644 1326 732 c 0,30,31
309 732 m 0,41,42
 309 644 309 644 330.5 574 c 128,-1,43
 352 504 352 504 396.5 455 c 128,-1,44
 441 406 441 406 509 379.5 c 128,-1,45
 577 353 577 353 669 353 c 2,46,-1
 725 353 l 1,47,-1
 725 1099 l 1,48,-1
 673 1099 l 2,49,50
 491 1099 491 1099 400 1009 c 128,-1,51
 309 919 309 919 309 732 c 0,41,42
EndSplineSet
EndChar

StartChar: Psi
Encoding: 936 936 369
Width: 1711
GlyphClass: 2
Flags: W
LayerCount: 2
Fore
SplineSet
763 0 m 1,0,-1
 763 427 l 1,1,-1
 680 427 l 2,2,3
 547 427 547 427 446.5 469 c 128,-1,4
 346 511 346 511 279 582 c 128,-1,5
 212 653 212 653 178.5 747.5 c 128,-1,6
 145 842 145 842 145 946 c 2,7,-1
 145 1409 l 1,8,-1
 336 1409 l 1,9,-1
 336 942 l 2,10,11
 336 862 336 862 359.5 793.5 c 128,-1,12
 383 725 383 725 429.5 675 c 128,-1,13
 476 625 476 625 545.5 596.5 c 128,-1,14
 615 568 615 568 707 568 c 2,15,-1
 763 568 l 1,16,-1
 763 1409 l 1,17,-1
 948 1409 l 1,18,-1
 948 568 l 1,19,-1
 1004 568 l 2,20,21
 1099 568 1099 568 1169 596.5 c 128,-1,22
 1239 625 1239 625 1284.5 675 c 128,-1,23
 1330 725 1330 725 1352.5 793.5 c 128,-1,24
 1375 862 1375 862 1375 942 c 2,25,-1
 1375 1409 l 1,26,-1
 1566 1409 l 1,27,-1
 1566 946 l 2,28,29
 1566 842 1566 842 1532 747.5 c 128,-1,30
 1498 653 1498 653 1431 582 c 128,-1,31
 1364 511 1364 511 1263.5 469 c 128,-1,32
 1163 427 1163 427 1031 427 c 2,33,-1
 948 427 l 1,34,-1
 948 0 l 1,35,-1
 763 0 l 1,0,-1
EndSplineSet
EndChar

StartChar: Omega
Encoding: 937 937 370
Width: 1531
GlyphClass: 2
Flags: W
LayerCount: 2
Fore
SplineSet
765 1430 m 256,0,1
 916 1430 916 1430 1036.5 1387 c 128,-1,2
 1157 1344 1157 1344 1241 1263 c 128,-1,3
 1325 1182 1325 1182 1370 1065 c 128,-1,4
 1415 948 1415 948 1415 801 c 0,5,6
 1415 695 1415 695 1385.5 599.5 c 128,-1,7
 1356 504 1356 504 1301.5 420.5 c 128,-1,8
 1247 337 1247 337 1168.5 268 c 128,-1,9
 1090 199 1090 199 991 145 c 1,10,11
 1033 147 1033 147 1072 150 c 0,12,13
 1105 152 1105 152 1140.5 154 c 128,-1,14
 1176 156 1176 156 1199 156 c 2,15,-1
 1443 156 l 1,16,-1
 1443 0 l 1,17,-1
 854 0 l 1,18,-1
 854 224 l 1,19,20
 950 275 950 275 1019.5 338 c 128,-1,21
 1089 401 1089 401 1133.5 472.5 c 128,-1,22
 1178 544 1178 544 1199 623.5 c 128,-1,23
 1220 703 1220 703 1220 788 c 0,24,25
 1220 904 1220 904 1189.5 994.5 c 128,-1,26
 1159 1085 1159 1085 1101 1147 c 128,-1,27
 1043 1209 1043 1209 958.5 1241.5 c 128,-1,28
 874 1274 874 1274 766 1274 c 0,29,30
 657 1274 657 1274 572 1241.5 c 128,-1,31
 487 1209 487 1209 429 1147 c 128,-1,32
 371 1085 371 1085 340.5 994.5 c 128,-1,33
 310 904 310 904 310 788 c 0,34,35
 310 703 310 703 331 623.5 c 128,-1,36
 352 544 352 544 396.5 472.5 c 128,-1,37
 441 401 441 401 510.5 338 c 128,-1,38
 580 275 580 275 676 224 c 1,39,-1
 676 0 l 1,40,-1
 87 0 l 1,41,-1
 87 156 l 1,42,-1
 331 156 l 2,43,44
 354 156 354 156 389.5 154 c 128,-1,45
 425 152 425 152 458 150 c 0,46,47
 497 147 497 147 539 145 c 1,48,49
 440 199 440 199 361.5 268 c 128,-1,50
 283 337 283 337 228.5 420.5 c 128,-1,51
 174 504 174 504 144.5 599.5 c 128,-1,52
 115 695 115 695 115 801 c 0,53,54
 115 948 115 948 160 1065 c 128,-1,55
 205 1182 205 1182 289 1263 c 128,-1,56
 373 1344 373 1344 493.5 1387 c 128,-1,57
 614 1430 614 1430 765 1430 c 256,0,1
EndSplineSet
EndChar

StartChar: Upsilondieresis
Encoding: 939 939 372
Width: 1366
GlyphClass: 2
Flags: W
LayerCount: 2
Fore
SplineSet
777 584 m 1,0,-1
 777 0 l 1,1,-1
 587 0 l 1,2,-1
 589 584 l 1,3,-1
 45 1409 l 1,4,-1
 250 1409 l 1,5,-1
 684 738 l 1,6,-1
 1116 1409 l 1,7,-1
 1321 1409 l 1,8,-1
 777 584 l 1,0,-1
802 1530 m 1,9,-1
 802 1714 l 1,10,-1
 965 1714 l 1,11,-1
 965 1530 l 1,12,-1
 802 1530 l 1,9,-1
408 1530 m 1,13,-1
 408 1714 l 1,14,-1
 573 1714 l 1,15,-1
 573 1530 l 1,16,-1
 408 1530 l 1,13,-1
EndSplineSet
EndChar

StartChar: alpha
Encoding: 945 945 378
Width: 1184
GlyphClass: 2
Flags: W
LayerCount: 2
Fore
SplineSet
843 237 m 1,0,1
 817 181 817 181 784.5 134 c 128,-1,2
 752 87 752 87 708.5 52.5 c 128,-1,3
 665 18 665 18 609.5 -1 c 128,-1,4
 554 -20 554 -20 484 -20 c 0,5,6
 279 -20 279 -20 182.5 118 c 128,-1,7
 86 256 86 256 86 536 c 0,8,9
 86 820 86 820 194.5 961 c 128,-1,10
 303 1102 303 1102 512 1102 c 0,11,12
 581 1102 581 1102 637 1082.5 c 128,-1,13
 693 1063 693 1063 736 1028.5 c 128,-1,14
 779 994 779 994 810.5 947.5 c 128,-1,15
 842 901 842 901 862 847 c 1,16,-1
 864 847 l 1,17,18
 868 868 868 868 875 896 c 128,-1,19
 882 924 882 924 891.5 955.5 c 128,-1,20
 901 987 901 987 912.5 1019.5 c 128,-1,21
 924 1052 924 1052 937 1082 c 1,22,-1
 1125 1082 l 1,23,24
 1103 1035 1103 1035 1080 971 c 128,-1,25
 1057 907 1057 907 1037.5 837.5 c 128,-1,26
 1018 768 1018 768 1003 698.5 c 128,-1,27
 988 629 988 629 983 571 c 1,28,29
 986 468 986 468 997.5 380.5 c 128,-1,30
 1009 293 1009 293 1024.5 221 c 128,-1,31
 1040 149 1040 149 1058 94 c 128,-1,32
 1076 39 1076 39 1094 0 c 1,33,-1
 911 0 l 1,34,35
 900 28 900 28 889.5 61 c 128,-1,36
 879 94 879 94 871 126.5 c 128,-1,37
 863 159 863 159 856.5 188 c 128,-1,38
 850 217 850 217 847 237 c 1,39,-1
 843 237 l 1,0,1
275 542 m 0,40,41
 275 430 275 430 289 350 c 128,-1,42
 303 270 303 270 332.5 218.5 c 128,-1,43
 362 167 362 167 408.5 143 c 128,-1,44
 455 119 455 119 521 119 c 0,45,46
 575 119 575 119 625 145 c 128,-1,47
 675 171 675 171 716 224.5 c 128,-1,48
 757 278 757 278 787.5 358 c 128,-1,49
 818 438 818 438 832 546 c 1,50,51
 820 632 820 632 797.5 709 c 128,-1,52
 775 786 775 786 739.5 843.5 c 128,-1,53
 704 901 704 901 653 935 c 128,-1,54
 602 969 602 969 532 969 c 0,55,56
 466 969 466 969 418 946 c 128,-1,57
 370 923 370 923 338 872 c 128,-1,58
 306 821 306 821 290.5 739.5 c 128,-1,59
 275 658 275 658 275 542 c 0,40,41
EndSplineSet
EndChar

StartChar: beta
Encoding: 946 946 379
Width: 1178
GlyphClass: 2
Flags: W
LayerCount: 2
Fore
SplineSet
1097 405 m 0,0,1
 1097 316 1097 316 1070.5 239 c 128,-1,2
 1044 162 1044 162 988.5 104 c 128,-1,3
 933 46 933 46 846.5 13 c 128,-1,4
 760 -20 760 -20 640 -20 c 0,5,6
 538 -20 538 -20 458 7.5 c 128,-1,7
 378 35 378 35 322 74 c 1,8,-1
 316 74 l 1,9,10
 319 17 319 17 320.5 -29 c 128,-1,11
 322 -75 322 -75 322 -128 c 2,12,-1
 322 -425 l 1,13,-1
 142 -425 l 1,14,-1
 142 1027 l 2,15,16
 142 1264 142 1264 256 1374 c 128,-1,17
 370 1484 370 1484 596 1484 c 0,18,19
 695 1484 695 1484 771 1460.5 c 128,-1,20
 847 1437 847 1437 898 1392 c 128,-1,21
 949 1347 949 1347 975.5 1282 c 128,-1,22
 1002 1217 1002 1217 1002 1135 c 0,23,24
 1002 1062 1002 1062 984.5 1006.5 c 128,-1,25
 967 951 967 951 936.5 910 c 128,-1,26
 906 869 906 869 865.5 841 c 128,-1,27
 825 813 825 813 779 795 c 1,28,29
 836 784 836 784 893 756.5 c 128,-1,30
 950 729 950 729 995.5 682.5 c 128,-1,31
 1041 636 1041 636 1069 567.5 c 128,-1,32
 1097 499 1097 499 1097 405 c 0,0,1
322 205 m 1,33,34
 350 186 350 186 385.5 169 c 128,-1,35
 421 152 421 152 461.5 139.5 c 128,-1,36
 502 127 502 127 545.5 120 c 128,-1,37
 589 113 589 113 632 113 c 0,38,39
 704 113 704 113 759 133.5 c 128,-1,40
 814 154 814 154 850.5 192 c 128,-1,41
 887 230 887 230 906 283 c 128,-1,42
 925 336 925 336 925 402 c 0,43,44
 925 467 925 467 906 522 c 128,-1,45
 887 577 887 577 846.5 617.5 c 128,-1,46
 806 658 806 658 742 680.5 c 128,-1,47
 678 703 678 703 589 703 c 1,48,-1
 589 845 l 1,49,50
 716 872 716 872 772.5 941.5 c 128,-1,51
 829 1011 829 1011 829 1133 c 0,52,53
 829 1177 829 1177 815.5 1215.5 c 128,-1,54
 802 1254 802 1254 773.5 1282.5 c 128,-1,55
 745 1311 745 1311 701.5 1327 c 128,-1,56
 658 1343 658 1343 598 1343 c 0,57,58
 528 1343 528 1343 476 1325.5 c 128,-1,59
 424 1308 424 1308 390 1269.5 c 128,-1,60
 356 1231 356 1231 339 1170 c 128,-1,61
 322 1109 322 1109 322 1021 c 2,62,-1
 322 205 l 1,33,34
EndSplineSet
EndChar

StartChar: gamma
Encoding: 947 947 380
Width: 1024
GlyphClass: 2
Flags: W
LayerCount: 2
Fore
SplineSet
7 1082 m 1,0,-1
 199 1082 l 1,1,-1
 444 407 l 2,2,3
 451 385 451 385 461.5 353.5 c 128,-1,4
 472 322 472 322 482 288.5 c 128,-1,5
 492 255 492 255 500.5 223.5 c 128,-1,6
 509 192 509 192 513 170 c 1,7,8
 518 191 518 191 527 222 c 128,-1,9
 536 253 536 253 546.5 286.5 c 128,-1,10
 557 320 557 320 568 351.5 c 128,-1,11
 579 383 579 383 587 405 c 2,12,-1
 826 1082 l 1,13,-1
 1017 1082 l 1,14,-1
 627 53 l 2,15,16
 610 8 610 8 594.5 -47.5 c 128,-1,17
 579 -103 579 -103 565.5 -165 c 128,-1,18
 552 -227 552 -227 540.5 -293 c 128,-1,19
 529 -359 529 -359 522 -424 c 1,20,-1
 331 -424 l 1,21,22
 348 -293 348 -293 372 -186.5 c 128,-1,23
 396 -80 396 -80 420 11 c 1,24,-1
 7 1082 l 1,0,-1
EndSplineSet
EndChar

StartChar: delta
Encoding: 948 948 381
Width: 1140
GlyphClass: 2
Flags: W
LayerCount: 2
Fore
SplineSet
864 471 m 0,0,1
 864 556 864 556 839.5 628.5 c 128,-1,2
 815 701 815 701 780.5 758.5 c 128,-1,3
 746 816 746 816 708 859 c 128,-1,4
 670 902 670 902 644 929 c 1,5,6
 571 903 571 903 504 862.5 c 128,-1,7
 437 822 437 822 386 765 c 128,-1,8
 335 708 335 708 305 635 c 128,-1,9
 275 562 275 562 275 471 c 0,10,11
 275 395 275 395 292.5 329.5 c 128,-1,12
 310 264 310 264 346.5 216 c 128,-1,13
 383 168 383 168 438.5 140.5 c 128,-1,14
 494 113 494 113 571 113 c 0,15,16
 652 113 652 113 708 140 c 128,-1,17
 764 167 764 167 798.5 214.5 c 128,-1,18
 833 262 833 262 848.5 327.5 c 128,-1,19
 864 393 864 393 864 471 c 0,0,1
607 1352 m 2,20,21
 594 1352 594 1352 573 1353 c 128,-1,22
 552 1354 552 1354 529.5 1355.5 c 128,-1,23
 507 1357 507 1357 486.5 1358 c 128,-1,24
 466 1359 466 1359 453 1360 c 1,25,-1
 769 1036 l 2,26,27
 823 981 823 981 874 923 c 128,-1,28
 925 865 925 865 964.5 798 c 128,-1,29
 1004 731 1004 731 1028.5 651.5 c 128,-1,30
 1053 572 1053 572 1053 475 c 0,31,32
 1053 365 1053 365 1021 274 c 128,-1,33
 989 183 989 183 927.5 117.5 c 128,-1,34
 866 52 866 52 776 16 c 128,-1,35
 686 -20 686 -20 571 -20 c 0,36,37
 457 -20 457 -20 367 14 c 128,-1,38
 277 48 277 48 214.5 111.5 c 128,-1,39
 152 175 152 175 119 266.5 c 128,-1,40
 86 358 86 358 86 473 c 0,41,42
 86 585 86 585 122.5 673 c 128,-1,43
 159 761 159 761 222.5 828.5 c 128,-1,44
 286 896 286 896 370.5 944.5 c 128,-1,45
 455 993 455 993 551 1026 c 1,46,-1
 232 1365 l 1,47,-1
 232 1484 l 1,48,-1
 965 1484 l 1,49,-1
 965 1352 l 1,50,-1
 607 1352 l 2,20,21
EndSplineSet
EndChar

StartChar: epsilon
Encoding: 949 949 382
Width: 913
GlyphClass: 2
Flags: W
LayerCount: 2
Fore
SplineSet
456 114 m 0,0,1
 510 114 510 114 558 129.5 c 128,-1,2
 606 145 606 145 645.5 169 c 128,-1,3
 685 193 685 193 716.5 221 c 128,-1,4
 748 249 748 249 769 275 c 1,5,-1
 874 175 l 1,6,7
 842 136 842 136 800 100.5 c 128,-1,8
 758 65 758 65 705 38.5 c 128,-1,9
 652 12 652 12 587 -4 c 128,-1,10
 522 -20 522 -20 444 -20 c 0,11,12
 348 -20 348 -20 277.5 3 c 128,-1,13
 207 26 207 26 161 68 c 128,-1,14
 115 110 115 110 92.5 168 c 128,-1,15
 70 226 70 226 70 295 c 0,16,17
 70 353 70 353 91 400.5 c 128,-1,18
 112 448 112 448 148 482.5 c 128,-1,19
 184 517 184 517 232 538 c 128,-1,20
 280 559 280 559 334 564 c 1,21,-1
 334 566 l 1,22,23
 283 572 283 572 240.5 592 c 128,-1,24
 198 612 198 612 167.5 644 c 128,-1,25
 137 676 137 676 120 719 c 128,-1,26
 103 762 103 762 103 813 c 0,27,28
 103 875 103 875 128 928 c 128,-1,29
 153 981 153 981 200.5 1019.5 c 128,-1,30
 248 1058 248 1058 316 1080 c 128,-1,31
 384 1102 384 1102 471 1102 c 0,32,33
 589 1102 589 1102 684.5 1059 c 128,-1,34
 780 1016 780 1016 847 917 c 1,35,-1
 719 829 l 1,36,37
 672 900 672 900 609.5 934 c 128,-1,38
 547 968 547 968 472 968 c 0,39,40
 381 968 381 968 333 925.5 c 128,-1,41
 285 883 285 883 285 809 c 0,42,43
 285 752 285 752 312.5 717 c 128,-1,44
 340 682 340 682 388.5 663.5 c 128,-1,45
 437 645 437 645 502.5 639 c 128,-1,46
 568 633 568 633 643 633 c 1,47,-1
 643 498 l 1,48,49
 571 498 571 498 501.5 492.5 c 128,-1,50
 432 487 432 487 377.5 467 c 128,-1,51
 323 447 323 447 290 407 c 128,-1,52
 257 367 257 367 257 298 c 0,53,54
 257 253 257 253 271.5 218.5 c 128,-1,55
 286 184 286 184 312 161 c 128,-1,56
 338 138 338 138 375 126 c 128,-1,57
 412 114 412 114 456 114 c 0,0,1
EndSplineSet
EndChar

StartChar: zeta
Encoding: 950 950 383
Width: 903
GlyphClass: 2
Flags: W
LayerCount: 2
Fore
SplineSet
277 379 m 0,0,1
 277 315 277 315 298.5 275.5 c 128,-1,2
 320 236 320 236 357 211.5 c 128,-1,3
 394 187 394 187 444 171.5 c 128,-1,4
 494 156 494 156 551 141 c 0,5,6
 605 126 605 126 660.5 109 c 128,-1,7
 716 92 716 92 761 63.5 c 128,-1,8
 806 35 806 35 835 -9 c 128,-1,9
 864 -53 864 -53 864 -121 c 0,10,11
 864 -155 864 -155 855 -189 c 128,-1,12
 846 -223 846 -223 833 -254 c 128,-1,13
 820 -285 820 -285 805.5 -310.5 c 128,-1,14
 791 -336 791 -336 781 -353 c 1,15,-1
 655 -297 l 1,16,17
 664 -285 664 -285 673.5 -268.5 c 128,-1,18
 683 -252 683 -252 691 -233 c 128,-1,19
 699 -214 699 -214 704.5 -194.5 c 128,-1,20
 710 -175 710 -175 710 -156 c 0,21,22
 710 -122 710 -122 692 -99.5 c 128,-1,23
 674 -77 674 -77 641 -60.5 c 128,-1,24
 608 -44 608 -44 561 -31.5 c 128,-1,25
 514 -19 514 -19 457 -6 c 0,26,27
 415 4 415 4 370.5 15.5 c 128,-1,28
 326 27 326 27 285 45 c 128,-1,29
 244 63 244 63 207.5 88 c 128,-1,30
 171 113 171 113 144 150 c 128,-1,31
 117 187 117 187 101.5 237 c 128,-1,32
 86 287 86 287 86 354 c 0,33,34
 86 437 86 437 110.5 525 c 128,-1,35
 135 613 135 613 177.5 701 c 128,-1,36
 220 789 220 789 276.5 876.5 c 128,-1,37
 333 964 333 964 396.5 1047 c 128,-1,38
 460 1130 460 1130 527.5 1207.5 c 128,-1,39
 595 1285 595 1285 659 1353 c 1,40,-1
 659 1357 l 1,41,42
 647 1356 647 1356 630 1355.5 c 128,-1,43
 613 1355 613 1355 595 1354.5 c 128,-1,44
 577 1354 577 1354 560 1353.5 c 128,-1,45
 543 1353 543 1353 532 1353 c 2,46,-1
 187 1353 l 1,47,-1
 187 1484 l 1,48,-1
 829 1484 l 1,49,-1
 829 1357 l 1,50,51
 767 1287 767 1287 701.5 1208.5 c 128,-1,52
 636 1130 636 1130 574.5 1047 c 128,-1,53
 513 964 513 964 459 878 c 128,-1,54
 405 792 405 792 364.5 706.5 c 128,-1,55
 324 621 324 621 300.5 538 c 128,-1,56
 277 455 277 455 277 379 c 0,0,1
EndSplineSet
EndChar

StartChar: eta
Encoding: 951 951 384
Width: 1139
GlyphClass: 2
Flags: W
LayerCount: 2
Fore
SplineSet
825 -424 m 1,0,-1
 825 686 l 2,1,2
 825 765 825 765 813.5 818 c 128,-1,3
 802 871 802 871 776 903.5 c 128,-1,4
 750 936 750 936 707.5 949.5 c 128,-1,5
 665 963 665 963 602 963 c 0,6,7
 538 963 538 963 486.5 940.5 c 128,-1,8
 435 918 435 918 398.5 875.5 c 128,-1,9
 362 833 362 833 342 770.5 c 128,-1,10
 322 708 322 708 322 627 c 2,11,-1
 322 0 l 1,12,-1
 142 0 l 1,13,-1
 142 851 l 2,14,15
 142 919 142 919 131 979.5 c 128,-1,16
 120 1040 120 1040 106 1082 c 1,17,-1
 276 1082 l 1,18,19
 285 1061 285 1061 292 1037 c 128,-1,20
 299 1013 299 1013 304 988.5 c 128,-1,21
 309 964 309 964 311.5 940.5 c 128,-1,22
 314 917 314 917 314 897 c 1,23,-1
 317 897 l 1,24,25
 343 944 343 944 374 982 c 128,-1,26
 405 1020 405 1020 446 1046.5 c 128,-1,27
 487 1073 487 1073 540 1087.5 c 128,-1,28
 593 1102 593 1102 663 1102 c 0,29,30
 753 1102 753 1102 818 1080 c 128,-1,31
 883 1058 883 1058 925 1012 c 128,-1,32
 967 966 967 966 986.5 893.5 c 128,-1,33
 1006 821 1006 821 1006 721 c 2,34,-1
 1006 -424 l 1,35,-1
 825 -424 l 1,0,-1
EndSplineSet
EndChar

StartChar: theta
Encoding: 952 952 385
Width: 1139
GlyphClass: 2
Flags: W
LayerCount: 2
Fore
SplineSet
1033 733 m 0,0,1
 1033 352 1033 352 913 166 c 128,-1,2
 793 -20 793 -20 565 -20 c 0,3,4
 457 -20 457 -20 371.5 26 c 128,-1,5
 286 72 286 72 227 165 c 128,-1,6
 168 258 168 258 137 399.5 c 128,-1,7
 106 541 106 541 106 733 c 0,8,9
 106 1106 106 1106 222.5 1294.5 c 128,-1,10
 339 1483 339 1483 571 1483 c 0,11,12
 692 1483 692 1483 779.5 1436.5 c 128,-1,13
 867 1390 867 1390 923 1296 c 128,-1,14
 979 1202 979 1202 1006 1061.5 c 128,-1,15
 1033 921 1033 921 1033 733 c 0,0,1
563 113 m 0,16,17
 625 113 625 113 675 139 c 128,-1,18
 725 165 725 165 761.5 229 c 128,-1,19
 798 293 798 293 819 401 c 128,-1,20
 840 509 840 509 843 673 c 1,21,-1
 296 673 l 1,22,23
 299 509 299 509 321 401.5 c 128,-1,24
 343 294 343 294 378.5 229.5 c 128,-1,25
 414 165 414 165 461 139 c 128,-1,26
 508 113 508 113 563 113 c 0,16,17
574 1354 m 0,27,28
 512 1354 512 1354 462.5 1328.5 c 128,-1,29
 413 1303 413 1303 377 1240 c 128,-1,30
 341 1177 341 1177 320 1071 c 128,-1,31
 299 965 299 965 296 804 c 1,32,-1
 843 804 l 1,33,34
 840 965 840 965 820 1071 c 128,-1,35
 800 1177 800 1177 765.5 1240 c 128,-1,36
 731 1303 731 1303 682.5 1328.5 c 128,-1,37
 634 1354 634 1354 574 1354 c 0,27,28
EndSplineSet
EndChar

StartChar: iota
Encoding: 953 953 386
Width: 455
GlyphClass: 2
Flags: W
LayerCount: 2
Fore
SplineSet
199 0 m 1,0,1
 184 16 184 16 172 42.5 c 128,-1,2
 160 69 160 69 152.5 101 c 128,-1,3
 145 133 145 133 141 168 c 128,-1,4
 137 203 137 203 137 236 c 2,5,-1
 137 1082 l 1,6,-1
 317 1082 l 1,7,-1
 317 227 l 2,8,9
 317 195 317 195 322.5 163 c 128,-1,10
 328 131 328 131 338.5 101 c 128,-1,11
 349 71 349 71 364 45 c 128,-1,12
 379 19 379 19 397 0 c 1,13,-1
 199 0 l 1,0,1
EndSplineSet
EndChar

StartChar: kappa
Encoding: 954 954 387
Width: 1024
GlyphClass: 2
Flags: W
LayerCount: 2
Fore
SplineSet
816 0 m 1,0,-1
 450 494 l 1,1,-1
 318 385 l 1,2,-1
 318 0 l 1,3,-1
 138 0 l 1,4,-1
 138 1082 l 1,5,-1
 318 1082 l 1,6,-1
 318 557 l 1,7,-1
 793 1082 l 1,8,-1
 1004 1082 l 1,9,-1
 565 617 l 1,10,-1
 1027 0 l 1,11,-1
 816 0 l 1,0,-1
EndSplineSet
EndChar

StartChar: lambda
Encoding: 955 955 388
Width: 1024
GlyphClass: 2
Flags: W
LayerCount: 2
Fore
SplineSet
463 965 m 1,0,-1
 427 1064 l 2,1,2
 400 1137 400 1137 379 1189.5 c 128,-1,3
 358 1242 358 1242 335.5 1275.5 c 128,-1,4
 313 1309 313 1309 284.5 1324.5 c 128,-1,5
 256 1340 256 1340 216 1340 c 0,6,7
 205 1340 205 1340 189 1336.5 c 128,-1,8
 173 1333 173 1333 167 1330 c 1,9,-1
 132 1460 l 1,10,11
 157 1469 157 1469 193 1476.5 c 128,-1,12
 229 1484 229 1484 261 1484 c 0,13,14
 316 1484 316 1484 359.5 1466 c 128,-1,15
 403 1448 403 1448 439.5 1407.5 c 128,-1,16
 476 1367 476 1367 509.5 1301.5 c 128,-1,17
 543 1236 543 1236 579 1141 c 2,18,-1
 1006 0 l 1,19,-1
 816 0 l 1,20,-1
 609 577 l 2,21,22
 601 599 601 599 592 627 c 128,-1,23
 583 655 583 655 574 684.5 c 128,-1,24
 565 714 565 714 557 742 c 128,-1,25
 549 770 549 770 544 791 c 1,26,27
 537 770 537 770 526 740 c 128,-1,28
 515 710 515 710 502.5 679 c 128,-1,29
 490 648 490 648 478 620.5 c 128,-1,30
 466 593 466 593 458 575 c 2,31,-1
 201 0 l 1,32,-1
 14 0 l 1,33,-1
 463 965 l 1,0,-1
EndSplineSet
EndChar

StartChar: mu
Encoding: 956 956 389
Width: 1180
GlyphClass: 2
Flags: W
LayerCount: 2
Fore
SplineSet
862 0 m 1,0,1
 861 6 861 6 859.5 29 c 128,-1,2
 858 52 858 52 856.5 81.5 c 128,-1,3
 855 111 855 111 853.5 140.5 c 128,-1,4
 852 170 852 170 852 190 c 1,5,-1
 848 190 l 1,6,7
 822 139 822 139 794 99.5 c 128,-1,8
 766 60 766 60 731.5 33.5 c 128,-1,9
 697 7 697 7 654 -6.5 c 128,-1,10
 611 -20 611 -20 554 -20 c 0,11,12
 472 -20 472 -20 412 12 c 128,-1,13
 352 44 352 44 320 102 c 1,14,-1
 316 102 l 1,15,16
 319 70 319 70 319.5 38.5 c 128,-1,17
 320 7 320 7 320 -20 c 2,18,-1
 320 -393 l 1,19,-1
 138 -393 l 1,20,-1
 138 1082 l 1,21,-1
 320 1082 l 1,22,-1
 320 438 l 2,23,24
 320 369 320 369 332.5 311 c 128,-1,25
 345 253 345 253 374.5 210.5 c 128,-1,26
 404 168 404 168 453 144.5 c 128,-1,27
 502 121 502 121 576 121 c 0,28,29
 643 121 643 121 693 147 c 128,-1,30
 743 173 743 173 776.5 218.5 c 128,-1,31
 810 264 810 264 826.5 327 c 128,-1,32
 843 390 843 390 843 465 c 2,33,-1
 843 1082 l 1,34,-1
 1024 1082 l 1,35,-1
 1024 233 l 2,36,37
 1024 199 1024 199 1024.5 161 c 128,-1,38
 1025 123 1025 123 1026 89.5 c 128,-1,39
 1027 56 1027 56 1028 31.5 c 128,-1,40
 1029 7 1029 7 1030 0 c 1,41,-1
 862 0 l 1,0,1
EndSplineSet
EndChar

StartChar: nu
Encoding: 957 957 390
Width: 1024
GlyphClass: 2
Flags: W
LayerCount: 2
Fore
SplineSet
946 846 m 0,0,1
 946 747 946 747 914.5 638 c 128,-1,2
 883 529 883 529 830 418.5 c 128,-1,3
 777 308 777 308 707 201 c 128,-1,4
 637 94 637 94 560 0 c 1,5,-1
 390 0 l 1,6,-1
 0 1082 l 1,7,-1
 189 1082 l 1,8,-1
 500 154 l 1,9,10
 642 339 642 339 704 510 c 128,-1,11
 766 681 766 681 766 837 c 0,12,13
 766 918 766 918 751.5 977.5 c 128,-1,14
 737 1037 737 1037 717 1082 c 1,15,-1
 894 1082 l 1,16,17
 918 1037 918 1037 932 980.5 c 128,-1,18
 946 924 946 924 946 846 c 0,0,1
EndSplineSet
EndChar

StartChar: xi
Encoding: 958 958 391
Width: 917
GlyphClass: 2
Flags: W
LayerCount: 2
Fore
SplineSet
86 354 m 0,0,1
 86 430 86 430 111.5 503.5 c 128,-1,2
 137 577 137 577 192 639 c 128,-1,3
 247 701 247 701 334.5 746 c 128,-1,4
 422 791 422 791 547 810 c 1,5,-1
 547 812 l 1,6,7
 479 817 479 817 420 836.5 c 128,-1,8
 361 856 361 856 317.5 890 c 128,-1,9
 274 924 274 924 248.5 972 c 128,-1,10
 223 1020 223 1020 223 1082 c 0,11,12
 223 1146 223 1146 248 1192.5 c 128,-1,13
 273 1239 273 1239 312.5 1271 c 128,-1,14
 352 1303 352 1303 400.5 1323 c 128,-1,15
 449 1343 449 1343 496 1353 c 1,16,-1
 496 1361 l 1,17,18
 484 1360 484 1360 450 1359 c 128,-1,19
 416 1358 416 1358 376 1356.5 c 128,-1,20
 336 1355 336 1355 298 1354 c 128,-1,21
 260 1353 260 1353 242 1353 c 2,22,-1
 168 1353 l 1,23,-1
 168 1484 l 1,24,-1
 802 1484 l 1,25,-1
 802 1359 l 1,26,27
 725 1350 725 1350 653 1333 c 128,-1,28
 581 1316 581 1316 525 1286.5 c 128,-1,29
 469 1257 469 1257 435 1212 c 128,-1,30
 401 1167 401 1167 401 1100 c 0,31,32
 401 1037 401 1037 431 996.5 c 128,-1,33
 461 956 461 956 510.5 931.5 c 128,-1,34
 560 907 560 907 625 895 c 128,-1,35
 690 883 690 883 759 877 c 1,36,-1
 759 746 l 1,37,38
 659 733 659 733 571.5 706 c 128,-1,39
 484 679 484 679 418.5 634.5 c 128,-1,40
 353 590 353 590 315 526.5 c 128,-1,41
 277 463 277 463 277 379 c 0,42,43
 277 315 277 315 298.5 275.5 c 128,-1,44
 320 236 320 236 357 211.5 c 128,-1,45
 394 187 394 187 444 171.5 c 128,-1,46
 494 156 494 156 551 141 c 0,47,48
 605 126 605 126 662 109 c 128,-1,49
 719 92 719 92 766 63.5 c 128,-1,50
 813 35 813 35 843.5 -9 c 128,-1,51
 874 -53 874 -53 874 -121 c 0,52,53
 874 -155 874 -155 865 -189 c 128,-1,54
 856 -223 856 -223 843 -254 c 128,-1,55
 830 -285 830 -285 815.5 -310.5 c 128,-1,56
 801 -336 801 -336 791 -353 c 1,57,-1
 665 -297 l 1,58,59
 674 -285 674 -285 683.5 -268.5 c 128,-1,60
 693 -252 693 -252 701 -233 c 128,-1,61
 709 -214 709 -214 714.5 -194.5 c 128,-1,62
 720 -175 720 -175 720 -156 c 0,63,64
 720 -122 720 -122 700.5 -99.5 c 128,-1,65
 681 -77 681 -77 646 -60.5 c 128,-1,66
 611 -44 611 -44 562.5 -31.5 c 128,-1,67
 514 -19 514 -19 457 -6 c 0,68,69
 415 4 415 4 370.5 15.5 c 128,-1,70
 326 27 326 27 285 45 c 128,-1,71
 244 63 244 63 207.5 88 c 128,-1,72
 171 113 171 113 144 150 c 128,-1,73
 117 187 117 187 101.5 237 c 128,-1,74
 86 287 86 287 86 354 c 0,0,1
EndSplineSet
EndChar

StartChar: pi
Encoding: 960 960 393
Width: 1413
GlyphClass: 2
Flags: W
LayerCount: 2
Fore
SplineSet
1126 -20 m 0,0,1
 1067 -20 1067 -20 1026 -6 c 128,-1,2
 985 8 985 8 959 37.5 c 128,-1,3
 933 67 933 67 921 114 c 128,-1,4
 909 161 909 161 909 227 c 2,5,-1
 909 951 l 1,6,-1
 507 951 l 1,7,-1
 507 879 l 2,8,9
 507 748 507 748 499 622.5 c 128,-1,10
 491 497 491 497 477.5 383 c 128,-1,11
 464 269 464 269 446 171.5 c 128,-1,12
 428 74 428 74 409 0 c 1,13,-1
 221 0 l 1,14,15
 240 76 240 76 259.5 174.5 c 128,-1,16
 279 273 279 273 295 386 c 128,-1,17
 311 499 311 499 321 622.5 c 128,-1,18
 331 746 331 746 331 871 c 2,19,-1
 331 951 l 1,20,21
 292 951 292 951 252.5 947.5 c 128,-1,22
 213 944 213 944 178.5 939 c 128,-1,23
 144 934 144 934 117.5 927.5 c 128,-1,24
 91 921 91 921 79 914 c 1,25,-1
 79 1053 l 1,26,27
 91 1059 91 1059 112.5 1064.5 c 128,-1,28
 134 1070 134 1070 159.5 1074 c 128,-1,29
 185 1078 185 1078 212 1080 c 128,-1,30
 239 1082 239 1082 262 1082 c 2,31,-1
 1323 1082 l 1,32,-1
 1323 951 l 1,33,-1
 1089 951 l 1,34,-1
 1089 266 l 2,35,36
 1089 222 1089 222 1095.5 194 c 128,-1,37
 1102 166 1102 166 1114 150 c 128,-1,38
 1126 134 1126 134 1143.5 127.5 c 128,-1,39
 1161 121 1161 121 1183 121 c 0,40,41
 1190 121 1190 121 1201.5 122 c 128,-1,42
 1213 123 1213 123 1225.5 124 c 128,-1,43
 1238 125 1238 125 1249.5 126.5 c 128,-1,44
 1261 128 1261 128 1269 129 c 1,45,-1
 1269 0 l 1,46,47
 1238 -8 1238 -8 1203.5 -14 c 128,-1,48
 1169 -20 1169 -20 1126 -20 c 0,0,1
EndSplineSet
EndChar

StartChar: rho
Encoding: 961 961 394
Width: 1165
GlyphClass: 2
Flags: W
LayerCount: 2
Fore
SplineSet
1083 516 m 0,0,1
 1083 398 1083 398 1051.5 299.5 c 128,-1,2
 1020 201 1020 201 962.5 130 c 128,-1,3
 905 59 905 59 824.5 19.5 c 128,-1,4
 744 -20 744 -20 646 -20 c 0,5,6
 584 -20 584 -20 535 -10 c 128,-1,7
 486 0 486 0 446 18.5 c 128,-1,8
 406 37 406 37 373 63.5 c 128,-1,9
 340 90 340 90 312 123 c 1,10,-1
 308 123 l 1,11,12
 310 93 310 93 311 62.5 c 128,-1,13
 312 32 312 32 312 0 c 2,14,-1
 312 -425 l 1,15,-1
 132 -425 l 1,16,-1
 132 581 l 2,17,18
 132 700 132 700 162 796.5 c 128,-1,19
 192 893 192 893 250 961 c 128,-1,20
 308 1029 308 1029 392.5 1066 c 128,-1,21
 477 1103 477 1103 587 1103 c 0,22,23
 690 1103 690 1103 780.5 1063.5 c 128,-1,24
 871 1024 871 1024 938 949 c 128,-1,25
 1005 874 1005 874 1044 764.5 c 128,-1,26
 1083 655 1083 655 1083 516 c 0,0,1
890 524 m 0,27,28
 890 628 890 628 868 711 c 128,-1,29
 846 794 846 794 804.5 851.5 c 128,-1,30
 763 909 763 909 705 939.5 c 128,-1,31
 647 970 647 970 575 970 c 0,32,33
 506 970 506 970 456 943.5 c 128,-1,34
 406 917 406 917 374 866.5 c 128,-1,35
 342 816 342 816 327 743 c 128,-1,36
 312 670 312 670 312 577 c 2,37,-1
 312 260 l 1,38,39
 340 225 340 225 376 197.5 c 128,-1,40
 412 170 412 170 452 151.5 c 128,-1,41
 492 133 492 133 535.5 123 c 128,-1,42
 579 113 579 113 623 113 c 0,43,44
 690 113 690 113 740 142 c 128,-1,45
 790 171 790 171 823.5 224.5 c 128,-1,46
 857 278 857 278 873.5 354 c 128,-1,47
 890 430 890 430 890 524 c 0,27,28
EndSplineSet
EndChar

StartChar: sigma1
Encoding: 962 962 395
Width: 987
GlyphClass: 2
Flags: W
LayerCount: 2
Fore
SplineSet
582 961 m 0,0,1
 528 961 528 961 484 936.5 c 128,-1,2
 440 912 440 912 406.5 872 c 128,-1,3
 373 832 373 832 348.5 780 c 128,-1,4
 324 728 324 728 308 674 c 128,-1,5
 292 620 292 620 284.5 567 c 128,-1,6
 277 514 277 514 277 472 c 0,7,8
 277 404 277 404 293 356 c 128,-1,9
 309 308 309 308 347 272 c 128,-1,10
 385 236 385 236 447 207.5 c 128,-1,11
 509 179 509 179 601 149 c 0,12,13
 654 132 654 132 711 113.5 c 128,-1,14
 768 95 768 95 815.5 65.5 c 128,-1,15
 863 36 863 36 893.5 -8.5 c 128,-1,16
 924 -53 924 -53 924 -121 c 0,17,18
 924 -155 924 -155 915 -189 c 128,-1,19
 906 -223 906 -223 893 -254 c 128,-1,20
 880 -285 880 -285 865.5 -310.5 c 128,-1,21
 851 -336 851 -336 841 -353 c 1,22,-1
 715 -297 l 1,23,24
 724 -285 724 -285 733.5 -268.5 c 128,-1,25
 743 -252 743 -252 751 -233 c 128,-1,26
 759 -214 759 -214 764.5 -194.5 c 128,-1,27
 770 -175 770 -175 770 -156 c 0,28,29
 770 -126 770 -126 752.5 -104 c 128,-1,30
 735 -82 735 -82 701 -64 c 128,-1,31
 667 -46 667 -46 618.5 -30.5 c 128,-1,32
 570 -15 570 -15 507 2 c 0,33,34
 441 20 441 20 384.5 40 c 128,-1,35
 328 60 328 60 281 85.5 c 128,-1,36
 234 111 234 111 198 145 c 128,-1,37
 162 179 162 179 137 225.5 c 128,-1,38
 112 272 112 272 99 333 c 128,-1,39
 86 394 86 394 86 475 c 0,40,41
 86 522 86 522 96 587 c 128,-1,42
 106 652 106 652 129 722 c 128,-1,43
 152 792 152 792 189.5 860 c 128,-1,44
 227 928 227 928 282 982 c 128,-1,45
 337 1036 337 1036 411 1069 c 128,-1,46
 485 1102 485 1102 582 1102 c 0,47,48
 650 1102 650 1102 699.5 1091.5 c 128,-1,49
 749 1081 749 1081 785.5 1064 c 128,-1,50
 822 1047 822 1047 849 1025 c 128,-1,51
 876 1003 876 1003 898 980 c 1,52,-1
 782 861 l 1,53,54
 764 880 764 880 743 898 c 128,-1,55
 722 916 722 916 697.5 930 c 128,-1,56
 673 944 673 944 644.5 952.5 c 128,-1,57
 616 961 616 961 582 961 c 0,0,1
EndSplineSet
EndChar

StartChar: sigma
Encoding: 963 963 396
Width: 1264
GlyphClass: 2
Flags: W
LayerCount: 2
Fore
SplineSet
1072 491 m 0,0,1
 1072 379 1072 379 1041.5 285 c 128,-1,2
 1011 191 1011 191 949.5 123.5 c 128,-1,3
 888 56 888 56 796.5 18 c 128,-1,4
 705 -20 705 -20 582 -20 c 256,5,6
 459 -20 459 -20 366 17 c 128,-1,7
 273 54 273 54 211 123.5 c 128,-1,8
 149 193 149 193 117.5 294 c 128,-1,9
 86 395 86 395 86 524 c 0,10,11
 86 668 86 668 129 773 c 128,-1,12
 172 878 172 878 248.5 947 c 128,-1,13
 325 1016 325 1016 431.5 1049 c 128,-1,14
 538 1082 538 1082 664 1082 c 2,15,-1
 1233 1082 l 1,16,-1
 1233 951 l 1,17,-1
 1068 951 l 2,18,19
 1059 951 1059 951 1041.5 951.5 c 128,-1,20
 1024 952 1024 952 1002.5 953 c 128,-1,21
 981 954 981 954 959 955 c 128,-1,22
 937 956 937 956 920 957 c 1,23,-1
 920 953 l 1,24,25
 948 911 948 911 975.5 861.5 c 128,-1,26
 1003 812 1003 812 1024.5 754.5 c 128,-1,27
 1046 697 1046 697 1059 631.5 c 128,-1,28
 1072 566 1072 566 1072 491 c 0,0,1
883 488 m 0,29,30
 883 562 883 562 873 628 c 128,-1,31
 863 694 863 694 846 752 c 128,-1,32
 829 810 829 810 806.5 859.5 c 128,-1,33
 784 909 784 909 759 951 c 1,34,-1
 670 951 l 2,35,36
 587 951 587 951 515.5 926 c 128,-1,37
 444 901 444 901 390.5 848.5 c 128,-1,38
 337 796 337 796 306.5 716 c 128,-1,39
 276 636 276 636 276 526 c 0,40,41
 276 319 276 319 351.5 216 c 128,-1,42
 427 113 427 113 574 113 c 0,43,44
 652 113 652 113 710.5 139 c 128,-1,45
 769 165 769 165 807 213.5 c 128,-1,46
 845 262 845 262 864 331.5 c 128,-1,47
 883 401 883 401 883 488 c 0,29,30
EndSplineSet
EndChar

StartChar: tau
Encoding: 964 964 397
Width: 809
GlyphClass: 2
Flags: W
LayerCount: 2
Fore
SplineSet
281 951 m 2,0,1
 242 951 242 951 202.5 947.5 c 128,-1,2
 163 944 163 944 128.5 939 c 128,-1,3
 94 934 94 934 67.5 927.5 c 128,-1,4
 41 921 41 921 29 914 c 1,5,-1
 29 1053 l 1,6,7
 41 1059 41 1059 62.5 1064.5 c 128,-1,8
 84 1070 84 1070 109.5 1074 c 128,-1,9
 135 1078 135 1078 162 1080 c 128,-1,10
 189 1082 189 1082 212 1082 c 2,11,-1
 792 1082 l 1,12,-1
 792 951 l 1,13,-1
 488 951 l 1,14,-1
 488 266 l 2,15,16
 488 222 488 222 494.5 194 c 128,-1,17
 501 166 501 166 513 150 c 128,-1,18
 525 134 525 134 542.5 127.5 c 128,-1,19
 560 121 560 121 582 121 c 0,20,21
 589 121 589 121 600.5 122 c 128,-1,22
 612 123 612 123 624.5 124 c 128,-1,23
 637 125 637 125 648.5 126.5 c 128,-1,24
 660 128 660 128 668 129 c 1,25,-1
 668 0 l 1,26,27
 637 -8 637 -8 602.5 -14 c 128,-1,28
 568 -20 568 -20 525 -20 c 0,29,30
 466 -20 466 -20 425 -6 c 128,-1,31
 384 8 384 8 358 37.5 c 128,-1,32
 332 67 332 67 320 114 c 128,-1,33
 308 161 308 161 308 227 c 2,34,-1
 308 951 l 1,35,-1
 281 951 l 2,0,1
EndSplineSet
EndChar

StartChar: upsilon
Encoding: 965 965 398
Width: 1120
GlyphClass: 2
Flags: W
LayerCount: 2
Fore
SplineSet
1022 571 m 0,0,1
 1022 434 1022 434 995.5 325 c 128,-1,2
 969 216 969 216 912.5 139 c 128,-1,3
 856 62 856 62 768 21 c 128,-1,4
 680 -20 680 -20 557 -20 c 0,5,6
 448 -20 448 -20 368 5 c 128,-1,7
 288 30 288 30 236 83.5 c 128,-1,8
 184 137 184 137 158.5 220 c 128,-1,9
 133 303 133 303 133 419 c 2,10,-1
 133 1082 l 1,11,-1
 314 1082 l 1,12,-1
 314 413 l 2,13,14
 314 267 314 267 372.5 193 c 128,-1,15
 431 119 431 119 565 119 c 0,16,17
 638 119 638 119 690 144 c 128,-1,18
 742 169 742 169 774.5 223 c 128,-1,19
 807 277 807 277 822 362 c 128,-1,20
 837 447 837 447 837 567 c 0,21,22
 837 635 837 635 827 708.5 c 128,-1,23
 817 782 817 782 800.5 851.5 c 128,-1,24
 784 921 784 921 764 981 c 128,-1,25
 744 1041 744 1041 723 1082 c 1,26,-1
 911 1082 l 1,27,28
 929 1042 929 1042 949 985.5 c 128,-1,29
 969 929 969 929 985 862 c 128,-1,30
 1001 795 1001 795 1011.5 720.5 c 128,-1,31
 1022 646 1022 646 1022 571 c 0,0,1
EndSplineSet
EndChar

StartChar: phi
Encoding: 966 966 399
Width: 1328
GlyphClass: 2
Flags: W
LayerCount: 2
Fore
SplineSet
1242 565 m 0,0,1
 1242 414 1242 414 1205 306.5 c 128,-1,2
 1168 199 1168 199 1102 129 c 128,-1,3
 1036 59 1036 59 944 23.5 c 128,-1,4
 852 -12 852 -12 742 -18 c 1,5,-1
 742 -425 l 1,6,-1
 572 -425 l 1,7,-1
 572 -18 l 1,8,9
 458 -13 458 -13 367.5 23 c 128,-1,10
 277 59 277 59 214.5 128 c 128,-1,11
 152 197 152 197 118.5 300.5 c 128,-1,12
 85 404 85 404 85 545 c 0,13,14
 85 647 85 647 109.5 741 c 128,-1,15
 134 835 134 835 185.5 910 c 128,-1,16
 237 985 237 985 316.5 1036.5 c 128,-1,17
 396 1088 396 1088 505 1106 c 1,18,-1
 526 970 l 1,19,20
 457 955 457 955 409 916.5 c 128,-1,21
 361 878 361 878 331 821 c 128,-1,22
 301 764 301 764 287.5 692.5 c 128,-1,23
 274 621 274 621 274 541 c 0,24,25
 274 328 274 328 347.5 227.5 c 128,-1,26
 421 127 421 127 572 119 c 1,27,-1
 572 699 l 2,28,29
 572 892 572 892 649 998 c 128,-1,30
 726 1104 726 1104 884 1104 c 0,31,32
 968 1104 968 1104 1034.5 1066 c 128,-1,33
 1101 1028 1101 1028 1147 957.5 c 128,-1,34
 1193 887 1193 887 1217.5 787.5 c 128,-1,35
 1242 688 1242 688 1242 565 c 0,0,1
1053 567 m 0,36,37
 1053 760 1053 760 1009.5 865.5 c 128,-1,38
 966 971 966 971 886 971 c 0,39,40
 818 971 818 971 780 906.5 c 128,-1,41
 742 842 742 842 742 702 c 2,42,-1
 742 119 l 1,43,44
 904 126 904 126 978.5 235 c 128,-1,45
 1053 344 1053 344 1053 567 c 0,36,37
EndSplineSet
EndChar

StartChar: chi
Encoding: 967 967 400
Width: 1075
GlyphClass: 2
Flags: W
LayerCount: 2
Fore
SplineSet
542 239 m 1,0,-1
 209 -424 l 1,1,-1
 21 -424 l 1,2,-1
 461 401 l 1,3,-1
 291 744 l 2,4,5
 264 798 264 798 242 839 c 128,-1,6
 220 880 220 880 200 907.5 c 128,-1,7
 180 935 180 935 159 949 c 128,-1,8
 138 963 138 963 113 963 c 0,9,10
 102 963 102 963 86 959.5 c 128,-1,11
 70 956 70 956 63 953 c 1,12,-1
 29 1084 l 1,13,14
 53 1093 53 1093 84 1098.5 c 128,-1,15
 115 1104 115 1104 147 1104 c 0,16,17
 195 1104 195 1104 230 1090.5 c 128,-1,18
 265 1077 265 1077 295 1046 c 128,-1,19
 325 1015 325 1015 354.5 964 c 128,-1,20
 384 913 384 913 420 838 c 2,21,-1
 562 543 l 1,22,-1
 826 1082 l 1,23,-1
 1013 1082 l 1,24,-1
 645 385 l 1,25,-1
 1051 -424 l 1,26,-1
 861 -424 l 1,27,-1
 542 239 l 1,0,-1
EndSplineSet
EndChar

